<?xml version="1.0" encoding="iso-8859-1"?>
<!-- Generator: Adobe Illustrator 18.0.0, SVG Export Plug-In . SVG Version: 6.00 Build 0)  -->
<!DOCTYPE svg PUBLIC "-//W3C//DTD SVG 1.1//EN" "http://www.w3.org/Graphics/SVG/1.1/DTD/svg11.dtd">
<svg version="1.1" id="Capa_1" xmlns="http://www.w3.org/2000/svg" xmlns:xlink="http://www.w3.org/1999/xlink" x="0px" y="0px"
	 viewBox="0 0 48 48" style="enable-background:new 0 0 48 48;" xml:space="preserve">
<g>
	<path style="fill:#40C7A9;" d="M24,2.5C12.127,2.5,0,17.75,0,30.937c0,1.37,1.027,2.563,2.397,2.563h2.665
		c0.072-0.379,0.158-0.76,0.277-1.145c0.416-1.346,1.461-2.47,2.837-2.775c1.041-0.231,2.236-0.031,3.057,1.534
		c0.389,0.74,0.452,1.61,0.211,2.386h25.113c-0.241-0.776-0.178-1.646,0.211-2.386c0.822-1.565,2.017-1.765,3.057-1.534
		c1.376,0.306,2.421,1.429,2.837,2.775c0.119,0.384,0.204,0.765,0.277,1.145h2.797C47.06,33.5,48,32.375,48,31.049
		C48,18.667,35.909,2.5,24,2.5z"/>
	<path style="fill:#C1F4E8;" d="M14.229,30.5c-0.095-0.267-0.209-0.528-0.341-0.78c-1.073-2.046-2.902-3.22-5.019-3.22
		c-0.44,0-0.893,0.051-1.346,0.151c-1.918,0.426-3.557,1.727-4.509,3.513C3.482,18.471,14.399,5.5,24,5.5
		c9.853,0,20.387,14.161,20.975,24.645c-0.953-1.776-2.587-3.069-4.5-3.494C40.022,26.551,39.57,26.5,39.13,26.5
		c-2.116,0-3.945,1.174-5.019,3.221c-0.133,0.251-0.246,0.512-0.341,0.779H14.229z"/>
	<path style="fill:#211F02;" d="M9,45.5c0,0-5.798-6.231-3.662-13.145c0.416-1.347,1.461-2.47,2.837-2.775
		c1.041-0.231,2.236-0.031,3.057,1.534c0.615,1.172,0.419,2.669-0.517,3.605C8.676,36.759,9,40.5,9,45.5z"/>
	<path style="fill:#211F02;" d="M21,33.5c-2.844,1.781-3,10-3,10c-4.313-4.25-3-10-3-10H21z"/>
	<path style="fill:#211F02;" d="M39,45.5c0,0,5.798-6.231,3.662-13.145c-0.416-1.347-1.461-2.47-2.837-2.775
		c-1.041-0.231-2.236-0.031-3.057,1.534c-0.615,1.172-0.419,2.669,0.517,3.605C39.324,36.759,39,40.5,39,45.5z"/>
	<path style="fill:#211F02;" d="M27,33.5c2.844,1.781,3,10,3,10c4.313-4.25,3-10,3-10H27z"/>
	<ellipse style="fill:#E64C3C;" cx="24" cy="12" rx="5" ry="5.5"/>
	<ellipse style="fill:#E64C3C;" cx="31" cy="24" rx="5" ry="5.5"/>
	<ellipse style="fill:#E64C3C;" cx="17" cy="24" rx="5" ry="5.5"/>
	<path style="fill:#C03A2B;" d="M28.993,11.845C28.994,11.897,29,11.948,29,12c0,3.038-2.239,5.5-5,5.5s-5-2.462-5-5.5
		c0-0.052,0.006-0.103,0.007-0.155C16.592,13.28,15,15.724,15,18.5c0,0.151,0.016,0.298,0.025,0.447
		C15.631,18.66,16.298,18.5,17,18.5c2.761,0,5,2.462,5,5.5c0,0.782-0.151,1.525-0.419,2.199C22.352,26.39,23.161,26.5,24,26.5
		s1.648-0.11,2.419-0.301C26.151,25.525,26,24.782,26,24c0-3.038,2.239-5.5,5-5.5c0.702,0,1.369,0.16,1.975,0.447
		C32.984,18.798,33,18.651,33,18.5C33,15.724,31.408,13.28,28.993,11.845z"/>
</g>
<g>
</g>
<g>
</g>
<g>
</g>
<g>
</g>
<g>
</g>
<g>
</g>
<g>
</g>
<g>
</g>
<g>
</g>
<g>
</g>
<g>
</g>
<g>
</g>
<g>
</g>
<g>
</g>
<g>
</g>
</svg>
