<?xml version="1.0" encoding="iso-8859-1"?>
<!-- Generator: Adobe Illustrator 18.0.0, SVG Export Plug-In . SVG Version: 6.00 Build 0)  -->
<!DOCTYPE svg PUBLIC "-//W3C//DTD SVG 1.1//EN" "http://www.w3.org/Graphics/SVG/1.1/DTD/svg11.dtd">
<svg version="1.1" id="Capa_1" xmlns="http://www.w3.org/2000/svg" xmlns:xlink="http://www.w3.org/1999/xlink" x="0px" y="0px"
	 viewBox="0 0 58.171 58.171" style="enable-background:new 0 0 58.171 58.171;" xml:space="preserve">
<g>
	<path style="fill:#715C3A;" d="M3,55.085c-0.768,0-1.536-0.293-2.121-0.879c-1.172-1.171-1.172-3.071,0-4.242l46-46
		C47.464,3.378,48.232,3.085,49,3.085s1.536,0.293,2.121,0.879c1.172,1.171,1.172,3.071,0,4.242l-46,46
		C4.536,54.792,3.768,55.085,3,55.085z"/>
	<g>
		<path style="fill:#A5A5A4;" d="M56.898,16.57l-12.119-2.022L34.622,24.706c0.441-0.106,0.904-0.262,1.381-0.466l0.011,13.063
			c0.333,1.695,2.212,2.088,3.318,0.981l18.203-18.203C58.606,19.009,58.278,17.198,56.898,16.57z"/>
		<path style="fill:#A5A5A4;" d="M24.375,15.699l7.571,2.938l0,0c-0.096,0.176-0.175,0.348-0.26,0.521l7.419-7.419l-3.49-7.28
			c-0.634-0.996-2.027-1.149-2.862-0.314l-8.691,8.691C23.225,13.671,23.378,15.065,24.375,15.699z"/>
	</g>
</g>
<g>
</g>
<g>
</g>
<g>
</g>
<g>
</g>
<g>
</g>
<g>
</g>
<g>
</g>
<g>
</g>
<g>
</g>
<g>
</g>
<g>
</g>
<g>
</g>
<g>
</g>
<g>
</g>
<g>
</g>
</svg>
