<?xml version="1.0" encoding="iso-8859-1"?>
<!-- Generator: Adobe Illustrator 18.0.0, SVG Export Plug-In . SVG Version: 6.00 Build 0)  -->
<!DOCTYPE svg PUBLIC "-//W3C//DTD SVG 1.1//EN" "http://www.w3.org/Graphics/SVG/1.1/DTD/svg11.dtd">
<svg version="1.1" id="Capa_1" xmlns="http://www.w3.org/2000/svg" xmlns:xlink="http://www.w3.org/1999/xlink" x="0px" y="0px"
	 viewBox="0 0 56.256 56.256" style="enable-background:new 0 0 56.256 56.256;" xml:space="preserve">
<g>
	<path style="fill:#D1D4D1;" d="M45.409,36.423c-0.613,0.613-1.072,1.32-1.383,2.074L17.76,12.23c0.754-0.31,1.461-0.77,2.074-1.383
		c2.481-2.481,2.481-6.505,0-8.986s-6.505-2.481-8.986,0s-2.481,6.505,0,8.986c0.117,0.117,0.24,0.222,0.363,0.328l-0.035,0.035
		c-0.106-0.123-0.211-0.246-0.328-0.363c-2.481-2.481-6.505-2.481-8.986,0s-2.481,6.505,0,8.986s6.505,2.481,8.986,0
		c0.357-0.357,0.657-0.75,0.912-1.162l25.826,25.826c-0.412,0.254-0.804,0.554-1.162,0.912c-2.481,2.481-2.481,6.505,0,8.986
		c2.481,2.481,6.505,2.481,8.986,0c2.481-2.481,2.481-6.505,0-8.986c-0.117-0.117-0.24-0.222-0.363-0.328l0.035-0.035
		c0.106,0.123,0.211,0.246,0.328,0.363c2.481,2.481,6.505,2.481,8.986,0c2.481-2.481,2.481-6.505,0-8.986
		C51.913,33.941,47.89,33.941,45.409,36.423z"/>
</g>
<g>
</g>
<g>
</g>
<g>
</g>
<g>
</g>
<g>
</g>
<g>
</g>
<g>
</g>
<g>
</g>
<g>
</g>
<g>
</g>
<g>
</g>
<g>
</g>
<g>
</g>
<g>
</g>
<g>
</g>
</svg>
