<?xml version="1.0" encoding="iso-8859-1"?>
<!-- Generator: Adobe Illustrator 18.0.0, SVG Export Plug-In . SVG Version: 6.00 Build 0)  -->
<!DOCTYPE svg PUBLIC "-//W3C//DTD SVG 1.1//EN" "http://www.w3.org/Graphics/SVG/1.1/DTD/svg11.dtd">
<svg version="1.1" id="Capa_1" xmlns="http://www.w3.org/2000/svg" xmlns:xlink="http://www.w3.org/1999/xlink" x="0px" y="0px"
	 viewBox="0 0 56 56" style="enable-background:new 0 0 56 56;" xml:space="preserve">
<g>
	<polygon style="fill:#D1D4D1;" points="8.956,12.214 44,47.234 43,51.234 4,12.234 	"/>
	<path style="fill:#7D7D7D;" d="M40.995,22.904l-8.548-8.548c-1.367-1.367-1.367-3.583,0-4.95l1.074-1.074
		c1.461-1.461,3.851-1.461,5.312,0l8.186,8.186c1.467,1.467,1.467,3.845,0,5.312l-1.074,1.074
		C44.578,24.271,42.362,24.271,40.995,22.904z"/>
	<g>
		<path style="fill:#715C3A;" d="M55.519,47.206L53,47.234c-0.495-0.011-1-0.504-1-1v-8h1v-6h2v-11c0-0.504-0.496-1-1-1h-5.632
			c-0.108,0.006-0.214,0.016-0.326,0.016c-0.027,0-0.052-0.003-0.079-0.004c-0.172,0.58-0.487,1.126-0.944,1.584l-1.074,1.074
			c-1.032,1.032-2.543,1.272-3.811,0.746c-0.024,0.02-0.048,0.039-0.072,0.059L42,31.234c0,0.504,0.496,1,1,1s1,0.496,1,1v6h2v8h-3
			V54c0,0.495,0.505,0.989,1,1h11c0.512,0.012,1-0.488,1-1v-5.766C56,47.738,56.014,47.217,55.519,47.206z"/>
		<path style="fill:#715C3A;" d="M33.076,14.985l-0.63-0.63c-1.367-1.367-1.367-3.583,0-4.95l1.074-1.074
			c0.443-0.443,0.973-0.736,1.534-0.906c0.004-0.067,0.001-0.134,0.007-0.201C35.041,7.228,35.02,7.229,35,7.234l0-5.322
			C35,1.408,34.592,1,34.088,1H24c-0.504,0-1,0.262-1,0.766S22.504,3,22,3h-5v2h-6c-0.495,0-0.9-0.396-0.912-0.891l-0.06-2.218
			C10.016,1.396,9.612,1,9.116,1H0.912C0.4,1-0.011,1.421,0,1.933l1,9.39c0.011,0.495,0.416,0.891,0.912,0.891h7.045L8.934,11H18v2
			h4.923c0.504,0,0.912,0.642,0.912,1.146v0.285c0,0.504,0.661,0.803,1.165,0.803h7.991C33.016,15.15,33.047,15.068,33.076,14.985z"
			/>
	</g>
</g>
<g>
</g>
<g>
</g>
<g>
</g>
<g>
</g>
<g>
</g>
<g>
</g>
<g>
</g>
<g>
</g>
<g>
</g>
<g>
</g>
<g>
</g>
<g>
</g>
<g>
</g>
<g>
</g>
<g>
</g>
</svg>
