<?xml version="1.0" encoding="iso-8859-1"?>
<!-- Generator: Adobe Illustrator 18.0.0, SVG Export Plug-In . SVG Version: 6.00 Build 0)  -->
<!DOCTYPE svg PUBLIC "-//W3C//DTD SVG 1.1//EN" "http://www.w3.org/Graphics/SVG/1.1/DTD/svg11.dtd">
<svg version="1.1" id="Capa_1" xmlns="http://www.w3.org/2000/svg" xmlns:xlink="http://www.w3.org/1999/xlink" x="0px" y="0px"
	 viewBox="0 0 60 60" style="enable-background:new 0 0 60 60;" xml:space="preserve">
<g>
	<rect x="38.989" y="32.5" style="fill:#AA5E32;" width="20" height="24"/>
	<circle style="fill:#F0C419;" cx="52" cy="21.5" r="7"/>
	<rect x="51" y="18.5" style="fill:#FBD490;" width="2" height="6"/>
	<circle style="fill:#F0C419;" cx="38" cy="10.5" r="7"/>
	<rect x="37" y="7.5" style="fill:#FBD490;" width="2" height="6"/>
	<circle style="fill:#F0C419;" cx="22" cy="10.5" r="7"/>
	<rect x="21" y="7.5" style="fill:#FBD490;" width="2" height="6"/>
	<circle style="fill:#F0C419;" cx="8" cy="21.5" r="7"/>
	<rect x="7" y="18.5" style="fill:#FBD490;" width="2" height="6"/>
	<path style="fill:#5B311B;" d="M44.989,41.5v6h-5.98v2h10.98v7h2v-7h5.989v7H60v-24h-2.022v7h-5.989v-7h-2v7h-10.98v2H44.989z
		 M46.989,41.5h10.989v6H46.989V41.5z"/>
	<rect x="1.011" y="32.5" style="fill:#AA5E32;" width="20" height="24"/>
	<path style="fill:#5B311B;" d="M20.991,41.5v-2h-10.98v-7h-2v7H2.022v-7H0v24h2.022v-7h5.989v7h2v-7h10.98v-2h-5.98v-6H20.991z
		 M13.011,47.5H2.022v-6h10.989V47.5z"/>
	<rect x="21" y="32.5" style="fill:#F0C419;" width="19" height="24"/>
	<g>
		<path style="fill:#FBD490;" d="M32.342,35.5h-3.958C26.455,35.5,25,36.876,25,38.7v1.8h2v-1.8c0-0.825,0.717-1.2,1.383-1.2h3.958
			c0.784,0,1.658,0.493,1.658,1.2v2.383c0,0.125-0.195,0.417-2,0.417c-1.738,0-3,1.521-3,3.617V47.5h2v-2.383
			c0-0.65,0.266-1.617,1-1.617c0.989,0,4,0,4-2.417V38.7C36,36.724,34.101,35.5,32.342,35.5z"/>
		<rect x="29" y="49.5" style="fill:#FBD490;" width="2" height="2"/>
	</g>
</g>
<g>
</g>
<g>
</g>
<g>
</g>
<g>
</g>
<g>
</g>
<g>
</g>
<g>
</g>
<g>
</g>
<g>
</g>
<g>
</g>
<g>
</g>
<g>
</g>
<g>
</g>
<g>
</g>
<g>
</g>
</svg>
