<?xml version="1.0" encoding="iso-8859-1"?>
<!-- Generator: Adobe Illustrator 18.0.0, SVG Export Plug-In . SVG Version: 6.00 Build 0)  -->
<!DOCTYPE svg PUBLIC "-//W3C//DTD SVG 1.1//EN" "http://www.w3.org/Graphics/SVG/1.1/DTD/svg11.dtd">
<svg version="1.1" id="Capa_1" xmlns="http://www.w3.org/2000/svg" xmlns:xlink="http://www.w3.org/1999/xlink" x="0px" y="0px"
	 viewBox="0 0 57.324 57.324" style="enable-background:new 0 0 57.324 57.324;" xml:space="preserve">
<g>
	<path style="fill:#BE8400;" d="M5.132,15.796L4.49,17.291l-1.381-0.593c-0.643-0.276-1.407,0.065-1.706,0.762L0.12,20.452
		c-0.299,0.697-0.02,1.485,0.624,1.761l1.381,0.593l-0.642,1.496c-0.299,0.697-0.02,1.485,0.624,1.761l1.914,0.821
		c0.643,0.276,1.407-0.065,1.706-0.762l0.642-1.496l3.395,1.456l2.365-5.514l-3.394-1.456l0.642-1.496
		c0.299-0.697,0.02-1.485-0.624-1.761l-1.914-0.821C6.194,14.758,5.431,15.099,5.132,15.796z"/>
	<polygon style="fill:#E5B55B;" points="46.789,31.085 41.27,43.951 21.84,33.439 25.782,24.249 	"/>
	<path style="fill:#E5B55B;" d="M21.582,21.359l-4.731,11.028l-7.235-1.366c-0.936-0.177-1.468-1.175-1.093-2.051l4.844-11.291
		c0.376-0.876,1.466-1.178,2.239-0.622L21.582,21.359z"/>
	<path style="fill:#BE8400;" d="M26.374,22.871l-5.125,11.947c-0.544,1.269-2.014,1.856-3.283,1.312h0
		c-1.269-0.544-1.856-2.014-1.312-3.283l5.125-11.947c0.544-1.269,2.014-1.856,3.283-1.312l0,0
		C26.331,20.132,26.918,21.602,26.374,22.871z"/>
	<path style="fill:#D9A72E;" d="M51.909,34.369l-4.731,11.028c-0.653,1.523-2.417,2.227-3.94,1.574h0
		c-1.523-0.653-2.227-2.417-1.574-3.94l4.731-11.028c0.653-1.523,2.417-2.227,3.94-1.574l0,0
		C51.857,31.082,52.562,32.846,51.909,34.369z"/>
	<path style="fill:#BA8100;" d="M57.162,32.27l-7.885,18.38c-0.435,1.015-1.611,1.485-2.626,1.05l0,0
		c-1.015-0.435-1.485-1.611-1.05-2.626l7.885-18.38c0.435-1.015,1.611-1.485,2.626-1.05h0C57.127,30.079,57.597,31.255,57.162,32.27
		z"/>
	<g>
		<path style="fill:#D1D4D1;" d="M29.446,12.583c-0.372-0.413-1.004-0.443-1.412-0.076l-3.326,2.989
			c-0.411,0.369-0.445,1.002-0.076,1.412c0.198,0.221,0.471,0.332,0.744,0.332c0.238,0,0.478-0.085,0.668-0.256l3.326-2.989
			C29.781,13.626,29.815,12.993,29.446,12.583z"/>
		<path style="fill:#D1D4D1;" d="M31.998,10.862c0.238,0,0.478-0.085,0.668-0.256l3.326-2.989c0.411-0.369,0.445-1.002,0.076-1.412
			c-0.371-0.414-1.004-0.443-1.412-0.076L31.33,9.118c-0.411,0.369-0.445,1.002-0.076,1.412
			C31.452,10.751,31.725,10.862,31.998,10.862z"/>
		<path style="fill:#D1D4D1;" d="M21.409,5.784c-0.374-0.406-1.006-0.431-1.413-0.058l-3.676,3.39
			c-0.406,0.375-0.432,1.007-0.058,1.413c0.197,0.214,0.466,0.322,0.735,0.322c0.242,0,0.485-0.088,0.678-0.265l3.676-3.39
			C21.758,6.822,21.783,6.19,21.409,5.784z"/>
		<path style="fill:#D1D4D1;" d="M26.107,9.961c0.228,0,0.457-0.077,0.645-0.236l1.527-1.291c0.422-0.356,0.475-0.987,0.118-1.409
			s-0.987-0.476-1.409-0.118l-1.527,1.291c-0.422,0.356-0.475,0.987-0.118,1.409C25.541,9.841,25.823,9.961,26.107,9.961z"/>
		<path style="fill:#D1D4D1;" d="M22.406,10.779l-3.818,3.229c-0.422,0.356-0.475,0.987-0.118,1.409
			c0.198,0.234,0.48,0.354,0.765,0.354c0.228,0,0.457-0.077,0.645-0.236l3.818-3.229c0.422-0.356,0.475-0.987,0.118-1.409
			S22.828,10.422,22.406,10.779z"/>
		<path style="fill:#D1D4D1;" d="M34.957,14.819c-0.364-0.414-0.996-0.455-1.411-0.091l-3.757,3.3
			c-0.415,0.364-0.456,0.996-0.091,1.411c0.197,0.225,0.474,0.34,0.751,0.34c0.234,0,0.47-0.082,0.66-0.249l3.757-3.3
			C35.281,15.866,35.322,15.234,34.957,14.819z"/>
		<path style="fill:#D1D4D1;" d="M36.46,13.5c0.197,0.225,0.474,0.34,0.751,0.34c0.234,0,0.47-0.082,0.66-0.249l1.113-0.978
			c0.415-0.364,0.456-0.996,0.091-1.411c-0.364-0.414-0.996-0.455-1.411-0.091l-1.113,0.978C36.136,12.453,36.095,13.085,36.46,13.5
			z"/>
		<path style="fill:#D1D4D1;" d="M40.103,17.32c-0.372-0.414-1.004-0.443-1.412-0.076l-3.326,2.989
			c-0.411,0.369-0.445,1.002-0.076,1.412c0.198,0.221,0.471,0.332,0.744,0.332c0.238,0,0.478-0.085,0.668-0.256l3.326-2.989
			C40.438,18.363,40.472,17.73,40.103,17.32z"/>
	</g>
	<polygon style="fill:#F9C97D;" points="34.998,40.558 40.167,28.93 38.254,28.307 33.234,39.603 	"/>
	<polygon style="fill:#F9C97D;" points="31.415,38.62 36.284,27.666 34.371,27.044 29.651,37.665 	"/>
</g>
<g>
</g>
<g>
</g>
<g>
</g>
<g>
</g>
<g>
</g>
<g>
</g>
<g>
</g>
<g>
</g>
<g>
</g>
<g>
</g>
<g>
</g>
<g>
</g>
<g>
</g>
<g>
</g>
<g>
</g>
</svg>
