<?xml version="1.0" encoding="iso-8859-1"?>
<!-- Generator: Adobe Illustrator 18.0.0, SVG Export Plug-In . SVG Version: 6.00 Build 0)  -->
<!DOCTYPE svg PUBLIC "-//W3C//DTD SVG 1.1//EN" "http://www.w3.org/Graphics/SVG/1.1/DTD/svg11.dtd">
<svg version="1.1" id="Capa_1" xmlns="http://www.w3.org/2000/svg" xmlns:xlink="http://www.w3.org/1999/xlink" x="0px" y="0px"
	 viewBox="0 0 60 60" style="enable-background:new 0 0 60 60;" xml:space="preserve">
<g>
	<rect y="20.5" style="fill:#CB8252;" width="60" height="28"/>
	<circle style="fill:#FFFFFF;" cx="15" cy="34.5" r="11"/>
	<circle style="fill:#FFFFFF;" cx="45" cy="34.5" r="11"/>
	<g>
		<rect x="14" y="23.5" style="fill:#D1D4D1;" width="2" height="3"/>
		<rect x="14" y="42.5" style="fill:#D1D4D1;" width="2" height="3"/>
		<rect x="23" y="33.5" style="fill:#D1D4D1;" width="3" height="2"/>
		<rect x="4" y="33.5" style="fill:#D1D4D1;" width="3" height="2"/>
		
			<rect x="20.718" y="26.282" transform="matrix(0.7071 0.7071 -0.7071 0.7071 26.006 -7.2196)" style="fill:#D1D4D1;" width="2" height="3"/>
		
			<rect x="7.282" y="39.718" transform="matrix(-0.7071 -0.7071 0.7071 -0.7071 -15.0067 76.2196)" style="fill:#D1D4D1;" width="2" height="3"/>
		
			<rect x="20.218" y="40.218" transform="matrix(-0.7071 -0.7071 0.7071 -0.7071 7.9292 85.7199)" style="fill:#D1D4D1;" width="3" height="2"/>
		
			<rect x="6.782" y="26.782" transform="matrix(-0.7071 -0.7071 0.7071 -0.7071 -5.5064 53.2836)" style="fill:#D1D4D1;" width="3" height="2"/>
	</g>
	<g>
		<rect x="44" y="23.5" style="fill:#D1D4D1;" width="2" height="3"/>
		<rect x="44" y="42.5" style="fill:#D1D4D1;" width="2" height="3"/>
		<rect x="53" y="33.5" style="fill:#D1D4D1;" width="3" height="2"/>
		<rect x="34" y="33.5" style="fill:#D1D4D1;" width="3" height="2"/>
		
			<rect x="50.718" y="26.282" transform="matrix(0.7071 0.7071 -0.7071 0.7071 34.7928 -28.4328)" style="fill:#D1D4D1;" width="2" height="3"/>
		
			<rect x="37.282" y="39.718" transform="matrix(-0.7071 -0.7071 0.7071 -0.7071 36.2065 97.4328)" style="fill:#D1D4D1;" width="2" height="3"/>
		
			<rect x="50.218" y="40.218" transform="matrix(-0.7071 -0.7071 0.7071 -0.7071 59.1424 106.9331)" style="fill:#D1D4D1;" width="3" height="2"/>
		
			<rect x="36.782" y="26.782" transform="matrix(-0.7071 -0.7071 0.7071 -0.7071 45.7068 74.4968)" style="fill:#D1D4D1;" width="3" height="2"/>
	</g>
	<path style="fill:#7F5B53;" d="M12.879,32.379L15,30.257l2.121,2.121c1.172,1.172,1.172,3.071,0,4.243l0,0
		c-1.172,1.172-3.071,1.172-4.243,0l0,0C11.707,35.45,11.707,33.55,12.879,32.379z"/>
	<path style="fill:#7F5B53;" d="M48,34.5v3h-3c-1.657,0-3-1.343-3-3v0c0-1.657,1.343-3,3-3h0C46.657,31.5,48,32.843,48,34.5z"/>
	<rect x="13" y="16.5" style="fill:#ECF0F1;" width="4" height="4"/>
	<rect x="43" y="16.5" style="fill:#ECF0F1;" width="4" height="4"/>
	<path style="fill:#556080;" d="M17.5,16.5h-5c-1.375,0-2.5-1.125-2.5-2.5v0c0-1.375,1.125-2.5,2.5-2.5h5c1.375,0,2.5,1.125,2.5,2.5
		v0C20,15.375,18.875,16.5,17.5,16.5z"/>
	<path style="fill:#556080;" d="M47.5,16.5h-5c-1.375,0-2.5-1.125-2.5-2.5v0c0-1.375,1.125-2.5,2.5-2.5h5c1.375,0,2.5,1.125,2.5,2.5
		v0C50,15.375,48.875,16.5,47.5,16.5z"/>
	<rect x="29" y="20.5" style="fill:#805333;" width="2" height="28"/>
</g>
<g>
</g>
<g>
</g>
<g>
</g>
<g>
</g>
<g>
</g>
<g>
</g>
<g>
</g>
<g>
</g>
<g>
</g>
<g>
</g>
<g>
</g>
<g>
</g>
<g>
</g>
<g>
</g>
<g>
</g>
</svg>
