<?xml version="1.0" encoding="iso-8859-1"?>
<!-- Generator: Adobe Illustrator 18.0.0, SVG Export Plug-In . SVG Version: 6.00 Build 0)  -->
<!DOCTYPE svg PUBLIC "-//W3C//DTD SVG 1.1//EN" "http://www.w3.org/Graphics/SVG/1.1/DTD/svg11.dtd">
<svg version="1.1" id="Capa_1" xmlns="http://www.w3.org/2000/svg" xmlns:xlink="http://www.w3.org/1999/xlink" x="0px" y="0px"
	 viewBox="0 0 58 58" style="enable-background:new 0 0 58 58;" xml:space="preserve">
<g>
	<path style="fill:#474C59;" d="M52.386,23.589c-2.343-4.52-7.776-6.495-12.632-4.965c-0.913,0.288-1.958,0.629-3.039,1.039
		c1.199-2.006,2.064-4.148,2.596-5.836c1.531-4.856-0.445-10.289-4.964-12.632C32.872,0.432,31.532,0,29.756,0
		s-3.45,0.499-4.925,1.263c-4.52,2.343-6.495,7.776-4.965,12.632c0.564,1.789,1.322,4.08,2.436,6.173
		c-1.437-0.599-2.86-1.066-4.057-1.443c-4.856-1.531-10.289,0.444-12.632,4.965c-0.764,1.475-1.263,3.149-1.263,4.925
		c0,1.776,0.432,3.115,1.196,4.59c2.343,4.52,7.776,6.495,12.632,4.965c2.026-0.639,4.707-1.753,7.018-3.359L22.57,58h12.86
		l-2.627-23.29c2.311,1.606,4.992,2.721,7.018,3.359c4.856,1.531,10.289-0.445,12.632-4.965c0.764-1.475,1.196-2.815,1.196-4.59
		C53.649,26.739,53.15,25.064,52.386,23.589z"/>
</g>
<g>
</g>
<g>
</g>
<g>
</g>
<g>
</g>
<g>
</g>
<g>
</g>
<g>
</g>
<g>
</g>
<g>
</g>
<g>
</g>
<g>
</g>
<g>
</g>
<g>
</g>
<g>
</g>
<g>
</g>
</svg>
