<?xml version="1.0" encoding="iso-8859-1"?>
<!-- Generator: Adobe Illustrator 18.0.0, SVG Export Plug-In . SVG Version: 6.00 Build 0)  -->
<!DOCTYPE svg PUBLIC "-//W3C//DTD SVG 1.1//EN" "http://www.w3.org/Graphics/SVG/1.1/DTD/svg11.dtd">
<svg version="1.1" id="Capa_1" xmlns="http://www.w3.org/2000/svg" xmlns:xlink="http://www.w3.org/1999/xlink" x="0px" y="0px"
	 viewBox="0 0 48.345 48.345" style="enable-background:new 0 0 48.345 48.345;" xml:space="preserve">
<g>
	<path style="fill:#ECF0F1;" d="M18.6,42.845H2.4c-1.325,0-2.4-1.074-2.4-2.4v-16.2c0-1.325,1.074-2.4,2.4-2.4h16.2
		c1.325,0,2.4,1.074,2.4,2.4v16.2C21,41.77,19.926,42.845,18.6,42.845z"/>
	<circle style="fill:#2C2F38;" cx="5" cy="26.845" r="2"/>
	<circle style="fill:#2C2F38;" cx="16" cy="26.845" r="2"/>
	<circle style="fill:#2C2F38;" cx="5" cy="37.845" r="2"/>
	<circle style="fill:#2C2F38;" cx="16" cy="37.845" r="2"/>
	<path style="fill:#D1D4D1;" d="M46.734,25.466l-15.299,5.327c-1.252,0.436-2.62-0.226-3.056-1.477l-5.327-15.299
		c-0.436-1.252,0.226-2.62,1.477-3.056l15.299-5.327c1.252-0.436,2.62,0.226,3.056,1.477l5.327,15.299
		C48.647,23.662,47.985,25.03,46.734,25.466z"/>
	<circle style="fill:#2C2F38;" cx="28.628" cy="14.828" r="2"/>
	<circle style="fill:#2C2F38;" cx="39.017" cy="11.211" r="2"/>
	<circle style="fill:#2C2F38;" cx="32.246" cy="25.217" r="2"/>
	<circle style="fill:#2C2F38;" cx="10.5" cy="32.678" r="2"/>
	<circle style="fill:#2C2F38;" cx="42.634" cy="21.599" r="2"/>
</g>
<g>
</g>
<g>
</g>
<g>
</g>
<g>
</g>
<g>
</g>
<g>
</g>
<g>
</g>
<g>
</g>
<g>
</g>
<g>
</g>
<g>
</g>
<g>
</g>
<g>
</g>
<g>
</g>
<g>
</g>
</svg>
