<?xml version="1.0" encoding="iso-8859-1"?>
<!-- Generator: Adobe Illustrator 18.0.0, SVG Export Plug-In . SVG Version: 6.00 Build 0)  -->
<!DOCTYPE svg PUBLIC "-//W3C//DTD SVG 1.1//EN" "http://www.w3.org/Graphics/SVG/1.1/DTD/svg11.dtd">
<svg version="1.1" id="Capa_1" xmlns="http://www.w3.org/2000/svg" xmlns:xlink="http://www.w3.org/1999/xlink" x="0px" y="0px"
	 viewBox="0 0 53.954 53.954" style="enable-background:new 0 0 53.954 53.954;" xml:space="preserve">
<g>
	<path style="fill:#D9A72E;" d="M18.6,48.526H2.4c-1.325,0-2.4-1.074-2.4-2.4v-16.2c0-1.325,1.074-2.4,2.4-2.4h16.2
		c1.325,0,2.4,1.074,2.4,2.4v16.2C21,47.451,19.926,48.526,18.6,48.526z"/>
	<path style="fill:#F9C97D;" d="M18.6,27.526H2.4c-1.325,0-2.4-1.074-2.4-2.4v-16.2c0-1.325,1.074-2.4,2.4-2.4h16.2
		c1.325,0,2.4,1.074,2.4,2.4v16.2C21,26.451,19.926,27.526,18.6,27.526z"/>
	<path style="fill:#D9A72E;" d="M25.788,8.738l15.664-4.132c1.282-0.338,2.595,0.427,2.933,1.708l4.132,15.664
		c0.338,1.282-0.427,2.595-1.708,2.933l-15.664,4.132c-1.282,0.338-2.595-0.427-2.933-1.708L24.08,11.671
		C23.742,10.389,24.507,9.076,25.788,8.738z"/>
	<path style="fill:#F9C97D;" d="M31.145,29.043l15.664-4.132c1.282-0.338,2.595,0.427,2.933,1.708l4.132,15.664
		c0.338,1.282-0.427,2.595-1.708,2.933l-15.664,4.132c-1.282,0.338-2.595-0.427-2.933-1.708l-4.132-15.664
		C29.099,30.694,29.863,29.381,31.145,29.043z"/>
	<g>
		<circle style="fill:#7C5A18;" cx="5" cy="32.526" r="2"/>
		<circle style="fill:#7C5A18;" cx="16" cy="32.526" r="2"/>
		<circle style="fill:#7C5A18;" cx="5" cy="43.526" r="2"/>
		<circle style="fill:#7C5A18;" cx="16" cy="43.526" r="2"/>
		<circle style="fill:#7C5A18;" cx="10.5" cy="38.359" r="2"/>
		<circle style="fill:#7C5A18;" cx="5" cy="11.526" r="2"/>
		<circle style="fill:#7C5A18;" cx="16" cy="11.526" r="2"/>
		<circle style="fill:#7C5A18;" cx="5" cy="22.526" r="2"/>
		<circle style="fill:#7C5A18;" cx="16" cy="22.526" r="2"/>
		<circle style="fill:#7C5A18;" cx="32.384" cy="23.545" r="2"/>
		<circle style="fill:#7C5A18;" cx="40.214" cy="10.103" r="2"/>
		<circle style="fill:#7C5A18;" cx="36.214" cy="16.502" r="2"/>
		<circle style="fill:#7C5A18;" cx="48.376" cy="41.045" r="2"/>
		<circle style="fill:#7C5A18;" cx="37.74" cy="43.851" r="2"/>
		<circle style="fill:#7C5A18;" cx="45.571" cy="30.409" r="2"/>
		<circle style="fill:#7C5A18;" cx="34.934" cy="33.215" r="2"/>
	</g>
</g>
<g>
</g>
<g>
</g>
<g>
</g>
<g>
</g>
<g>
</g>
<g>
</g>
<g>
</g>
<g>
</g>
<g>
</g>
<g>
</g>
<g>
</g>
<g>
</g>
<g>
</g>
<g>
</g>
<g>
</g>
</svg>
