<?xml version="1.0" encoding="iso-8859-1"?>
<!-- Generator: Adobe Illustrator 18.0.0, SVG Export Plug-In . SVG Version: 6.00 Build 0)  -->
<!DOCTYPE svg PUBLIC "-//W3C//DTD SVG 1.1//EN" "http://www.w3.org/Graphics/SVG/1.1/DTD/svg11.dtd">
<svg version="1.1" id="Capa_1" xmlns="http://www.w3.org/2000/svg" xmlns:xlink="http://www.w3.org/1999/xlink" x="0px" y="0px"
	 viewBox="0 0 56.701 56.701" style="enable-background:new 0 0 56.701 56.701;" xml:space="preserve">
<g>
	<path style="fill:#D89D7C;" d="M13.122,35.402c-3.951-0.036-5.063-4.212-5.018-5.639c0.002-0.069-0.092-0.086-0.117-0.021
		c-0.662,1.731-3.359,9.609,1.135,12.661"/>
	<path style="fill:#D89D7C;" d="M43.579,34.701c3.951-0.036,5.063-4.212,5.018-5.639c-0.002-0.069,0.092-0.086,0.117-0.021
		c0.662,1.731,3.359,9.609-1.135,12.661"/>
	<path style="fill:#E9BB8B;" d="M37.122,56.701h-17c-6.6,0-12-5.4-12-12v0c0-6.6,5.4-12,12-12h17c6.6,0,12,5.4,12,12v0
		C49.122,51.301,43.722,56.701,37.122,56.701z"/>
	<path style="fill:#CB8252;" d="M25.122,42.701c-0.552,0-1-0.448-1-1v-3h-3c-0.552,0-1-0.448-1-1s0.448-1,1-1h4c0.552,0,1,0.448,1,1
		v4C26.122,42.253,25.674,42.701,25.122,42.701z"/>
	<path style="fill:#CB8252;" d="M32.122,42.701c-0.552,0-1-0.448-1-1v-4c0-0.552,0.448-1,1-1h4c0.552,0,1,0.448,1,1s-0.448,1-1,1h-3
		v3C33.122,42.253,32.674,42.701,32.122,42.701z"/>
	<path style="fill:#6D2C00;" d="M39.567,10.558c-1.68-1.368-3.802-2.383-6.446-2.857c0,0-3.176-4.498-4.893-5.848
		c-2.367-1.86-5.573-2.436-8.316-1.194c-4.243,1.922-3.791,6.042-3.791,6.042s6.188-4.063,9,1c0,0-3.667,0.5-7.446,2.857
		c-3.956,2.467-5.554,7.481-5.554,12.143v13h0.098c2.113-1.864,4.879-3,7.902-3h17c3.023,0,5.789,1.136,7.902,3h0.098v-13
		C45.122,18.039,43.183,13.501,39.567,10.558z"/>
	<path style="fill:#FFFFFF;" d="M28.122,32.701h-8v-6.247c0-1.521,1.233-2.753,2.753-2.753h2.494c1.521,0,2.753,1.233,2.753,2.753
		V32.701z"/>
	<circle style="fill:#2C2F38;" cx="24.122" cy="28.701" r="2"/>
	<path style="fill:#FFFFFF;" d="M36.122,32.701h-8v-6.247c0-1.521,1.233-2.753,2.753-2.753h2.494c1.521,0,2.753,1.233,2.753,2.753
		V32.701z"/>
	<circle style="fill:#2C2F38;" cx="32.122" cy="28.701" r="2"/>
	<path style="fill:#D89D7C;" d="M28.122,24.701c-6.012,0-13-2.621-13-6c0-0.552,0.448-1,1-1s1,0.448,1,1c0,1.505,5.328,4,11,4
		c6.679,0,12-2.873,12-4c0-0.552,0.448-1,1-1s1,0.448,1,1C42.122,22.308,33.695,24.701,28.122,24.701z"/>
	<path style="fill:#CB8252;" d="M20.122,47.701h17c4.73,0,9.103-2.627,11.382-6.765c-0.246-0.738-0.561-1.444-0.939-2.112
		c-0.194,0.098-0.364,0.245-0.463,0.457c-1.805,3.9-5.723,6.42-9.98,6.42h-17c-4.258,0-8.176-2.52-9.98-6.42
		c-0.098-0.212-0.269-0.359-0.463-0.457c-0.378,0.668-0.693,1.374-0.939,2.112C11.019,45.074,15.391,47.701,20.122,47.701z"/>
</g>
<g>
</g>
<g>
</g>
<g>
</g>
<g>
</g>
<g>
</g>
<g>
</g>
<g>
</g>
<g>
</g>
<g>
</g>
<g>
</g>
<g>
</g>
<g>
</g>
<g>
</g>
<g>
</g>
<g>
</g>
</svg>
