<?xml version="1.0" encoding="iso-8859-1"?>
<!-- Generator: Adobe Illustrator 18.0.0, SVG Export Plug-In . SVG Version: 6.00 Build 0)  -->
<!DOCTYPE svg PUBLIC "-//W3C//DTD SVG 1.1//EN" "http://www.w3.org/Graphics/SVG/1.1/DTD/svg11.dtd">
<svg version="1.1" id="Capa_1" xmlns="http://www.w3.org/2000/svg" xmlns:xlink="http://www.w3.org/1999/xlink" x="0px" y="0px"
	 viewBox="0 0 58 58" style="enable-background:new 0 0 58 58;" xml:space="preserve">
<g>
	<path style="fill:#F0C419;" d="M29,36C16.103,36,6,28.094,6,18S16.103,0,29,0s23,7.906,23,18S41.897,36,29,36z"/>
	<path style="fill:#F18D46;" d="M29,29c-8.371,0-15.181-5.13-15.181-10.964S20.629,7.455,29,7.455s15.181,4.746,15.181,10.581
		S37.371,29,29,29z"/>
	<path style="fill:#FFFFFF;" d="M25,20c-0.553,0-1-0.448-1-1v-4c0-0.552,0.447-1,1-1s1,0.448,1,1v4C26,19.552,25.553,20,25,20z"/>
	<path style="fill:#FFFFFF;" d="M33,20c-0.553,0-1-0.448-1-1v-4c0-0.552,0.447-1,1-1s1,0.448,1,1v4C34,19.552,33.553,20,33,20z"/>
	<path style="fill:#4C8056;" d="M17,44L17,44c0-2.761,2.239-5,5-5h0c2.761,0,5,2.239,5,5v5h-5C19.239,49,17,46.761,17,44z"/>
	<path style="fill:#4C8056;" d="M41,49L41,49c0-2.761-2.239-5-5-5h0c-2.761,0-5,2.239-5,5v5h5C38.761,54,41,51.761,41,49z"/>
	<path style="fill:#7ED09E;" d="M29,36c-0.675,0-1.341-0.027-2-0.069V58h4V35.931C30.341,35.973,29.675,36,29,36z"/>
</g>
<g>
</g>
<g>
</g>
<g>
</g>
<g>
</g>
<g>
</g>
<g>
</g>
<g>
</g>
<g>
</g>
<g>
</g>
<g>
</g>
<g>
</g>
<g>
</g>
<g>
</g>
<g>
</g>
<g>
</g>
</svg>
