<?xml version="1.0" encoding="iso-8859-1"?>
<!-- Generator: Adobe Illustrator 18.0.0, SVG Export Plug-In . SVG Version: 6.00 Build 0)  -->
<!DOCTYPE svg PUBLIC "-//W3C//DTD SVG 1.1//EN" "http://www.w3.org/Graphics/SVG/1.1/DTD/svg11.dtd">
<svg version="1.1" id="Capa_1" xmlns="http://www.w3.org/2000/svg" xmlns:xlink="http://www.w3.org/1999/xlink" x="0px" y="0px"
	 viewBox="0 0 56.826 56.826" style="enable-background:new 0 0 56.826 56.826;" xml:space="preserve">
<g>
	<path style="fill:#4482C3;" d="M6.413,22v34.047L11.46,51l5.826,5.826L23.112,51l5.801,5.801L34.714,51l5.826,5.826L46.366,51
		l4.047,4.047V22c0-12.15-9.85-22-22-22h0C16.263,0,6.413,9.85,6.413,22z"/>
	<path style="fill:#35638C;" d="M36.413,37c-0.334,0-0.646-0.167-0.832-0.445l-3.168-4.752l-3.168,4.752
		c-0.371,0.557-1.293,0.557-1.664,0l-3.168-4.752l-3.168,4.752c-0.371,0.557-1.293,0.557-1.664,0l-4-6
		c-0.306-0.459-0.182-1.081,0.277-1.387c0.459-0.307,1.079-0.182,1.387,0.277l3.168,4.752l3.168-4.752
		c0.371-0.557,1.293-0.557,1.664,0l3.168,4.752l3.168-4.752c0.371-0.557,1.293-0.557,1.664,0l3.168,4.752l3.168-4.752
		c0.306-0.459,0.926-0.584,1.387-0.277c0.459,0.306,0.583,0.927,0.277,1.387l-4,6C37.059,36.833,36.747,37,36.413,37z"/>
	<circle style="fill:#FFFFFF;" cx="22.413" cy="19" r="4"/>
	<circle style="fill:#FFFFFF;" cx="35.413" cy="19" r="4"/>
	<circle style="fill:#35638C;" cx="23.413" cy="18" r="1"/>
	<circle style="fill:#35638C;" cx="35.413" cy="20" r="1"/>
</g>
<g>
</g>
<g>
</g>
<g>
</g>
<g>
</g>
<g>
</g>
<g>
</g>
<g>
</g>
<g>
</g>
<g>
</g>
<g>
</g>
<g>
</g>
<g>
</g>
<g>
</g>
<g>
</g>
<g>
</g>
</svg>
