<?xml version="1.0" encoding="iso-8859-1"?>
<!-- Generator: Adobe Illustrator 18.0.0, SVG Export Plug-In . SVG Version: 6.00 Build 0)  -->
<!DOCTYPE svg PUBLIC "-//W3C//DTD SVG 1.1//EN" "http://www.w3.org/Graphics/SVG/1.1/DTD/svg11.dtd">
<svg version="1.1" id="Capa_1" xmlns="http://www.w3.org/2000/svg" xmlns:xlink="http://www.w3.org/1999/xlink" x="0px" y="0px"
	 viewBox="0 0 55.996 55.996" style="enable-background:new 0 0 55.996 55.996;" xml:space="preserve">
<g>
	<path style="fill:#D2B467;" d="M29.205,41h-2c-9.389,0-17-7.611-17-17v0h36v0C46.205,33.389,38.594,41,29.205,41z"/>
	<path style="fill:#464F5D;" d="M48.514,23.779C47.7,24.079,46.998,24,46.998,24h-0.793c0.264,4.298-2.331,8.393-5.628,11.807
		c-6.744,6.983-18,6.983-24.743,0C12.536,32.393,9.941,28.298,10.205,24c-0.144,0-1.207,0-1.207,0s-0.485,0.06-1.116-0.093
		l-0.467,4.207c-0.139,1.254-0.139,2.519,0,3.773l0.379,3.408c0.271,2.441,1.066,4.796,2.33,6.902
		c0.719,1.198,1.581,2.303,2.569,3.29L21.205,54c0,0,1.327,1.529,2.817,1.954c0.091,0.026,0.183-0.048,0.183-0.143v-2.337
		c0-0.814,0.66-1.474,1.474-1.474h2.526h1.526c0.814,0,1.474,0.66,1.474,1.474v2.373c0,0.083,0.069,0.154,0.152,0.149
		C33.137,55.89,35.205,54,35.205,54l8.513-8.513c0.988-0.988,1.85-2.093,2.569-3.29c1.264-2.106,2.059-4.461,2.33-6.902l0.379-3.408
		c0.139-1.254,0.139-2.519,0-3.773L48.514,23.779z"/>
	<path style="fill:#464F5D;" d="M46.573,10.206c-0.154-0.924-0.596-1.761-1.247-2.403c-0.865-0.854-1.689-1.749-2.315-2.792
		l-0.835-1.392c-0.62-1.033-1.637-1.766-2.813-2.027L36.11,0.868C33.514,0.291,30.864,0,28.205,0S22.896,0.291,20.3,0.868
		l-3.253,0.723c-1.176,0.261-2.193,0.994-2.813,2.027L13.399,5.01c-0.626,1.043-1.449,1.938-2.315,2.792
		c-0.65,0.642-1.093,1.479-1.247,2.403L9.205,14h19h19L46.573,10.206z"/>
	<path style="fill:#4E5765;" d="M46.998,14l2.782,3.478c1.152,1.439,1.386,3.5,0.354,5.028C48.958,24.245,46.998,24,46.998,24h-19
		h-19c0,0-1.96,0.245-3.136-1.494c-1.032-1.527-0.798-3.588,0.354-5.028L8.998,14H46.998z"/>
	<path style="fill:#5C697C;" d="M47.591,34.21l-9.156,7.122l-4.098,7.172c-0.274,0.479-0.107,1.09,0.372,1.364
		C34.865,49.958,35.036,50,35.204,50c0.348,0,0.685-0.181,0.869-0.504l3.902-6.828l8.517-6.624c0.039-0.25,0.096-0.497,0.124-0.749
		l0.125-1.126C48.395,33.945,47.936,33.943,47.591,34.21z"/>
	<path style="fill:#5C697C;" d="M17.926,41.279L8.76,35.168c-0.307-0.205-0.678-0.203-0.986-0.053l0.02,0.18
		c0.069,0.619,0.173,1.233,0.308,1.838l8.383,5.589l3.889,5.833C20.565,48.844,20.883,49,21.206,49c0.19,0,0.383-0.054,0.554-0.168
		c0.46-0.306,0.584-0.927,0.277-1.387L17.926,41.279z"/>
	<path style="fill:#5C697C;" d="M35.653,53.552l1.473-1.473l-6.194-11.27c-0.719,0.114-1.442,0.184-2.168,0.208L35.653,53.552z"/>
	<path style="fill:#5C697C;" d="M18.319,51.114l1.46,1.46l6.855-11.606c-0.714-0.065-1.421-0.182-2.124-0.335L18.319,51.114z"/>
	<g>
		<path style="fill:#5C697C;" d="M41.209,8.877c-0.991-1-2.276-1.597-3.822-1.797l1.925-5.501l-1.967-0.437L32.845,14h2.12
			l1.737-4.963c1.285,0.087,2.328,0.489,3.076,1.238c1.45,1.452,1.464,3.712,1.464,3.735l2,0.014
			C43.243,13.898,43.246,10.932,41.209,8.877z"/>
		<path style="fill:#5C697C;" d="M17.275,1.54l1.76,5.574c-1.534,0.203-2.811,0.799-3.797,1.794
			c-2.037,2.055-2.034,5.021-2.033,5.146l2-0.014c0-0.023,0.014-2.283,1.464-3.735c0.73-0.731,1.742-1.131,2.985-1.231L21.209,14
			h2.096L19.234,1.105L17.275,1.54z"/>
	</g>
	<path style="fill:#DFC57D;" d="M16.52,24c2.57,8.555,6.405,14,10.685,14h2c4.28,0,8.115-5.445,10.685-14H16.52z"/>
</g>
<g>
</g>
<g>
</g>
<g>
</g>
<g>
</g>
<g>
</g>
<g>
</g>
<g>
</g>
<g>
</g>
<g>
</g>
<g>
</g>
<g>
</g>
<g>
</g>
<g>
</g>
<g>
</g>
<g>
</g>
</svg>
