<?xml version="1.0" encoding="iso-8859-1"?>
<!-- Generator: Adobe Illustrator 18.0.0, SVG Export Plug-In . SVG Version: 6.00 Build 0)  -->
<!DOCTYPE svg PUBLIC "-//W3C//DTD SVG 1.1//EN" "http://www.w3.org/Graphics/SVG/1.1/DTD/svg11.dtd">
<svg version="1.1" id="Capa_1" xmlns="http://www.w3.org/2000/svg" xmlns:xlink="http://www.w3.org/1999/xlink" x="0px" y="0px"
	 viewBox="0 0 56 56" style="enable-background:new 0 0 56 56;" xml:space="preserve">
<g>
	<path style="fill:#BA8100;" d="M40.5,56h-24c-1.105,0-2-0.895-2-2v0c0-1.105,0.895-2,2-2h24c1.105,0,2,0.895,2,2v0
		C42.5,55.105,41.605,56,40.5,56z"/>
	<path style="fill:#E5B55B;" d="M34.614,30.685c-0.256,0-0.512-0.098-0.707-0.293c-0.391-0.391-0.391-1.023,0-1.414l6.185-6.185
		c0.391-0.391,1.023-0.391,1.414,0c0.056,0.056,0.087,0.126,0.127,0.191c0.158-1.753,0.176-3.497,0.037-5.208
		c-0.046,0.087-0.091,0.174-0.164,0.247l-6.185,6.185c-0.195,0.195-0.451,0.293-0.707,0.293s-0.512-0.098-0.707-0.293
		c-0.391-0.391-0.391-1.023,0-1.414l6.185-6.185c0.391-0.391,1.023-0.391,1.414,0c0.022,0.022,0.03,0.051,0.05,0.075
		c-0.211-1.735-0.589-3.426-1.153-5.044c-0.041,0.068-0.074,0.141-0.133,0.2l-3.711,3.71c-0.195,0.195-0.451,0.293-0.707,0.293
		s-0.512-0.098-0.707-0.293c-0.391-0.391-0.391-1.023,0-1.414l3.711-3.71c0.265-0.265,0.64-0.336,0.977-0.24
		c-1.172-2.713-2.9-5.185-5.298-7.249C32.174,0.905,30.286,0,30.286,0l-3.357,6.714L22.246,0v9.895L13.5,20.143
		c1.119,7.833,6.714,1.679,6.714,1.679c2.868,2.168,8.393-3.357,8.393-3.357c1.679,7.134-6.714,11.75-6.714,11.75
		C15.598,35.67,18.536,47,18.536,47h19.789c-0.489-1.745,0.576-9.609,1.624-15.052l-4.628,4.627
		c-0.195,0.195-0.451,0.293-0.707,0.293s-0.512-0.098-0.707-0.293c-0.391-0.391-0.391-1.023,0-1.414l4.948-4.947
		c0.391-0.391,1.023-0.391,1.414,0c0.011,0.011,0.014,0.025,0.024,0.037c0.134-0.628,0.266-1.211,0.39-1.705
		c0.36-1.431,0.625-2.879,0.809-4.326l-6.171,6.171C35.126,30.587,34.87,30.685,34.614,30.685z"/>
	<path style="fill:#F9C97D;" d="M38.855,30.214l-4.948,4.947c-0.391,0.391-0.391,1.023,0,1.414c0.195,0.195,0.451,0.293,0.707,0.293
		s0.512-0.098,0.707-0.293l4.628-4.627c0.116-0.603,0.231-1.166,0.345-1.698c-0.01-0.011-0.013-0.026-0.024-0.037
		C39.879,29.823,39.246,29.823,38.855,30.214z"/>
	<path style="fill:#F9C97D;" d="M41.506,22.793c-0.391-0.391-1.023-0.391-1.414,0l-6.185,6.185c-0.391,0.391-0.391,1.023,0,1.414
		c0.195,0.195,0.451,0.293,0.707,0.293s0.512-0.098,0.707-0.293l6.171-6.171c0.052-0.412,0.103-0.825,0.14-1.237
		C41.592,22.919,41.562,22.849,41.506,22.793z"/>
	<path style="fill:#F9C97D;" d="M40.092,16.608l-6.185,6.185c-0.391,0.391-0.391,1.023,0,1.414c0.195,0.195,0.451,0.293,0.707,0.293
		s0.512-0.098,0.707-0.293l6.185-6.185c0.073-0.073,0.118-0.16,0.164-0.247c-0.03-0.366-0.07-0.729-0.114-1.092
		c-0.02-0.024-0.028-0.053-0.05-0.075C41.115,16.218,40.482,16.218,40.092,16.608z"/>
	<path style="fill:#F9C97D;" d="M38.855,10.425l-3.711,3.71c-0.391,0.391-0.391,1.023,0,1.414c0.195,0.195,0.451,0.293,0.707,0.293
		s0.512-0.098,0.707-0.293l3.711-3.71c0.059-0.059,0.092-0.131,0.133-0.2c-0.172-0.492-0.363-0.977-0.57-1.455
		C39.496,10.089,39.121,10.159,38.855,10.425z"/>
	<path style="fill:#D9A72E;" d="M36.5,52h-16c-1.657,0-3-1.343-3-3v0c0-1.657,1.343-3,3-3h16c1.657,0,3,1.343,3,3v0
		C39.5,50.657,38.157,52,36.5,52z"/>
</g>
<g>
</g>
<g>
</g>
<g>
</g>
<g>
</g>
<g>
</g>
<g>
</g>
<g>
</g>
<g>
</g>
<g>
</g>
<g>
</g>
<g>
</g>
<g>
</g>
<g>
</g>
<g>
</g>
<g>
</g>
</svg>
