<?xml version="1.0" encoding="iso-8859-1"?>
<!-- Generator: Adobe Illustrator 18.0.0, SVG Export Plug-In . SVG Version: 6.00 Build 0)  -->
<!DOCTYPE svg PUBLIC "-//W3C//DTD SVG 1.1//EN" "http://www.w3.org/Graphics/SVG/1.1/DTD/svg11.dtd">
<svg version="1.1" id="Capa_1" xmlns="http://www.w3.org/2000/svg" xmlns:xlink="http://www.w3.org/1999/xlink" x="0px" y="0px"
	 viewBox="0 0 52 52" style="enable-background:new 0 0 52 52;" xml:space="preserve">
<g>
	<path style="fill:#8C1E18;" d="M21.326,39.188C21.35,39.269,21.234,39.164,21.326,39.188c-0.009-0.031-0.017-0.058-0.025-0.088
		L12.5,35.188c-0.262,1.899-0.936,3.226-1.658,4.145L10.5,40.188c0,0,6.698,5.367,12.261,6.812L21.326,39.188z"/>
	<path style="fill:#8C1E18;" d="M39.5,35.498l-6.844,3.422c-0.052,0.192-0.1,0.376-0.156,0.578L31.255,47
		c5.156-1.78,10.245-6.502,10.245-6.502l-0.342-0.855C40.436,38.724,39.762,37.397,39.5,35.498z"/>
	<path style="fill:#CB2110;" d="M26,0C14.678,0,5.5,9.178,5.5,20.5c0,9.437,6.321,17.115,15,19.5h11.81
		c8.232-2.663,14.19-10.381,14.19-19.5C46.5,9.178,37.322,0,26,0z"/>
	<path style="fill:#AA2922;" d="M5.5,20.5c0-0.208,0.025-0.41,0.031-0.616L5.5,19l-3.456,3.07c-1,1.25-1.544,2.802-1.544,4.403
		v4.179c0,2.186,0.432,4.368,1.406,6.325C3.013,39.2,4.986,41.625,8.5,43c0,0,3.333-1.167,4-6l-0.099-1.189
		C8.176,32.055,5.5,26.597,5.5,20.5z"/>
	<rect x="25.5" style="fill:#AA2922;" width="2" height="15"/>
	<path style="fill:#AA2922;" d="M46.5,20.5c0-0.208-0.025-0.41-0.031-0.616L46.5,19l3.456,3.07c1,1.25,1.544,2.802,1.544,4.403
		v4.179c0,2.186-0.432,4.368-1.406,6.325C48.987,39.2,47.014,41.625,43.5,43c0,0-3.333-1.167-4-6l0.099-1.189
		C43.824,32.055,46.5,26.597,46.5,20.5z"/>
	<path style="fill:#AA2922;" d="M40.279,5.807l-4.486,4.486C35.605,10.48,35.5,10.735,35.5,11v11h2V11.414l4.145-4.145
		C41.214,6.759,40.757,6.272,40.279,5.807z"/>
	<path style="fill:#AA2922;" d="M10.831,6.745l4.669,4.669V20h2v-9c0-0.265-0.105-0.52-0.293-0.707l-4.962-4.962
		C11.751,5.78,11.28,6.251,10.831,6.745z"/>
	<path style="fill:#6AC724;" d="M46.091,16.42L33.5,19l-2-4h-5h-5l-2,4L5.909,16.42C5.642,17.739,5.5,19.103,5.5,20.5
		c0,1.46,0.158,2.881,0.448,4.255L6.5,25.137C20.447,34.792,17.583,28.041,21.326,41c0.024,0.081-0.092-0.024,0,0l1.807,9.842
		C23.245,51.51,23.823,52,24.5,52h5c0.677,0,1.255-0.49,1.367-1.158L32.5,41c3.362-12.087-1.284-5.974,13-15.863l0.552-0.382
		c0.29-1.373,0.448-2.795,0.448-4.255C46.5,19.103,46.358,17.739,46.091,16.42z"/>
	<path style="fill:#F0F028;" d="M19.5,28c-0.256,0-0.512-0.098-0.707-0.293c-0.391-0.391-0.391-1.023,0-1.414l6-6
		c0.391-0.391,1.023-0.391,1.414,0s0.391,1.023,0,1.414l-6,6C20.012,27.902,19.756,28,19.5,28z"/>
	<path style="fill:#F0F028;" d="M24.5,28c-0.256,0-0.512-0.098-0.707-0.293c-0.391-0.391-0.391-1.023,0-1.414l3-3
		c0.391-0.391,1.023-0.391,1.414,0s0.391,1.023,0,1.414l-3,3C25.012,27.902,24.756,28,24.5,28z"/>
	<path style="fill:#3A3534;" d="M51.426,32.107c0.044-0.484,0.074-0.969,0.074-1.456v-0.647c-0.124,0-0.25,0.019-0.371,0.067
		l-5.304,2.122l-5.155,8.248c0.38,0.626,0.799,1.109,1.199,1.48c0.19-0.076,0.362-0.204,0.479-0.391l4.827-7.723L51.426,32.107z"/>
	<path style="fill:#3A3534;" d="M6.175,32.193l-5.303-2.122c-0.122-0.049-0.248-0.068-0.372-0.068v0.648
		c0,0.487,0.03,0.972,0.074,1.456l4.252,1.7l4.827,7.723c0.117,0.187,0.289,0.315,0.479,0.391c0.399-0.371,0.818-0.854,1.199-1.48
		L6.175,32.193z"/>
</g>
<g>
</g>
<g>
</g>
<g>
</g>
<g>
</g>
<g>
</g>
<g>
</g>
<g>
</g>
<g>
</g>
<g>
</g>
<g>
</g>
<g>
</g>
<g>
</g>
<g>
</g>
<g>
</g>
<g>
</g>
</svg>
