<?xml version="1.0" encoding="iso-8859-1"?>
<!-- Generator: Adobe Illustrator 18.0.0, SVG Export Plug-In . SVG Version: 6.00 Build 0)  -->
<!DOCTYPE svg PUBLIC "-//W3C//DTD SVG 1.1//EN" "http://www.w3.org/Graphics/SVG/1.1/DTD/svg11.dtd">
<svg version="1.1" id="Capa_1" xmlns="http://www.w3.org/2000/svg" xmlns:xlink="http://www.w3.org/1999/xlink" x="0px" y="0px"
	 viewBox="0 0 46.383 46.383" style="enable-background:new 0 0 46.383 46.383;" xml:space="preserve">
<g>
	<path style="fill:#805333;" d="M28.144,1.172c5.969,1.999,15.108,7.538,18.02,21.077c0.82,3.813-0.699,7.884-4.114,9.768
		c-0.518,0.286-1.093,0.535-1.73,0.735c-1.709,0.534-3.545,0.448-5.265-0.048c-2.051-0.591-6.081-1.437-12.365-1.437h1
		c-6.283,0-10.313,0.845-12.365,1.437c-1.72,0.496-3.556,0.582-5.265,0.048c-0.637-0.199-1.212-0.449-1.73-0.735
		c-3.415-1.884-4.934-5.955-4.114-9.768C3.054,9.066,11.027,3.451,16.691,1.336C20.38-0.041,24.41-0.079,28.144,1.172z"/>
	<path style="fill:#563722;" d="M21,18.116c-0.256,0-0.512-0.098-0.707-0.293l-7-7c-0.391-0.391-0.391-1.023,0-1.414
		s1.023-0.391,1.414,0l7,7c0.391,0.391,0.391,1.023,0,1.414C21.512,18.018,21.256,18.116,21,18.116z"/>
	<path style="fill:#563722;" d="M25,18.116c-0.256,0-0.512-0.098-0.707-0.293c-0.391-0.391-0.391-1.023,0-1.414l7-7
		c0.391-0.391,1.023-0.391,1.414,0s0.391,1.023,0,1.414l-7,7C25.512,18.018,25.256,18.116,25,18.116z"/>
	<path style="fill:#FFFFFF;" d="M37.78,15.663c0,0-1.211,12.452-8.301,12.452c0,0,0,0,0,0s-9.08-1.989-1.384-9.685
		C28.095,18.431,37.78,9.956,37.78,15.663z"/>
	<path style="fill:#FFFFFF;" d="M8.22,15.663c0,0,1.211,12.452,8.301,12.452c0,0,0,0,0,0s9.08-1.989,1.384-9.685
		C17.905,18.431,8.22,9.956,8.22,15.663z"/>
	<path style="fill:#2C2F38;" d="M21,46.116H7v0c0-3.314,2.686-6,6-6h2C18.314,40.116,21,42.802,21,46.116L21,46.116z"/>
	<path style="fill:#2C2F38;" d="M39,46.116H25v0c0-3.314,2.686-6,6-6h2C36.314,40.116,39,42.802,39,46.116L39,46.116z"/>
	<path style="fill:#AD8366;" d="M31,40.116h1v-8.107c-2.145-0.383-5.068-0.705-8.809-0.733c-3.978,0.03-7.013,0.394-9.191,0.807
		v8.033h1c3.314,0,6,2.686,6,6h4C25,42.802,27.686,40.116,31,40.116z"/>
	<path style="fill:#2C2F38;" d="M17.905,18.431c0,0-0.097-0.085-0.267-0.228c-0.945,0.184-1.774,0.672-2.408,1.346
		C15.695,19.915,16,20.477,16,21.116c0,1.087-0.869,1.968-1.95,1.995c0.249,2.249,2.134,4.005,4.45,4.005
		c0.176,0,0.342-0.032,0.512-0.052C20.986,25.799,22.695,23.221,17.905,18.431z"/>
	<path style="fill:#2C2F38;" d="M30,21.116c0-0.638,0.305-1.2,0.771-1.567c-0.634-0.674-1.463-1.163-2.408-1.346
		c-0.17,0.143-0.267,0.228-0.267,0.228c-4.79,4.79-3.081,7.369-1.108,8.633c0.17,0.02,0.337,0.052,0.512,0.052
		c2.316,0,4.201-1.756,4.45-4.005C30.869,23.084,30,22.203,30,21.116z"/>
</g>
<g>
</g>
<g>
</g>
<g>
</g>
<g>
</g>
<g>
</g>
<g>
</g>
<g>
</g>
<g>
</g>
<g>
</g>
<g>
</g>
<g>
</g>
<g>
</g>
<g>
</g>
<g>
</g>
<g>
</g>
</svg>
