<?xml version="1.0" encoding="iso-8859-1"?>
<!-- Generator: Adobe Illustrator 18.0.0, SVG Export Plug-In . SVG Version: 6.00 Build 0)  -->
<!DOCTYPE svg PUBLIC "-//W3C//DTD SVG 1.1//EN" "http://www.w3.org/Graphics/SVG/1.1/DTD/svg11.dtd">
<svg version="1.1" id="Capa_1" xmlns="http://www.w3.org/2000/svg" xmlns:xlink="http://www.w3.org/1999/xlink" x="0px" y="0px"
	 viewBox="0 0 46 46" style="enable-background:new 0 0 46 46;" xml:space="preserve">
<g>
	<path style="fill:#F2D5A5;" d="M41.183,32.615c-0.653,0-1.183-0.529-1.183-1.183v0c0-1.556-1.261-2.817-2.817-2.817H23H8.817
		C7.261,28.615,6,29.877,6,31.433v0c0,0.653-0.529,1.183-1.183,1.183H2.325C2.115,33.284,2,33.861,2,34.615v0.36
		c0,5.302,4.338,9.64,9.64,9.64h22.705c5.302,0,9.64-4.338,9.64-9.64v-0.36c0-0.755-0.115-1.331-0.325-2H41.183z"/>
	<path style="fill:#ECF0F1;" d="M31.651,28.615c0.853-1.472,1.349-3.176,1.349-5c0-5.523-4.477-10-10-10s-10,4.477-10,10
		c0,1.824,0.496,3.528,1.349,5H23H31.651z"/>
	<path style="fill:#ECF0F1;" d="M45.842,28.376c-0.536-7.369-2.456-12.784-4.978-16.76c-1.77,1.804-2.864,4.273-2.864,7
		C38,23.396,41.357,27.388,45.842,28.376z"/>
	<path style="fill:#ECF0F1;" d="M36.825,6.734c-2.522-2.328-5.501-3.888-8.637-4.706C28.069,2.539,28,3.069,28,3.615
		c0,3.866,3.134,7,7,7c1.559,0,2.994-0.516,4.158-1.378C38.405,8.31,37.625,7.473,36.825,6.734z"/>
	<path style="fill:#ECF0F1;" d="M7.248,8.745c1.249,1.158,2.915,1.871,4.752,1.871c3.866,0,7-3.134,7-7
		c0-0.625-0.09-1.228-0.244-1.805c-3.481,0.734-6.808,2.364-9.581,4.924C8.519,7.341,7.874,8.013,7.248,8.745z"/>
	<path style="fill:#ECF0F1;" d="M8,18.615c0-2.727-1.094-5.196-2.864-7c-2.521,3.976-4.442,9.391-4.978,16.76
		C4.643,27.388,8,23.396,8,18.615z"/>
	<path style="fill:#140100;" d="M17.5,36.615L17.5,36.615c-1.381,0-2.5-1.119-2.5-2.5v-5.5h5v5.5
		C20,35.496,18.881,36.615,17.5,36.615z"/>
	<path style="fill:#140100;" d="M28.5,36.615L28.5,36.615c-1.381,0-2.5-1.119-2.5-2.5v-5.5h5v5.5
		C31,35.496,29.881,36.615,28.5,36.615z"/>
	<g>
		<path style="fill:#BC1C05;" d="M38,18.615c0-2.719,1.089-5.181,2.85-6.984c-0.542-0.855-1.102-1.667-1.692-2.394
			c-1.163,0.862-2.599,1.378-4.158,1.378c-3.866,0-7-3.134-7-7c0-0.54,0.068-1.062,0.184-1.567C25.1,1.244,21.871,1.171,18.76,1.828
			C18.911,2.399,19,2.996,19,3.615c0,3.866-3.134,7-7,7c-1.837,0-3.503-0.713-4.752-1.871c-0.737,0.861-1.443,1.82-2.11,2.873
			C6.906,13.422,8,15.89,8,18.615c0,4.778-3.354,8.768-7.834,9.758C0.062,29.721,0,31.126,0,32.615h4.817
			C5.471,32.615,6,32.086,6,31.433c0-1.556,1.261-2.817,2.817-2.817h5.531c-0.853-1.472-1.349-3.176-1.349-5c0-5.523,4.477-10,10-10
			s10,4.477,10,10c0,1.824-0.496,3.528-1.349,5h5.531c1.556,0,2.817,1.261,2.817,2.817c0,0.653,0.529,1.183,1.183,1.183H46
			c0-1.488-0.061-2.894-0.164-4.241C41.355,27.384,38,23.395,38,18.615z"/>
	</g>
</g>
<g>
</g>
<g>
</g>
<g>
</g>
<g>
</g>
<g>
</g>
<g>
</g>
<g>
</g>
<g>
</g>
<g>
</g>
<g>
</g>
<g>
</g>
<g>
</g>
<g>
</g>
<g>
</g>
<g>
</g>
</svg>
