<?xml version="1.0" encoding="iso-8859-1"?>
<!-- Generator: Adobe Illustrator 18.0.0, SVG Export Plug-In . SVG Version: 6.00 Build 0)  -->
<!DOCTYPE svg PUBLIC "-//W3C//DTD SVG 1.1//EN" "http://www.w3.org/Graphics/SVG/1.1/DTD/svg11.dtd">
<svg version="1.1" id="Capa_1" xmlns="http://www.w3.org/2000/svg" xmlns:xlink="http://www.w3.org/1999/xlink" x="0px" y="0px"
	 viewBox="0 0 56 56" style="enable-background:new 0 0 56 56;" xml:space="preserve">
<g>
	<path style="fill:#ECF0F1;" d="M54.5,56h-43c-2.761,0-5-2.239-5-5v0c0-2.761,2.239-5,5-5h43V56z"/>
	<g>
		<path style="fill:#D1D4D1;" d="M49.5,53c0,0.552,0.448,1,1,1h4v-2h-4C49.948,52,49.5,52.448,49.5,53z"/>
		<path style="fill:#D1D4D1;" d="M50.5,48c-0.552,0-1,0.448-1,1s0.448,1,1,1h4v-2H50.5z"/>
	</g>
	<path style="fill:#98614A;" d="M51.598,0H9.402C7.799,0,6.5,1.299,6.5,2.902V13v26v9v3c0-2.761,2.239-5,5-5h43V2.902
		C54.5,1.299,53.201,0,51.598,0z"/>
	<path style="fill:#F0C419;" d="M29.5,24l7.071-7.071c-3.905-3.905-10.237-3.905-14.142,0s-3.905,10.237,0,14.142
		c3.905,3.905,10.237,3.905,14.142,0L29.5,24z"/>
	<circle style="fill:#FFFFFF;" cx="28.5" cy="19" r="2"/>
	<g>
		<path style="fill:#FBD490;" d="M38.5,23h-3c-0.552,0-1,0.448-1,1s0.448,1,1,1h3c0.552,0,1-0.448,1-1S39.052,23,38.5,23z"/>
		<path style="fill:#FBD490;" d="M44.5,23h-2c-0.552,0-1,0.448-1,1s0.448,1,1,1h2c0.552,0,1-0.448,1-1S45.052,23,44.5,23z"/>
	</g>
	<circle style="fill:#38454F;" cx="10.5" cy="34" r="2"/>
	<circle style="fill:#38454F;" cx="10.5" cy="28" r="2"/>
	<circle style="fill:#38454F;" cx="10.5" cy="22" r="2"/>
	<circle style="fill:#38454F;" cx="10.5" cy="16" r="2"/>
	<path style="fill:#BDC3C7;" d="M1.5,16c0,1.13,0.391,2.162,1.025,3c0.405-0.534,0.912-0.979,1.495-1.315
		C3.692,17.204,3.5,16.624,3.5,16c0-1.654,1.346-3,3-3s3,1.346,3,3c0,0.553,0.447,1,1,1s1-0.447,1-1c0-2.757-2.243-5-5-5
		S1.5,13.243,1.5,16z"/>
	<path style="fill:#95A5A5;" d="M4.02,20.315C4.754,20.739,5.593,21,6.5,21v-2C5.47,19,4.561,19.522,4.02,20.315z"/>
	<path style="fill:#95A5A5;" d="M4.02,26.315C4.754,26.739,5.593,27,6.5,27v-2C5.47,25,4.561,25.522,4.02,26.315z"/>
	<path style="fill:#BDC3C7;" d="M4.02,17.685C3.437,18.021,2.93,18.466,2.525,19C1.891,19.838,1.5,20.87,1.5,22s0.391,2.162,1.025,3
		c0.405-0.534,0.912-0.979,1.495-1.315C3.692,23.204,3.5,22.624,3.5,22s0.192-1.204,0.52-1.685C4.561,19.522,5.47,19,6.5,19
		c1.654,0,3,1.346,3,3c0,0.553,0.447,1,1,1s1-0.447,1-1c0-2.757-2.243-5-5-5C5.593,17,4.754,17.261,4.02,17.685z"/>
	<path style="fill:#95A5A5;" d="M4.02,32.315C4.754,32.739,5.593,33,6.5,33v-2C5.47,31,4.561,31.522,4.02,32.315z"/>
	<path style="fill:#BDC3C7;" d="M4.02,23.685C3.437,24.021,2.93,24.466,2.525,25C1.891,25.838,1.5,26.87,1.5,28s0.391,2.162,1.025,3
		c0.405-0.534,0.912-0.979,1.495-1.315C3.692,29.204,3.5,28.624,3.5,28s0.192-1.204,0.52-1.685C4.561,25.522,5.47,25,6.5,25
		c1.654,0,3,1.346,3,3c0,0.553,0.447,1,1,1s1-0.447,1-1c0-2.757-2.243-5-5-5C5.593,23,4.754,23.261,4.02,23.685z"/>
	<path style="fill:#BDC3C7;" d="M4.02,29.685C3.437,30.021,2.93,30.466,2.525,31C1.891,31.838,1.5,32.87,1.5,34c0,2.757,2.243,5,5,5
		v-2c-1.654,0-3-1.346-3-3c0-0.624,0.192-1.204,0.52-1.685C4.561,31.522,5.47,31,6.5,31c1.654,0,3,1.346,3,3c0,0.553,0.447,1,1,1
		s1-0.447,1-1c0-2.757-2.243-5-5-5C5.593,29,4.754,29.261,4.02,29.685z"/>
</g>
<g>
</g>
<g>
</g>
<g>
</g>
<g>
</g>
<g>
</g>
<g>
</g>
<g>
</g>
<g>
</g>
<g>
</g>
<g>
</g>
<g>
</g>
<g>
</g>
<g>
</g>
<g>
</g>
<g>
</g>
</svg>
