<?xml version="1.0" encoding="iso-8859-1"?>
<!-- Generator: Adobe Illustrator 18.0.0, SVG Export Plug-In . SVG Version: 6.00 Build 0)  -->
<!DOCTYPE svg PUBLIC "-//W3C//DTD SVG 1.1//EN" "http://www.w3.org/Graphics/SVG/1.1/DTD/svg11.dtd">
<svg version="1.1" id="Capa_1" xmlns="http://www.w3.org/2000/svg" xmlns:xlink="http://www.w3.org/1999/xlink" x="0px" y="0px"
	 viewBox="0 0 49.095 49.095" style="enable-background:new 0 0 49.095 49.095;" xml:space="preserve">
<g>
	<path style="fill:#A5A5A4;" d="M49.064,31.4l-0.723-16.622c-0.041-0.942-0.434-1.835-1.101-2.502L42.044,7.08L36.79,1.826
		c-0.667-0.667-1.56-1.06-2.502-1.101L17.666,0.002c0,0-3.572-0.229-3.932,3.932c0,0-0.754,3.703,3.932,3.932h11.021
		c1,0,1.959,0.397,2.666,1.104l4.401,4.401l4.342,4.342c0.707,0.707,1.104,1.666,1.104,2.666V31.4
		c0.229,4.686,3.932,3.932,3.932,3.932C49.293,34.971,49.064,31.4,49.064,31.4z"/>
	<g>
		<path style="fill:#715C3A;" d="M42.044,7.08l2.359,2.359l1.236-1.236c0.626-0.626,0.977-1.474,0.977-2.359v0
			c0-1.843-1.494-3.336-3.336-3.336h0c-0.885,0-1.733,0.352-2.359,0.977l-1.236,1.236L42.044,7.08z"/>
		<path style="fill:#715C3A;" d="M35.753,13.371l-2.359-2.359L1.006,43.4c-1.303,1.303-1.303,3.415,0,4.718l0,0
			c1.303,1.303,3.415,1.303,4.718,0L38.113,15.73L35.753,13.371z"/>
	</g>
</g>
<g>
</g>
<g>
</g>
<g>
</g>
<g>
</g>
<g>
</g>
<g>
</g>
<g>
</g>
<g>
</g>
<g>
</g>
<g>
</g>
<g>
</g>
<g>
</g>
<g>
</g>
<g>
</g>
<g>
</g>
</svg>
