<?xml version="1.0" encoding="iso-8859-1"?>
<!-- Generator: Adobe Illustrator 18.0.0, SVG Export Plug-In . SVG Version: 6.00 Build 0)  -->
<!DOCTYPE svg PUBLIC "-//W3C//DTD SVG 1.1//EN" "http://www.w3.org/Graphics/SVG/1.1/DTD/svg11.dtd">
<svg version="1.1" id="Capa_1" xmlns="http://www.w3.org/2000/svg" xmlns:xlink="http://www.w3.org/1999/xlink" x="0px" y="0px"
	 viewBox="0 0 56.782 56.782" style="enable-background:new 0 0 56.782 56.782;" xml:space="preserve">
<g>
	<path style="fill:#F29C1F;" d="M56.482,27.219L56.482,27.219c-1.054-2.992-4.508-4.363-7.328-2.91l-18.91,9.747
		c-1.019,0.525-1.494,1.722-1.113,2.803v0c0.381,1.081,1.501,1.715,2.624,1.485l20.843-4.264
		C55.706,33.445,57.536,30.211,56.482,27.219z"/>
	<path style="fill:#F29C1F;" d="M1.532,21.213L1.532,21.213c2.243-2.243,5.95-1.989,7.866,0.54L22.244,38.71
		c0.692,0.914,0.604,2.198-0.206,3.008l0,0c-0.81,0.81-2.095,0.899-3.008,0.206L2.072,29.078
		C-0.457,27.163-0.711,23.456,1.532,21.213z"/>
	<circle style="fill:#D1D4D1;" cx="32.5" cy="20.891" r="6.5"/>
	<circle style="fill:#FFFFFF;" cx="5.5" cy="24.891" r="2.5"/>
	<circle style="fill:#FFFFFF;" cx="51.576" cy="28.948" r="2.5"/>
	<path style="fill:#FFFFFF;" d="M30,22.391c-0.552,0-1-0.447-1-1c0-2.206,1.794-4,4-4c0.552,0,1,0.447,1,1s-0.448,1-1,1
		c-1.103,0-2,0.897-2,2C31,21.944,30.552,22.391,30,22.391z"/>
</g>
<g>
</g>
<g>
</g>
<g>
</g>
<g>
</g>
<g>
</g>
<g>
</g>
<g>
</g>
<g>
</g>
<g>
</g>
<g>
</g>
<g>
</g>
<g>
</g>
<g>
</g>
<g>
</g>
<g>
</g>
</svg>
