<?xml version="1.0" encoding="iso-8859-1"?>
<!-- Generator: Adobe Illustrator 18.0.0, SVG Export Plug-In . SVG Version: 6.00 Build 0)  -->
<!DOCTYPE svg PUBLIC "-//W3C//DTD SVG 1.1//EN" "http://www.w3.org/Graphics/SVG/1.1/DTD/svg11.dtd">
<svg version="1.1" id="Capa_1" xmlns="http://www.w3.org/2000/svg" xmlns:xlink="http://www.w3.org/1999/xlink" x="0px" y="0px"
	 viewBox="0 0 60 60" style="enable-background:new 0 0 60 60;" xml:space="preserve">
<g>
	<path style="fill:#A5A5A4;" d="M6.841,38H3.159C1.967,38,1,37.033,1,35.841V15.159C1,13.967,1.967,13,3.159,13h3.681
		C8.033,13,9,13.967,9,15.159v20.681C9,37.033,8.033,38,6.841,38z"/>
	<path style="fill:#A5A5A4;" d="M56.841,52h-3.681C51.967,52,51,51.033,51,49.841V29.159C51,27.967,51.967,27,53.159,27h3.681
		C58.033,27,59,27.967,59,29.159v20.681C59,51.033,58.033,52,56.841,52z"/>
	<circle style="fill:#D1D4D1;" cx="39" cy="31" r="5"/>
	<g>
		<path style="fill:#2C2F38;" d="M28,0c-0.552,0-1,0.447-1,1v58c0,0.553,0.448,1,1,1s1-0.447,1-1V1C29,0.447,28.552,0,28,0z"/>
		<path style="fill:#2C2F38;" d="M41,9h-2V1.336c0-0.479-0.305-0.902-0.758-1.055c-0.453-0.15-0.953,0.003-1.243,0.388L34.2,4.4
			c-0.332,0.441-0.242,1.068,0.2,1.399c0.444,0.332,1.07,0.243,1.4-0.2L37,4v5h-2c-0.552,0-1,0.447-1,1s0.448,1,1,1h6
			c0.552,0,1-0.447,1-1S41.552,9,41,9z"/>
		<path style="fill:#2C2F38;" d="M21,9h-3.008c1.213-1.227,2.146-2.647,2.703-3.603c0.625-1.073,0.646-2.369,0.057-3.469
			c-0.574-1.069-1.63-1.749-2.83-1.818C15.853,0.003,14,1.813,14,4c0,0.553,0.448,1,1,1s1-0.447,1-1
			c0-0.992,0.814-1.896,1.708-1.896l0.101,0.003c0.505,0.029,0.935,0.31,1.181,0.768c0.258,0.482,0.25,1.049-0.022,1.516
			c-0.787,1.35-2.405,3.755-4.399,4.708c-0.046,0.022-0.076,0.06-0.116,0.087c-0.062,0.042-0.126,0.079-0.177,0.133
			c-0.045,0.048-0.073,0.104-0.107,0.159c-0.034,0.054-0.073,0.103-0.096,0.164c-0.027,0.07-0.033,0.144-0.044,0.219
			C14.021,9.907,14,9.95,14,10c0,0.008,0.004,0.014,0.004,0.021c0.001,0.067,0.025,0.132,0.04,0.199
			c0.015,0.064,0.021,0.13,0.048,0.189c0.003,0.007,0.002,0.015,0.006,0.022c0.048,0.099,0.112,0.184,0.184,0.259
			c0.018,0.018,0.039,0.031,0.057,0.048c0.069,0.061,0.144,0.112,0.225,0.152c0.03,0.015,0.059,0.028,0.091,0.04
			C14.766,10.971,14.88,11,14.999,11L15,11h6c0.552,0,1-0.447,1-1S21.552,9,21,9z"/>
	</g>
</g>
<g>
</g>
<g>
</g>
<g>
</g>
<g>
</g>
<g>
</g>
<g>
</g>
<g>
</g>
<g>
</g>
<g>
</g>
<g>
</g>
<g>
</g>
<g>
</g>
<g>
</g>
<g>
</g>
<g>
</g>
</svg>
