<?xml version="1.0" encoding="iso-8859-1"?>
<!-- Generator: Adobe Illustrator 18.0.0, SVG Export Plug-In . SVG Version: 6.00 Build 0)  -->
<!DOCTYPE svg PUBLIC "-//W3C//DTD SVG 1.1//EN" "http://www.w3.org/Graphics/SVG/1.1/DTD/svg11.dtd">
<svg version="1.1" id="Capa_1" xmlns="http://www.w3.org/2000/svg" xmlns:xlink="http://www.w3.org/1999/xlink" x="0px" y="0px"
	 viewBox="0 0 58 58" style="enable-background:new 0 0 58 58;" xml:space="preserve">
<g>
	<path style="fill:#F0C419;" d="M56.094,22H37.906C36.853,22,36,21.147,36,20.094V1.906C36,0.853,36.853,0,37.906,0h18.188
		C57.147,0,58,0.853,58,1.906v18.188C58,21.147,57.147,22,56.094,22z"/>
	<g>
		<path style="fill:#FBD490;" d="M49.342,3h-3.958C43.455,3,42,4.376,42,6.2V8h2V6.2C44,5.375,44.718,5,45.384,5h3.958
			C50.126,5,51,5.493,51,6.2v2.383C51,8.708,50.805,9,49,9c-1.738,0-3,1.521-3,3.617V15h2v-2.383C48,11.967,48.267,11,49,11
			c0.989,0,4,0,4-2.417V6.2C53,4.224,51.102,3,49.342,3z"/>
		<rect x="46" y="17" style="fill:#FBD490;" width="2" height="2"/>
	</g>
	<rect x="4" y="37" style="fill:#51B957;" width="29" height="21"/>
	<path style="fill:#43AA4A;" d="M35.246,37H1.754C0.785,37,0,36.215,0,35.246v-8.493C0,25.785,0.785,25,1.754,25h33.493
		C36.215,25,37,25.785,37,26.754v8.493C37,36.215,36.215,37,35.246,37z"/>
</g>
<g>
</g>
<g>
</g>
<g>
</g>
<g>
</g>
<g>
</g>
<g>
</g>
<g>
</g>
<g>
</g>
<g>
</g>
<g>
</g>
<g>
</g>
<g>
</g>
<g>
</g>
<g>
</g>
<g>
</g>
</svg>
