<?xml version="1.0" encoding="iso-8859-1"?>
<!-- Generator: Adobe Illustrator 18.0.0, SVG Export Plug-In . SVG Version: 6.00 Build 0)  -->
<!DOCTYPE svg PUBLIC "-//W3C//DTD SVG 1.1//EN" "http://www.w3.org/Graphics/SVG/1.1/DTD/svg11.dtd">
<svg version="1.1" id="Capa_1" xmlns="http://www.w3.org/2000/svg" xmlns:xlink="http://www.w3.org/1999/xlink" x="0px" y="0px"
	 viewBox="0 0 57 57" style="enable-background:new 0 0 57 57;" xml:space="preserve">
<g>
	<circle style="fill:#F9C97D;" cx="28.5" cy="4" r="4"/>
	<polygon style="fill:#E5B55B;" points="37.501,46 19.5,46 21.5,24 35.501,24 	"/>
	<path style="fill:#BE8400;" d="M38.5,24h-20c-1.381,0-2.5-1.119-2.5-2.5v0c0-1.381,1.119-2.5,2.5-2.5h20c1.381,0,2.5,1.119,2.5,2.5
		v0C41,22.881,39.881,24,38.5,24z"/>
	<rect x="13.5" y="52" style="fill:#BA8100;" width="30" height="5"/>
	<path style="fill:#D9A72E;" d="M41.5,52h-26v-2.843c0-1.743,1.413-3.157,3.157-3.157h19.686c1.743,0,3.157,1.413,3.157,3.157V52z"
		/>
	<polygon style="fill:#E5B55B;" points="34.505,12.99 31.5,10 31.5,10 28.5,15 25.5,10 25.5,10 22.495,12.99 18.5,11.995 21.5,19 
		35.5,19 38.5,11.995 	"/>
	<polygon style="fill:#BE8400;" points="19.955,41 37.046,41 36.591,36 20.409,36 	"/>
</g>
<g>
</g>
<g>
</g>
<g>
</g>
<g>
</g>
<g>
</g>
<g>
</g>
<g>
</g>
<g>
</g>
<g>
</g>
<g>
</g>
<g>
</g>
<g>
</g>
<g>
</g>
<g>
</g>
<g>
</g>
</svg>
