<?xml version="1.0" encoding="iso-8859-1"?>
<!-- Generator: Adobe Illustrator 18.0.0, SVG Export Plug-In . SVG Version: 6.00 Build 0)  -->
<!DOCTYPE svg PUBLIC "-//W3C//DTD SVG 1.1//EN" "http://www.w3.org/Graphics/SVG/1.1/DTD/svg11.dtd">
<svg version="1.1" id="Capa_1" xmlns="http://www.w3.org/2000/svg" xmlns:xlink="http://www.w3.org/1999/xlink" x="0px" y="0px"
	 viewBox="0 0 53 53" style="enable-background:new 0 0 53 53;" xml:space="preserve">
<g>
	<polygon style="fill:#E5B55B;" points="35.501,42 17.5,42 19.5,20 33.501,20 	"/>
	<path style="fill:#BE8400;" d="M36.5,20h-20c-1.381,0-2.5-1.119-2.5-2.5v0c0-1.381,1.119-2.5,2.5-2.5h20c1.381,0,2.5,1.119,2.5,2.5
		v0C39,18.881,37.881,20,36.5,20z"/>
	<rect x="11.5" y="48" style="fill:#BA8100;" width="30" height="5"/>
	<path style="fill:#D9A72E;" d="M39.5,48h-26v-2.843c0-1.743,1.413-3.157,3.157-3.157h19.686c1.743,0,3.157,1.413,3.157,3.157V48z"
		/>
	<polygon style="fill:#E5B55B;" points="35.5,0 34.5,5 29.5,5 29.5,0 23.5,0 23.5,5 19.5,5 17.5,0 13.5,0 16.5,15 16.5,15 36.5,15 
		36.5,15 39.5,0 	"/>
	<polygon style="fill:#BE8400;" points="17.955,37 35.046,37 34.591,32 18.409,32 	"/>
	<polygon style="fill:#F9C97D;" points="15.9,12 37.1,12 37.9,8 15.1,8 	"/>
</g>
<g>
</g>
<g>
</g>
<g>
</g>
<g>
</g>
<g>
</g>
<g>
</g>
<g>
</g>
<g>
</g>
<g>
</g>
<g>
</g>
<g>
</g>
<g>
</g>
<g>
</g>
<g>
</g>
<g>
</g>
</svg>
