<?xml version="1.0" encoding="iso-8859-1"?>
<!-- Generator: Adobe Illustrator 18.0.0, SVG Export Plug-In . SVG Version: 6.00 Build 0)  -->
<!DOCTYPE svg PUBLIC "-//W3C//DTD SVG 1.1//EN" "http://www.w3.org/Graphics/SVG/1.1/DTD/svg11.dtd">
<svg version="1.1" id="Capa_1" xmlns="http://www.w3.org/2000/svg" xmlns:xlink="http://www.w3.org/1999/xlink" x="0px" y="0px"
	 viewBox="0 0 55 55" style="enable-background:new 0 0 55 55;" xml:space="preserve">
<g>
	<path style="fill:#7D7D7D;" d="M26.364,45.255L9.393,28.284l0.537-6.979c0.038-0.488,0.718-0.571,0.872-0.107l1.419,4.258
		l16.971,16.971l3.566,0.891c0.472,0.118,0.445,0.797-0.035,0.877L26.364,45.255z"/>
	<path style="fill:#7D7D7D;" d="M7.726,55H1.274C0.57,55,0,54.43,0,53.726v-6.452C0,46.57,0.57,46,1.274,46h6.452
		C8.43,46,9,46.57,9,47.274v6.452C9,54.43,8.43,55,7.726,55z"/>
	<path style="fill:#A5A5A4;" d="M7.726,46C8.43,46,9,46.57,9,47.274v2.617l11-11l-4.243-4.243L4.406,46H7.726z"/>
	<path style="fill:#A5A5A4;" d="M24,32c-0.256,0-0.512-0.098-0.707-0.293c-0.391-0.391-0.391-1.023,0-1.414L53.585,0h-6.008
		L17.172,30.406l7.071,7.071L55,7.071V1.414L24.707,31.707C24.512,31.902,24.256,32,24,32z"/>
</g>
<g>
</g>
<g>
</g>
<g>
</g>
<g>
</g>
<g>
</g>
<g>
</g>
<g>
</g>
<g>
</g>
<g>
</g>
<g>
</g>
<g>
</g>
<g>
</g>
<g>
</g>
<g>
</g>
<g>
</g>
</svg>
