<?xml version="1.0" encoding="iso-8859-1"?>
<!-- Generator: Adobe Illustrator 18.0.0, SVG Export Plug-In . SVG Version: 6.00 Build 0)  -->
<!DOCTYPE svg PUBLIC "-//W3C//DTD SVG 1.1//EN" "http://www.w3.org/Graphics/SVG/1.1/DTD/svg11.dtd">
<svg version="1.1" id="Capa_1" xmlns="http://www.w3.org/2000/svg" xmlns:xlink="http://www.w3.org/1999/xlink" x="0px" y="0px"
	 viewBox="0 0 60 60" style="enable-background:new 0 0 60 60;" xml:space="preserve">
<g>
	<circle style="fill:#3D324C;" cx="30" cy="30" r="30"/>
	<path style="fill:#E64C3C;" d="M45,31c-0.59-2.952,0.868-5.934,3.561-7.28l5.32-2.899l-0.143-0.214
		c-1.23-1.845-2.925-3.169-4.897-4.341c-0.886-0.527-1.697-0.931-2.333-1.668C43.66,11.302,45,6,45,6l-7,3l-8-7l-8,7l-7-3
		c0,0,1.34,5.302-1.507,8.598c-0.637,0.737-1.447,1.141-2.333,1.668c-1.972,1.172-3.667,2.495-4.897,4.341L6.12,20.82l5.32,2.899
		C14.132,25.066,15.59,28.048,15,31c0,0-8.813-2.438-10-4l7,10c0,0,7.875-4.813,10,8c0,0,1,3.938-4,3l7,11
		c0,0,0.485-0.889,1.069-2.364c2.558-6.456,1.915-13.702-1.405-19.801C22.363,32.608,19.34,24.746,23,17c0,0,1.313-3,7-3s7,3,7,3
		c3.66,7.746,0.637,15.608-1.665,19.836c-3.32,6.099-3.963,13.345-1.405,19.801C34.515,58.111,35,59,35,59l7-11c-5,0.938-4-3-4-3
		c2.125-12.813,10-8,10-8l7-10C53.813,28.563,45,31,45,31z"/>
	<polygon style="fill:#E64C3C;" points="35,25 30,18 25,25 30,32 	"/>
</g>
<g>
</g>
<g>
</g>
<g>
</g>
<g>
</g>
<g>
</g>
<g>
</g>
<g>
</g>
<g>
</g>
<g>
</g>
<g>
</g>
<g>
</g>
<g>
</g>
<g>
</g>
<g>
</g>
<g>
</g>
</svg>
