<?xml version="1.0" encoding="iso-8859-1"?>
<!-- Generator: Adobe Illustrator 18.0.0, SVG Export Plug-In . SVG Version: 6.00 Build 0)  -->
<!DOCTYPE svg PUBLIC "-//W3C//DTD SVG 1.1//EN" "http://www.w3.org/Graphics/SVG/1.1/DTD/svg11.dtd">
<svg version="1.1" id="Capa_1" xmlns="http://www.w3.org/2000/svg" xmlns:xlink="http://www.w3.org/1999/xlink" x="0px" y="0px"
	 viewBox="0 0 60 60" style="enable-background:new 0 0 60 60;" xml:space="preserve">
<g>
	<circle style="fill:#556080;" cx="30" cy="30" r="30"/>
	<path style="fill:#F0C419;" d="M30,45.129c-0.486,0-0.879-0.394-0.879-0.879v-3.517c0-0.486,0.393-0.879,0.879-0.879
		s0.879,0.394,0.879,0.879v3.517C30.879,44.736,30.486,45.129,30,45.129z"/>
	<polygon style="fill:#F0C419;" points="29.121,26.664 24.724,18.75 20.328,26.664 	"/>
	<polygon style="fill:#F0C419;" points="39.672,26.664 35.276,18.75 30.879,26.664 	"/>
	<polygon style="fill:#F0C419;" points="34.397,17.871 30,9.957 25.603,17.871 	"/>
	<polygon style="fill:#F0C419;" points="30,31.06 26.483,38.974 30,41.612 33.517,38.974 	"/>
	<path style="fill:#F0C419;" d="M19.422,15.233c0,0-9.445,11.218-0.158,18.659c0.794,0.636,1.968,0.695,2.718,0.009
		c0.485-0.443,0.75-1.129,0.192-2.171c-0.331-0.618-0.863-1.102-1.473-1.447C19.135,29.393,15.545,26.035,19.422,15.233z"/>
	<path style="fill:#F0C419;" d="M15.817,21.919L4.5,16.991l2.638,6.155l8.194,0.804C15.444,23.252,15.613,22.573,15.817,21.919z"/>
	<path style="fill:#F0C419;" d="M15.184,25.891L4.5,27.543l1.759,4.397l9.287-3.389C15.295,27.663,15.188,26.771,15.184,25.891z"/>
	<path style="fill:#F0C419;" d="M16.346,30.49l-7.45,4.967l2.638,2.638l5.947-5.947C17.029,31.606,16.653,31.052,16.346,30.49z"/>
	<path style="fill:#F0C419;" d="M19.264,33.891c-0.087-0.07-0.162-0.142-0.246-0.213l-3.088,6.175h3.517l2.131-5.682
		C20.853,34.544,19.928,34.423,19.264,33.891z"/>
	<path style="fill:#F0C419;" d="M40.578,15.233c0,0,9.445,11.218,0.158,18.659c-0.794,0.636-1.968,0.695-2.718,0.009
		c-0.485-0.443-0.75-1.129-0.192-2.171c0.331-0.618,0.863-1.102,1.473-1.447C40.865,29.393,44.455,26.035,40.578,15.233z"/>
	<path style="fill:#F0C419;" d="M44.183,21.919L55.5,16.991l-2.638,6.155l-8.194,0.804C44.556,23.252,44.387,22.573,44.183,21.919z"
		/>
	<path style="fill:#F0C419;" d="M44.816,25.891L55.5,27.543l-1.759,4.397l-9.287-3.389C44.705,27.663,44.812,26.771,44.816,25.891z"
		/>
	<path style="fill:#F0C419;" d="M43.654,30.49l7.45,4.967l-2.638,2.638l-5.947-5.947C42.971,31.606,43.347,31.052,43.654,30.49z"/>
	<path style="fill:#F0C419;" d="M40.736,33.891c0.087-0.07,0.162-0.142,0.246-0.213l3.088,6.175h-3.517l-2.131-5.682
		C39.147,34.544,40.072,34.423,40.736,33.891z"/>
	<path style="fill:#F0C419;" d="M18.57,51.284c-0.252,0-0.501-0.107-0.675-0.314c-0.293-0.35-1.72-2.172-0.988-3.653
		c0.707-1.431,2.777-1.339,3.46-1.307c0.365,0.004,3.839,0.112,4.338,2.454c0.1,0.475-0.203,0.942-0.678,1.043
		c-0.475,0.099-0.942-0.202-1.043-0.677c-0.155-0.731-1.814-1.052-2.667-1.062c-1.3-0.059-1.765,0.19-1.833,0.329
		c-0.144,0.292,0.297,1.193,0.759,1.744c0.312,0.372,0.263,0.927-0.109,1.239C18.969,51.217,18.769,51.284,18.57,51.284z"/>
	<path style="fill:#F0C419;" d="M21.207,45.129c-0.225,0-0.45-0.086-0.622-0.258c-0.343-0.343-0.343-0.9,0-1.243l2.638-2.638
		c0.343-0.343,0.9-0.343,1.243,0c0.343,0.343,0.343,0.9,0,1.243l-2.638,2.638C21.657,45.043,21.432,45.129,21.207,45.129z"/>
	<path style="fill:#F0C419;" d="M41.43,51.284c-0.194,0-0.39-0.064-0.552-0.196c-0.377-0.305-0.436-0.858-0.131-1.235
		c0.447-0.559,0.851-1.439,0.7-1.736c-0.079-0.157-0.554-0.41-1.843-0.351c-0.846,0.023-2.451,0.354-2.586,1.048
		c-0.093,0.477-0.557,0.786-1.031,0.695c-0.477-0.093-0.787-0.554-0.695-1.031c0.45-2.313,3.863-2.461,4.251-2.47
		c0.661-0.033,2.746-0.125,3.473,1.316c0.745,1.476-0.621,3.285-0.902,3.633C41.941,51.173,41.687,51.284,41.43,51.284z"/>
	<path style="fill:#F0C419;" d="M38.793,45.129c-0.225,0-0.45-0.086-0.622-0.258l-2.638-2.638c-0.343-0.343-0.343-0.9,0-1.243
		c0.343-0.343,0.9-0.343,1.243,0l2.638,2.638c0.343,0.343,0.343,0.9,0,1.243C39.243,45.043,39.018,45.129,38.793,45.129z"/>
	<polygon style="fill:#F0C419;" points="28.241,44.25 28.241,47.767 30,53.043 31.759,47.767 31.759,44.25 	"/>
</g>
<g>
</g>
<g>
</g>
<g>
</g>
<g>
</g>
<g>
</g>
<g>
</g>
<g>
</g>
<g>
</g>
<g>
</g>
<g>
</g>
<g>
</g>
<g>
</g>
<g>
</g>
<g>
</g>
<g>
</g>
</svg>
