<?xml version="1.0" encoding="iso-8859-1"?>
<!-- Generator: Adobe Illustrator 18.0.0, SVG Export Plug-In . SVG Version: 6.00 Build 0)  -->
<!DOCTYPE svg PUBLIC "-//W3C//DTD SVG 1.1//EN" "http://www.w3.org/Graphics/SVG/1.1/DTD/svg11.dtd">
<svg version="1.1" id="Capa_1" xmlns="http://www.w3.org/2000/svg" xmlns:xlink="http://www.w3.org/1999/xlink" x="0px" y="0px"
	 viewBox="0 0 54 54" style="enable-background:new 0 0 54 54;" xml:space="preserve">
<g>
	<rect style="fill:#83A46E;" width="54" height="54"/>
	<rect x="18" y="38" style="fill:#4C8056;" width="18" height="4"/>
	<polygon style="fill:#4B783F;" points="40,0 23,0 6,0 0,0 0,14 6,14 6,8 23,8 23,5 40,5 40,10 54,10 54,0 	"/>
	<polygon style="fill:#476F37;" points="49,42 49,46 11,46 11,42 0,42 0,54 9,54 48,54 54,54 54,42 	"/>
	<rect x="7" y="18" style="fill:#222222;" width="18" height="8"/>
	<rect x="30" y="18" style="fill:#222222;" width="18" height="8"/>
</g>
<g>
</g>
<g>
</g>
<g>
</g>
<g>
</g>
<g>
</g>
<g>
</g>
<g>
</g>
<g>
</g>
<g>
</g>
<g>
</g>
<g>
</g>
<g>
</g>
<g>
</g>
<g>
</g>
<g>
</g>
</svg>
