<?xml version="1.0" encoding="iso-8859-1"?>
<!-- Generator: Adobe Illustrator 19.0.0, SVG Export Plug-In . SVG Version: 6.00 Build 0)  -->
<svg version="1.1" id="Capa_1" xmlns="http://www.w3.org/2000/svg" xmlns:xlink="http://www.w3.org/1999/xlink" x="0px" y="0px"
	 viewBox="0 0 429.986 429.986" style="enable-background:new 0 0 429.986 429.986;" xml:space="preserve">
<path id="XMLID_158_" d="M379.198,160.309c1.769,4.646-0.564,9.845-5.209,11.613c-19.187,7.304-41.45,11.164-64.384,11.164
	c-34.264,0-66.907-8.745-89.56-23.991c-4.124-2.776-5.216-8.369-2.441-12.492c2.775-4.124,8.367-5.218,12.492-2.44
	c19.757,13.297,48.736,20.924,79.509,20.924c20.769,0,40.818-3.453,57.981-9.986C372.23,153.332,377.43,155.663,379.198,160.309z
	 M189.222,73.372c0-20.544,13.183-39.477,37.119-53.311C248.726,7.125,278.296,0,309.604,0c31.307,0,60.877,7.125,83.262,20.062
	c23.937,13.835,37.12,32.768,37.12,53.311c0,20.544-13.183,39.478-37.12,53.312c-22.385,12.938-51.955,20.063-83.262,20.063
	c-31.309,0-60.878-7.125-83.263-20.063C202.405,112.85,189.222,93.916,189.222,73.372z M207.222,73.372
	c0,30.016,46.885,55.374,102.382,55.374c55.497,0,102.382-25.358,102.382-55.374C411.986,43.357,365.101,18,309.604,18
	C254.107,18,207.222,43.357,207.222,73.372z M190.786,151.443c-6.435,4.931-12.917,10.128-19.267,15.449
	c-23.324,19.543-44.096,40.035-60.071,59.262c-3.176,3.823-2.652,9.498,1.17,12.674c1.681,1.397,3.72,2.078,5.747,2.078
	c2.583,0,5.147-1.106,6.927-3.248c15.296-18.409,35.278-38.108,57.788-56.969c6.149-5.154,12.425-10.187,18.653-14.957
	c3.946-3.023,4.693-8.672,1.671-12.618C200.38,149.169,194.732,148.421,190.786,151.443z M241.589,76.224
	c4.543,2.016,9.86-0.033,11.877-4.576c3.156-7.113,23.196-17.638,56.187-17.638c36.615,0,56.588,12.791,56.588,19.362
	c0,6.572-19.974,19.363-56.588,19.363c-4.971,0-9,4.029-9,9s4.029,9,9,9c18.721,0,36.46-3.213,49.951-9.047
	c15.888-6.87,24.638-16.927,24.638-28.316c0-11.389-8.75-21.445-24.638-28.315c-13.491-5.834-31.23-9.047-49.951-9.047
	c-29.898,0-63.954,8.762-72.64,28.337C234.997,68.891,237.046,74.208,241.589,76.224z M9,334.561c4.971,0,9-4.029,9-9V74.38
	c0-3.355,2.729-6.086,6.084-6.086h90.424c4.971,0,9-4.029,9-9s-4.029-9-9-9H24.084C10.804,50.294,0,61.099,0,74.38v251.181
	C0,330.531,4.029,334.561,9,334.561z M243.603,370.093v45.387c0,7.999-6.508,14.507-14.508,14.507H14.506
	C6.507,429.986,0,423.479,0,415.479v-45.387c0-8,6.507-14.508,14.506-14.508H56.4v-33.301c0-28.287,23.013-51.3,51.3-51.3h28.202
	c28.287,0,51.3,23.013,51.3,51.3v33.301h41.893C237.094,355.585,243.603,362.093,243.603,370.093z M74.4,355.585h94.802v-33.301
	c0-18.361-14.938-33.3-33.3-33.3H107.7c-18.361,0-33.3,14.938-33.3,33.3V355.585z M225.603,373.585H18v38.401h207.603V373.585z
	 M47.624,236.698c-2.351,4.38-0.706,9.836,3.673,12.187c1.354,0.728,2.812,1.072,4.249,1.072c3.208,0,6.314-1.721,7.938-4.745
	c12.937-24.102,44.161-58.504,81.487-89.78c11.255-9.43,22.706-18.301,34.033-26.368c4.048-2.884,4.993-8.503,2.11-12.552
	c-2.884-4.05-8.503-4.993-12.552-2.11c-11.709,8.34-23.536,17.502-35.151,27.233C93.854,174.78,61.784,210.318,47.624,236.698z
	 M420.986,135.432c-4.971,0-9,4.029-9,9v231.292c0,3.3-2.788,6.087-6.087,6.087H275.993c-4.971,0-9,4.029-9,9s4.029,9,9,9h129.907
	c13.282,0,24.087-10.806,24.087-24.087V144.432C429.986,139.461,425.957,135.432,420.986,135.432z M93.981,127.194
	c1.78,2.162,4.356,3.28,6.954,3.28c2.013,0,4.039-0.672,5.714-2.051c11.475-9.444,23.318-18.426,35.2-26.694
	c6.57-4.572,13.27-9.024,19.916-13.233c4.199-2.66,5.447-8.22,2.787-12.419s-8.219-5.446-12.419-2.788
	c-6.864,4.349-13.784,8.946-20.565,13.666c-12.277,8.544-24.509,17.82-36.356,27.57C91.373,117.684,90.822,123.355,93.981,127.194z"
	/>
<g>
</g>
<g>
</g>
<g>
</g>
<g>
</g>
<g>
</g>
<g>
</g>
<g>
</g>
<g>
</g>
<g>
</g>
<g>
</g>
<g>
</g>
<g>
</g>
<g>
</g>
<g>
</g>
<g>
</g>
</svg>
