<?xml version="1.0" encoding="iso-8859-1"?>
<!-- Generator: Adobe Illustrator 19.0.0, SVG Export Plug-In . SVG Version: 6.00 Build 0)  -->
<svg version="1.1" id="Capa_1" xmlns="http://www.w3.org/2000/svg" xmlns:xlink="http://www.w3.org/1999/xlink" x="0px" y="0px"
	 viewBox="0 0 436.324 436.324" style="enable-background:new 0 0 436.324 436.324;" xml:space="preserve">
<path id="XMLID_4_" d="M334.895,123.97c20.557,0,39.416-12.125,48.047-30.891c1.098-2.387,1.098-5.135,0-7.522
	c-8.632-18.766-27.492-30.891-48.047-30.891h-65.235c-4.971,0-9,4.029-9,9v51.304c0,4.971,4.029,9,9,9H334.895z M278.659,72.667
	h56.235c12.125,0,23.362,6.417,29.679,16.653c-6.316,10.235-17.553,16.651-29.679,16.651h-56.235V72.667z M426.073,329.498h-9.209
	c-4.154-37.003-33.613-66.461-70.617-70.616v-9.211c0-4.971-4.029-9-9-9s-9,4.029-9,9v9.211
	c-37.003,4.154-66.462,33.612-70.617,70.616h-9.21c-4.971,0-9,4.029-9,9s4.029,9,9,9h9.21c4.154,37.003,33.614,66.463,70.617,70.618
	v9.209c0,4.971,4.029,9,9,9s9-4.029,9-9v-9.209c37.004-4.154,66.463-33.614,70.618-70.618h9.209c4.971,0,9-4.029,9-9
	S431.043,329.498,426.073,329.498z M346.246,399.967v-7.171c0-4.971-4.029-9-9-9s-9,4.029-9,9v7.171
	c-27.063-3.945-48.524-25.407-52.469-52.47h7.17c4.971,0,9-4.029,9-9s-4.029-9-9-9h-7.17c3.945-27.063,25.406-48.523,52.469-52.468
	v7.169c0,4.971,4.029,9,9,9s9-4.029,9-9v-7.169c27.063,3.945,48.524,25.405,52.469,52.468h-7.171c-4.971,0-9,4.029-9,9s4.029,9,9,9
	h7.171C394.771,374.56,373.309,396.022,346.246,399.967z M197.696,325.889c-7.467,7.468-17.397,11.582-27.959,11.582
	c-0.001,0-0.001,0-0.002,0c-7.79,0-15.235-2.238-21.604-6.408c-13.07,8.522-30.114,8.52-43.185-0.005
	c-15.325,9.995-36.116,8.273-49.559-5.168c-3.515-3.514-3.516-9.213-0.001-12.728c3.514-3.516,9.213-3.516,12.728-0.001
	c8.401,8.399,22.069,8.399,30.467,0c3.515-3.515,9.213-3.515,12.728,0c8.401,8.399,22.067,8.399,30.465,0
	c3.515-3.515,9.213-3.515,12.728,0c4.069,4.068,9.479,6.309,15.233,6.31h0.001c5.754,0,11.163-2.24,15.23-6.309
	c3.515-3.515,9.213-3.516,12.728-0.001C201.209,316.676,201.21,322.374,197.696,325.889z M277.721,420.987c0,4.971-4.029,9-9,9
	H10.251c-4.971,0-9-4.029-9-9V9c0-4.971,4.029-9,9-9h411.987c4.971,0,9,4.029,9,9v258.773c0,4.971-4.029,9-9,9s-9-4.029-9-9V18
	H19.251v393.987h249.469C273.691,411.987,277.721,416.017,277.721,420.987z M381.129,201.979c3.515,3.515,3.515,9.213,0,12.728
	c-13.439,13.441-34.231,15.164-49.559,5.168c-13.071,8.525-30.12,8.524-43.193,0c-6.536,4.263-14.066,6.395-21.596,6.395
	c-10.125,0-20.251-3.854-27.961-11.562c-3.515-3.515-3.516-9.213-0.001-12.728s9.213-3.516,12.728-0.001
	c8.4,8.399,22.068,8.399,30.465,0.001c3.515-3.514,9.212-3.515,12.727-0.001c8.401,8.398,22.068,8.399,30.467,0.001
	c3.514-3.515,9.212-3.515,12.727-0.001c8.401,8.399,22.068,8.399,30.468,0.001C371.916,198.465,377.614,198.465,381.129,201.979z
	 M381.129,170.68c-7.708,7.708-17.834,11.563-27.961,11.563c-7.53,0-15.062-2.132-21.598-6.395c-13.07,8.524-30.12,8.525-43.193,0
	c-15.324,9.996-36.115,8.273-49.557-5.167c-3.515-3.515-3.516-9.213-0.001-12.728c3.514-3.516,9.213-3.516,12.728-0.001
	c8.401,8.398,22.067,8.4,30.465,0c3.515-3.514,9.212-3.515,12.727-0.001c8.401,8.399,22.069,8.4,30.467,0.001
	c3.515-3.515,9.213-3.515,12.728,0c8.401,8.399,22.069,8.399,30.467,0c3.515-3.515,9.213-3.515,12.728,0
	S384.644,167.165,381.129,170.68z M197.695,357.613c3.515,3.515,3.515,9.213,0,12.728c-7.708,7.708-17.834,11.563-27.96,11.563
	c-7.53,0-15.061-2.132-21.597-6.395c-13.072,8.524-30.12,8.525-43.193,0c-15.324,9.995-36.116,8.272-49.558-5.167
	c-3.515-3.514-3.516-9.213-0.001-12.728c3.514-3.516,9.213-3.516,12.728-0.001c8.4,8.398,22.068,8.398,30.468,0
	c3.515-3.515,9.212-3.515,12.727,0c8.4,8.398,22.066,8.398,30.466,0c3.515-3.515,9.213-3.515,12.728,0
	c8.399,8.399,22.066,8.4,30.465,0C188.481,354.099,194.18,354.099,197.695,357.613z M55.386,100.497
	c3.514-3.516,9.213-3.516,12.728-0.001c8.4,8.398,22.068,8.398,30.468,0c3.515-3.515,9.212-3.515,12.727,0
	c8.4,8.397,22.067,8.398,30.466,0c3.515-3.514,9.212-3.514,12.727,0c8.399,8.399,22.066,8.399,30.465,0
	c3.515-3.515,9.213-3.515,12.728,0s3.515,9.213,0,12.728c-7.708,7.708-17.834,11.563-27.96,11.563
	c-7.53,0-15.061-2.132-21.598-6.395c-13.072,8.526-30.121,8.524-43.192,0c-15.326,9.995-36.116,8.272-49.558-5.167
	C51.872,109.71,51.872,104.012,55.386,100.497z M347.25,338.498c0,4.971-4.029,9-9,9h-2.009c-4.971,0-9-4.029-9-9s4.029-9,9-9h2.009
	C343.221,329.498,347.25,333.527,347.25,338.498z M55.387,69.197c-3.515-3.514-3.516-9.213-0.001-12.728
	c3.514-3.516,9.213-3.515,12.728-0.001c8.401,8.399,22.068,8.399,30.468,0.001c3.514-3.515,9.212-3.515,12.727-0.001
	c8.4,8.399,22.066,8.399,30.466,0.001c3.515-3.515,9.213-3.515,12.728,0c4.068,4.068,9.479,6.309,15.233,6.309h0.001
	c5.754,0,11.163-2.24,15.23-6.308c3.514-3.516,9.213-3.515,12.728-0.001c3.515,3.515,3.516,9.213,0.001,12.728
	c-7.467,7.468-17.397,11.582-27.959,11.582c-0.001,0-0.001,0-0.002,0c-7.79,0-15.236-2.237-21.604-6.408
	c-13.071,8.521-30.115,8.518-43.185-0.005C89.621,84.36,68.83,82.638,55.387,69.197z M201.967,192.698
	c-8.634-18.765-27.494-30.89-48.048-30.89H61.75c-4.971,0-9,4.029-9,9v51.303c0,4.971,4.029,9,9,9h92.168
	c20.555,0,39.416-12.125,48.048-30.89C203.065,197.833,203.065,195.085,201.967,192.698z M153.919,213.111H70.75v-33.303h83.168
	c12.124,0,23.362,6.417,29.68,16.652C177.281,206.694,166.043,213.111,153.919,213.111z M197.695,281.439
	c-7.708,7.708-17.834,11.563-27.96,11.563c-7.53,0-15.061-2.132-21.597-6.395c-13.072,8.524-30.12,8.525-43.193,0
	c-15.324,9.994-36.116,8.272-49.558-5.167c-3.515-3.515-3.516-9.213-0.001-12.728c3.515-3.515,9.213-3.516,12.728-0.001
	c8.4,8.399,22.068,8.399,30.468,0c3.515-3.515,9.212-3.514,12.727,0c8.4,8.398,22.067,8.398,30.466,0
	c3.514-3.515,9.212-3.515,12.727,0c8.399,8.398,22.066,8.399,30.465,0c3.515-3.515,9.213-3.515,12.728,0
	S201.21,277.925,197.695,281.439z"/>
<g>
</g>
<g>
</g>
<g>
</g>
<g>
</g>
<g>
</g>
<g>
</g>
<g>
</g>
<g>
</g>
<g>
</g>
<g>
</g>
<g>
</g>
<g>
</g>
<g>
</g>
<g>
</g>
<g>
</g>
</svg>
