<?xml version="1.0" encoding="iso-8859-1"?>
<!-- Generator: Adobe Illustrator 19.0.0, SVG Export Plug-In . SVG Version: 6.00 Build 0)  -->
<svg version="1.1" id="Capa_1" xmlns="http://www.w3.org/2000/svg" xmlns:xlink="http://www.w3.org/1999/xlink" x="0px" y="0px"
	 viewBox="0 0 446.385 446.385" style="enable-background:new 0 0 446.385 446.385;" xml:space="preserve">
<path id="XMLID_443_" d="M124.656,276.946c0.43,1.051,0.667,2.201,0.667,3.406v44.013c0,4.971-4.029,9-9,9s-9-4.029-9-9v-23.289
	l-1.587,1.483c-3.632,3.392-9.328,3.199-12.721-0.434c-3.393-3.632-3.199-9.327,0.433-12.721l16.717-15.616
	c0.111-0.104,0.225-0.206,0.342-0.305c0.001-0.002,0.003-0.003,0.004-0.004c0.003-0.003,0.007-0.007,0.011-0.01
	c0.004-0.003,0.009-0.007,0.013-0.011c0,0,0.001-0.001,0.001-0.001c0.709-0.597,1.487-1.065,2.304-1.408
	c0.004-0.002,0.007-0.003,0.011-0.005c0.002-0.001,0.004-0.002,0.006-0.002c2.18-0.91,4.909-0.887,7.069,0.06
	c1.011,0.441,1.956,1.075,2.777,1.902c0.001,0.001,0.002,0.002,0.003,0.003c0.002,0.003,0.005,0.005,0.007,0.008
	c0.205,0.206,0.4,0.423,0.584,0.648l0.001,0.001c0.003,0.004,0.006,0.008,0.009,0.012
	C123.879,275.379,124.328,276.144,124.656,276.946z M115.207,371.242c-37.982,0-68.883-30.901-68.883-68.884
	s30.901-68.883,68.883-68.883c37.983,0,68.884,30.9,68.884,68.883S153.19,371.242,115.207,371.242z M166.091,302.358
	c0-28.057-22.827-50.883-50.884-50.883c-28.057,0-50.883,22.826-50.883,50.883c0,28.058,22.826,50.884,50.883,50.884
	C143.265,353.242,166.091,330.416,166.091,302.358z M127.766,390.71c-4.971,0-9,4.029-9,9s4.029,9,9,9
	c52.722,0,95.615-42.893,95.615-95.614c0-4.971-4.029-9-9-9s-9,4.029-9,9C205.38,355.892,170.563,390.71,127.766,390.71z
	 M446.385,399.495c-0.001,4.026-1.566,7.807-4.406,10.646l-22.937,22.938c-2.838,2.839-6.619,4.403-10.646,4.404
	c-0.001,0-0.003,0-0.004,0c-4.025,0-7.806-1.563-10.646-4.402l-102.01-102.01c-1.691-1.692-2.896-3.69-3.611-5.818l-23.755-25.152
	c-3.413-3.614-3.25-9.311,0.363-12.723c3.614-3.413,9.311-3.248,12.723,0.363l17.639,18.677l16.22-16.22L36.347,27.07l-2.295,2.295
	l122.612,128.216c3.436,3.593,3.308,9.29-0.284,12.726s-9.289,3.31-12.725-0.285L14.96,35.445
	c-3.381-3.536-3.319-9.125,0.141-12.585L29.8,8.161c3.442-3.441,8.998-3.522,12.539-0.183l291.814,275.244
	c2.128,0.716,4.126,1.92,5.817,3.611l102.012,102.011C444.822,391.685,446.386,395.468,446.385,399.495z M427.173,399.491
	l-97.849-97.848l-18.778,18.778l97.848,97.849L427.173,399.491z M255.53,313.095c0,70.449-57.315,127.764-127.765,127.764
	C57.315,440.859,0,383.545,0,313.095s57.315-127.765,127.766-127.765C198.215,185.331,255.53,242.646,255.53,313.095z
	 M237.53,313.095c0-60.524-49.24-109.765-109.765-109.765C67.241,203.331,18,252.571,18,313.095
	c0,60.523,49.241,109.764,109.766,109.764C188.29,422.859,237.53,373.619,237.53,313.095z"/>
<g>
</g>
<g>
</g>
<g>
</g>
<g>
</g>
<g>
</g>
<g>
</g>
<g>
</g>
<g>
</g>
<g>
</g>
<g>
</g>
<g>
</g>
<g>
</g>
<g>
</g>
<g>
</g>
<g>
</g>
</svg>
