<?xml version="1.0" encoding="iso-8859-1"?>
<!-- Generator: Adobe Illustrator 19.0.0, SVG Export Plug-In . SVG Version: 6.00 Build 0)  -->
<svg version="1.1" id="Capa_1" xmlns="http://www.w3.org/2000/svg" xmlns:xlink="http://www.w3.org/1999/xlink" x="0px" y="0px"
	 viewBox="0 0 430.017 430.017" style="enable-background:new 0 0 430.017 430.017;" xml:space="preserve">
<path id="XMLID_834_" d="M77.671,377.064c13.63,0,24.719-11.089,24.719-24.72s-11.089-24.719-24.719-24.719
	c-13.631,0-24.72,11.089-24.72,24.719c0,5.304,1.657,10.362,4.786,14.618C62.376,373.288,69.828,377.064,77.671,377.064z
	 M77.671,345.625c3.705,0,6.719,3.014,6.719,6.719s-3.014,6.72-6.719,6.72c-2.164,0-4.139-1.001-5.426-2.756
	c-0.591-0.803-1.294-2.143-1.294-3.964C70.95,348.639,73.965,345.625,77.671,345.625z M41.546,211.331
	c-3.515-3.515-3.515-9.213,0-12.728l18.977-18.978c3.515-3.515,9.213-3.515,12.728,0c3.515,3.515,3.515,9.213,0,12.728
	L54.274,211.33c-1.758,1.757-4.061,2.636-6.364,2.636S43.303,213.088,41.546,211.331z M77.671,405.166
	c29.125,0,52.821-23.696,52.821-52.822s-23.695-52.821-52.821-52.821s-52.821,23.695-52.821,52.821S48.545,405.166,77.671,405.166z
	 M77.671,317.523c19.2,0,34.821,15.621,34.821,34.821s-15.621,34.822-34.821,34.822c-19.201,0-34.821-15.621-34.821-34.822
	S58.47,317.523,77.671,317.523z M47.754,232.182l47.104-47.104c3.514-3.515,9.213-3.515,12.728,0c3.515,3.515,3.514,9.213,0,12.728
	l-47.104,47.104c-1.757,1.757-4.061,2.636-6.364,2.636c-2.304,0-4.606-0.878-6.364-2.636
	C44.239,241.395,44.239,235.696,47.754,232.182z M113.795,218.657c3.515,3.514,3.515,9.213,0,12.728l-18.977,18.978
	c-1.757,1.757-4.061,2.636-6.364,2.636s-4.606-0.878-6.364-2.636c-3.515-3.515-3.515-9.213,0-12.728l18.977-18.978
	C104.581,215.143,110.28,215.142,113.795,218.657z M215.009,102.39c13.63,0,24.72-11.089,24.72-24.72
	c0-13.63-11.09-24.719-24.72-24.719c-13.63,0-24.718,11.089-24.718,24.719c0,5.302,1.655,10.358,4.785,14.619
	C199.717,98.614,207.169,102.39,215.009,102.39z M215.009,70.95c3.706,0,6.72,3.014,6.72,6.719c0,3.706-3.015,6.72-6.72,6.72
	c-2.163,0-4.139-1.002-5.424-2.753c-0.59-0.804-1.294-2.145-1.294-3.967C208.291,73.964,211.304,70.95,215.009,70.95z
	 M316.222,211.331c-3.515-3.515-3.515-9.213,0-12.728l18.977-18.978c3.517-3.516,9.214-3.514,12.729,0
	c3.515,3.515,3.515,9.213,0,12.728l-18.977,18.978c-1.758,1.757-4.061,2.636-6.364,2.636S317.98,213.088,316.222,211.331z
	 M322.431,232.182l47.104-47.104c3.516-3.515,9.213-3.516,12.729,0c3.515,3.515,3.515,9.213,0,12.728l-47.104,47.104
	c-1.758,1.757-4.061,2.636-6.364,2.636s-4.606-0.878-6.364-2.636C318.917,241.395,318.917,235.696,322.431,232.182z M421.016,0H9
	C4.03,0,0,4.029,0,9v412.014c0,4.971,4.029,9,9,9h137.129c0.14,0.002,0.279,0.002,0.419,0h136.92c0.07,0.001,0.14,0.002,0.21,0.002
	s0.14-0.001,0.21-0.002h137.128c4.971,0,9-4.029,9-9V9C430.016,4.029,425.987,0,421.016,0z M137.339,412.014H18V292.676h119.338
	V412.014z M137.339,274.676H18V155.338h119.338V274.676z M137.339,137.338H18V18h119.338V137.338z M274.678,412.014h-119.34V292.676
	h119.34V412.014z M274.678,274.676h-119.34V155.338h119.34V274.676z M274.678,137.338h-119.34V18h119.34V137.338z M412.016,412.014
	H292.678V292.676h119.338V412.014z M412.016,274.676H292.678V155.338h119.338V274.676z M412.016,137.338H292.678V18h119.338V137.338
	z M251.134,356.008c3.515,3.515,3.515,9.213,0,12.728l-18.977,18.977c-1.758,1.757-4.061,2.636-6.364,2.636
	s-4.606-0.878-6.364-2.636c-3.515-3.515-3.515-9.213,0-12.728l18.977-18.977C241.921,352.494,247.618,352.494,251.134,356.008z
	 M388.472,218.657c3.515,3.515,3.515,9.213,0,12.728l-18.977,18.978c-1.758,1.757-4.061,2.636-6.364,2.636s-4.606-0.878-6.364-2.636
	c-3.515-3.515-3.515-9.213,0-12.728l18.977-18.978C379.26,215.143,384.957,215.142,388.472,218.657z M185.094,369.533l47.104-47.104
	c3.516-3.516,9.213-3.515,12.729,0c3.515,3.515,3.515,9.213,0,12.728l-47.105,47.104c-1.757,1.757-4.061,2.636-6.364,2.636
	c-2.304,0-4.606-0.878-6.364-2.636C181.578,378.746,181.579,373.047,185.094,369.533z M215.009,130.491
	c29.126,0,52.822-23.695,52.822-52.821s-23.695-52.821-52.822-52.821c-29.126,0-52.821,23.695-52.821,52.821
	S185.883,130.491,215.009,130.491z M215.009,42.848c19.201,0,34.822,15.621,34.822,34.821s-15.621,34.821-34.822,34.821
	s-34.821-15.621-34.821-34.821S195.808,42.848,215.009,42.848z M178.885,348.68c-3.515-3.515-3.514-9.213,0-12.728l18.978-18.977
	c3.516-3.514,9.213-3.514,12.728,0s3.514,9.213,0,12.728l-18.978,18.977c-1.757,1.757-4.061,2.636-6.364,2.636
	C182.945,351.316,180.642,350.438,178.885,348.68z"/>
<g>
</g>
<g>
</g>
<g>
</g>
<g>
</g>
<g>
</g>
<g>
</g>
<g>
</g>
<g>
</g>
<g>
</g>
<g>
</g>
<g>
</g>
<g>
</g>
<g>
</g>
<g>
</g>
<g>
</g>
</svg>
