<?xml version="1.0" encoding="iso-8859-1"?>
<!-- Generator: Adobe Illustrator 19.0.0, SVG Export Plug-In . SVG Version: 6.00 Build 0)  -->
<svg version="1.1" id="Capa_1" xmlns="http://www.w3.org/2000/svg" xmlns:xlink="http://www.w3.org/1999/xlink" x="0px" y="0px"
	 viewBox="0 0 429.986 429.986" style="enable-background:new 0 0 429.986 429.986;" xml:space="preserve">
<path id="XMLID_494_" d="M171.896,172.081c-1.668,2.885-4.692,4.498-7.8,4.498c-1.529,0-3.077-0.39-4.496-1.21l-1.742-1.007
	c-4.303-2.488-5.775-7.993-3.287-12.296c2.488-4.304,7.992-5.776,12.296-3.288l1.742,1.007
	C172.912,162.273,174.383,167.778,171.896,172.081z M214.993,124.019c4.971,0,9-4.029,9-9v-2.011c0-4.971-4.029-9-9-9s-9,4.029-9,9
	v2.011C205.993,119.989,210.022,124.019,214.993,124.019z M208.375,282.771c0-4.971-4.029-9-9-9s-9,4.029-9,9v2.012
	c0,4.971,4.029,9,9,9s9-4.029,9-9V282.771z M159.603,254.613l-1.742,1.006c-4.304,2.486-5.778,7.99-3.292,12.295
	c1.667,2.887,4.691,4.501,7.802,4.501c1.527,0,3.075-0.39,4.493-1.208l1.742-1.006c4.304-2.486,5.778-7.99,3.292-12.295
	C169.413,253.604,163.91,252.129,159.603,254.613z M123.917,257.184l-1.743,1.005c-4.306,2.483-5.784,7.986-3.301,12.293
	c1.667,2.89,4.693,4.506,7.805,4.506c1.525,0,3.071-0.389,4.487-1.205l1.743-1.005c4.306-2.483,5.784-7.986,3.301-12.293
	C133.727,256.179,128.223,254.7,123.917,257.184z M156.277,230.854c-2.487-4.306-7.991-5.778-12.295-3.291l-1.739,1.005
	c-4.304,2.486-5.777,7.991-3.291,12.295c1.667,2.887,4.692,4.5,7.801,4.5c1.528,0,3.076-0.39,4.494-1.209l1.739-1.005
	C157.29,240.663,158.763,235.158,156.277,230.854z M290.901,396.833c-24.058,10.055-49.597,15.153-75.908,15.153
	C106.371,411.986,18,323.615,18,214.993S106.371,18,214.993,18c108.622,0,196.993,88.371,196.993,196.993
	c0,29.264-6.266,57.423-18.622,83.696c-2.115,4.498-0.184,9.859,4.314,11.975c4.497,2.114,9.858,0.184,11.975-4.314
	c13.492-28.688,20.333-59.425,20.333-91.356c0-57.427-22.363-111.417-62.97-152.023S272.421,0,214.993,0
	C157.567,0,103.577,22.363,62.97,62.97S0,157.566,0,214.993s22.363,111.416,62.97,152.023c40.607,40.606,94.597,62.97,152.023,62.97
	c28.707,0,56.582-5.566,82.85-16.546c4.586-1.917,6.75-7.188,4.833-11.774C300.76,397.081,295.49,394.918,290.901,396.833z
	 M142.242,201.415l1.739,1.005c1.418,0.819,2.966,1.209,4.494,1.209c3.109,0,6.134-1.613,7.801-4.5
	c2.486-4.304,1.013-9.809-3.291-12.295l-1.739-1.005c-4.304-2.487-9.809-1.015-12.295,3.291
	C136.465,193.424,137.938,198.929,142.242,201.415z M132.912,157.209l-1.743-1.006c-4.304-2.484-9.809-1.009-12.294,3.296
	c-2.485,4.305-1.009,9.809,3.296,12.294l1.743,1.006c1.417,0.818,2.964,1.207,4.491,1.207c3.11,0,6.136-1.615,7.803-4.503
	C138.693,165.198,137.217,159.694,132.912,157.209z M214.993,305.967c-4.971,0-9,4.029-9,9v2.011c0,4.971,4.029,9,9,9s9-4.029,9-9
	v-2.011C223.993,309.996,219.964,305.967,214.993,305.967z M199.375,156.213c4.971,0,9-4.029,9-9v-2.011c0-4.971-4.029-9-9-9
	s-9,4.029-9,9v2.011C190.375,152.184,194.404,156.213,199.375,156.213z M362.938,138.451l-41.837,76.668l41.831,76.405
	c1.508,2.755,1.471,6.096-0.098,8.816c-1.567,2.721-4.44,4.428-7.58,4.503l-87.316,2.104l-45.254,74.431
	c-1.632,2.684-4.544,4.322-7.684,4.324c-0.002,0-0.004,0-0.006,0c-3.138,0-6.05-1.635-7.684-4.313l-45.477-74.567l-87.086-1.977
	c-3.14-0.071-6.015-1.774-7.587-4.493c-1.572-2.718-1.613-6.06-0.109-8.816l41.838-76.668l-41.832-76.405
	c-1.508-2.755-1.472-6.096,0.097-8.816s4.441-4.428,7.581-4.503l87.316-2.104l45.253-74.431c1.632-2.684,4.544-4.322,7.684-4.324
	c0.002,0,0.004,0,0.006,0c3.138,0,6.05,1.635,7.684,4.313l45.479,74.567l87.085,1.977c3.14,0.071,6.015,1.774,7.587,4.492
	C364.4,132.353,364.441,135.694,362.938,138.451z M340.058,142.802l-77.228-1.753c-3.064-0.07-5.884-1.694-7.479-4.312
	l-40.345-66.149l-40.13,66.006c-1.593,2.619-4.409,4.248-7.474,4.321l-77.459,1.866l37.097,67.757
	c1.472,2.689,1.475,5.942,0.006,8.634L89.93,287.185l77.229,1.753c3.065,0.07,5.883,1.694,7.479,4.312l40.343,66.148l40.131-66.005
	c1.593-2.619,4.409-4.248,7.474-4.321l77.46-1.866l-37.097-67.757c-1.472-2.689-1.475-5.942-0.006-8.634L340.058,142.802z
	 M273.705,199.124c1.666,2.889,4.692,4.505,7.805,4.505c1.525,0,3.071-0.389,4.488-1.206l1.742-1.005
	c4.306-2.483,5.782-7.987,3.299-12.293c-2.482-4.305-7.985-5.784-12.293-3.299l-1.742,1.005
	C272.698,189.314,271.222,194.818,273.705,199.124z M258.093,172.082c1.668,2.885,4.69,4.497,7.8,4.497
	c1.528,0,3.078-0.391,4.496-1.211l1.741-1.007c4.304-2.488,5.774-7.993,3.286-12.296c-2.487-4.302-7.993-5.774-12.296-3.286
	l-1.741,1.007C257.075,162.274,255.604,167.779,258.093,172.082z M424.309,375.166c0,30.229-24.593,54.82-54.82,54.82
	c-15.511,0-30.363-6.615-40.75-18.149c-9.073-10.076-14.07-23.1-14.07-36.671c0-30.229,24.593-54.82,54.82-54.82
	S424.309,344.938,424.309,375.166z M406.309,375.166c0-20.303-16.518-36.82-36.82-36.82s-36.82,16.518-36.82,36.82
	c0,9.115,3.354,17.861,9.447,24.626c6.979,7.75,16.955,12.194,27.373,12.194C389.791,411.986,406.309,395.469,406.309,375.166z
	 M369.488,351.933c-4.971,0-9,4.029-9,9s4.029,9,9,9c2.887,0,5.234,2.348,5.234,5.233c0,4.971,4.029,9,9,9s9-4.029,9-9
	C392.723,362.355,382.3,351.933,369.488,351.933z M297.075,272.773l1.743,1.006c1.417,0.818,2.963,1.207,4.489,1.207
	c3.111,0,6.138-1.615,7.804-4.504c2.484-4.305,1.009-9.809-3.297-12.293l-1.743-1.006c-4.308-2.488-9.811-1.008-12.293,3.297
	C291.294,264.785,292.77,270.29,297.075,272.773z M272.127,255.62l-1.741-1.006c-4.305-2.487-9.81-1.013-12.295,3.291
	c-2.486,4.304-1.013,9.809,3.291,12.295l1.741,1.006c1.418,0.819,2.966,1.209,4.493,1.209c3.109,0,6.135-1.614,7.802-4.5
	C277.904,263.611,276.431,258.106,272.127,255.62z M230.611,136.202c-4.971,0-9,4.029-9,9v2.011c0,4.971,4.029,9,9,9s9-4.029,9-9
	v-2.011C239.611,140.231,235.582,136.202,230.611,136.202z M230.611,273.771c-4.971,0-9,4.029-9,9v2.012c0,4.971,4.029,9,9,9
	s9-4.029,9-9v-2.012C239.611,277.801,235.582,273.771,230.611,273.771z M301.582,174.008c1.527,0,3.075-0.39,4.492-1.209
	l1.743-1.007c4.305-2.485,5.778-7.99,3.293-12.294c-2.486-4.305-7.992-5.777-12.295-3.293l-1.743,1.008
	c-4.305,2.485-5.778,7.99-3.292,12.294C295.447,172.394,298.472,174.008,301.582,174.008z M287.74,228.565l-1.742-1.005
	c-4.309-2.486-9.811-1.006-12.293,3.299c-2.483,4.306-1.007,9.81,3.299,12.293l1.742,1.005c1.417,0.817,2.963,1.206,4.488,1.206
	c3.112,0,6.139-1.616,7.805-4.505C293.522,236.553,292.046,231.049,287.74,228.565z"/>
<g>
</g>
<g>
</g>
<g>
</g>
<g>
</g>
<g>
</g>
<g>
</g>
<g>
</g>
<g>
</g>
<g>
</g>
<g>
</g>
<g>
</g>
<g>
</g>
<g>
</g>
<g>
</g>
<g>
</g>
</svg>
