<?xml version="1.0" encoding="iso-8859-1"?>
<!-- Generator: Adobe Illustrator 19.0.0, SVG Export Plug-In . SVG Version: 6.00 Build 0)  -->
<svg version="1.1" id="Capa_1" xmlns="http://www.w3.org/2000/svg" xmlns:xlink="http://www.w3.org/1999/xlink" x="0px" y="0px"
	 viewBox="0 0 445.334 445.334" style="enable-background:new 0 0 445.334 445.334;" xml:space="preserve">
<path id="XMLID_595_" d="M436.334,347.457h-17.708v-55.101c0-4.971-4.029-9-9-9h-22.161v-55.1c0-4.971-4.029-9-9-9h-42.53v-55.101
	c0-4.971-4.029-9-9-9h-15.67v-55.099c0-4.971-4.029-9-9-9h-26.206V35.956c0-4.971-4.029-9-9-9h-6.499
	c0.174-0.697,0.266-1.428,0.266-2.179c0-4.971-4.029-9-9-9h-8.885c-4.971,0-9,4.029-9,9c0,0.751,0.092,1.481,0.266,2.179h-23.078
	c0.174-0.697,0.266-1.428,0.266-2.179c0-4.971-4.029-9-9-9h-8.884c-4.971,0-9,4.029-9,9c0,0.751,0.092,1.481,0.266,2.179h-6.502
	c-4.971,0-9,4.029-9,9v55.102h-26.205c-4.971,0-9,4.029-9,9v55.099h-15.667c-4.971,0-9,4.029-9,9v55.101H66.867
	c-4.971,0-9,4.029-9,9v55.1h-22.16c-4.971,0-9,4.029-9,9v55.101H9c-4.971,0-9,4.029-9,9v64.1c0,4.971,4.029,9,9,9h427.334
	c4.971,0,9-4.029,9-9v-64.1C445.334,351.486,441.305,347.457,436.334,347.457z M400.626,301.356v46.101h-106.64v-46.101H400.626z
	 M369.465,237.257v46.1h-84.479h-22.161v-46.1H369.465z M317.935,173.156v46.101h-64.109h-22.157v-46.101H317.935z M187.273,44.956
	h70.785v46.102h-70.785V44.956z M152.068,109.058h141.196v46.099h-70.597h-70.6V109.058z M127.401,173.156h86.267v46.101h-86.267
	V173.156z M75.867,237.257h168.958v46.1h-84.478h-84.48V237.257z M44.707,301.356h106.641v46.101H44.707V301.356z M213.668,411.557
	H18v-46.1h195.668V411.557z M169.348,347.457v-46.101h106.639v46.101h-53.318H169.348z M427.334,411.557H231.668v-46.1h195.666
	V411.557z"/>
<g>
</g>
<g>
</g>
<g>
</g>
<g>
</g>
<g>
</g>
<g>
</g>
<g>
</g>
<g>
</g>
<g>
</g>
<g>
</g>
<g>
</g>
<g>
</g>
<g>
</g>
<g>
</g>
<g>
</g>
</svg>
