<?xml version="1.0" encoding="iso-8859-1"?>
<!-- Generator: Adobe Illustrator 19.0.0, SVG Export Plug-In . SVG Version: 6.00 Build 0)  -->
<svg version="1.1" id="Capa_1" xmlns="http://www.w3.org/2000/svg" xmlns:xlink="http://www.w3.org/1999/xlink" x="0px" y="0px"
	 viewBox="0 0 463.854 463.854" style="enable-background:new 0 0 463.854 463.854;" xml:space="preserve">
<path id="XMLID_694_" d="M173.606,199.865c-5.739-3.314-12.425-4.195-18.827-2.479c-13.215,3.541-21.087,17.173-17.548,30.392
	c2.97,11.072,13.021,18.391,23.975,18.391c2.119,0,4.274-0.274,6.416-0.848c6.402-1.715,11.754-5.821,15.067-11.562
	s4.193-12.427,2.478-18.826C183.452,208.53,179.347,203.179,173.606,199.865z M167.101,224.76c-0.91,1.576-2.379,2.703-4.138,3.174
	c-3.623,0.97-7.372-1.188-8.345-4.815c-0.972-3.63,1.19-7.374,4.819-8.347c1.758-0.471,3.593-0.229,5.169,0.681
	c1.576,0.91,2.703,2.379,3.174,4.138C168.252,221.348,168.01,223.183,167.101,224.76z M446.73,44.531L446.73,44.531L282.342,0.483
	c-3.616-0.97-7.397-0.469-10.646,1.406c-3.249,1.876-5.571,4.901-6.537,8.514l-77.372,288.75
	c-1.998,7.468,2.451,15.173,9.922,17.178l164.387,44.048c1.212,0.325,2.43,0.479,3.628,0.479c6.193,0,11.877-4.139,13.556-10.4
	l77.371-288.75C458.648,54.239,454.198,46.533,446.73,44.531z M362.92,341.965l-156.717-41.993l35.328-131.845l156.717,41.994
	L362.92,341.965z M402.906,192.734L246.19,150.741l35.328-131.843L438.234,60.89L402.906,192.734z M177.22,377.005
	c2.967,11.073,13.018,18.394,23.976,18.393c2.119,0,4.273-0.274,6.416-0.848c13.212-3.542,21.083-17.174,17.544-30.391
	c-1.717-6.401-5.823-11.751-11.563-15.065c-5.742-3.314-12.429-4.195-18.829-2.479c-6.401,1.715-11.751,5.82-15.065,11.56
	C176.385,363.917,175.504,370.604,177.22,377.005z M195.287,367.177c0.91-1.576,2.379-2.703,4.136-3.173
	c0.001,0,0.002-0.001,0.003-0.001c0.586-0.157,1.181-0.235,1.771-0.235c1.181,0,2.345,0.31,3.395,0.916
	c1.577,0.91,2.706,2.38,3.177,4.136c0.972,3.629-1.19,7.373-4.816,8.345c-3.631,0.973-7.374-1.189-8.346-4.818
	C194.136,370.589,194.377,368.753,195.287,367.177z M276.068,402.147c2.002,7.47-2.448,15.178-9.921,17.181L101.76,463.375
	c-1.211,0.325-2.43,0.479-3.628,0.479c-6.193,0-11.875-4.138-13.554-10.397L7.209,164.709c-0.969-3.612-0.471-7.392,1.404-10.641
	s4.898-5.572,8.514-6.541l164.391-44.047c3.614-0.969,7.394-0.47,10.642,1.406c3.251,1.876,5.574,4.903,6.54,8.521l13.715,51.182
	c1.286,4.801-1.563,9.736-6.364,11.023c-4.794,1.287-9.736-1.563-11.022-6.364l-12.688-47.354L25.623,163.886L60.95,295.731
	l108.642-29.111c4.795-1.284,9.736,1.562,11.022,6.364c1.286,4.801-1.563,9.736-6.364,11.023L65.609,313.117l35.326,131.843
	l156.718-41.992l-13.367-49.889c-1.286-4.801,1.563-9.736,6.364-11.022c4.799-1.287,9.736,1.562,11.022,6.364L276.068,402.147z
	 M335.359,266.472c2.143,0.574,4.296,0.848,6.416,0.848c10.954,0,21.006-7.32,23.974-18.393c3.54-13.214-4.331-26.847-17.545-30.39
	c0,0,0,0-0.001,0c-6.402-1.716-13.089-0.835-18.829,2.479s-9.846,8.666-11.56,15.065c-1.716,6.402-0.836,13.089,2.479,18.83
	C323.607,260.652,328.957,264.757,335.359,266.472z M335.201,240.741c0.471-1.757,1.598-3.226,3.174-4.136
	c1.05-0.606,2.215-0.916,3.396-0.916c0.592,0,1.188,0.078,1.774,0.235c3.628,0.974,5.789,4.717,4.817,8.345
	c-0.972,3.629-4.714,5.789-8.345,4.817c-1.758-0.471-3.227-1.598-4.137-3.174S334.73,242.501,335.201,240.741z M335.791,129.783
	c2.143,0.574,4.296,0.848,6.415,0.848c10.955,0,21.007-7.321,23.975-18.395c3.54-13.213-4.33-26.846-17.545-30.388
	c0,0-0.001,0-0.002-0.001c-6.401-1.714-13.089-0.834-18.828,2.48c-5.74,3.314-9.846,8.665-11.56,15.064
	c-1.716,6.402-0.836,13.089,2.479,18.831C324.039,123.962,329.39,128.068,335.791,129.783z M335.633,104.051
	c0.471-1.757,1.598-3.225,3.173-4.135c1.05-0.606,2.216-0.916,3.396-0.916c0.592,0,1.188,0.078,1.775,0.235
	c3.628,0.974,5.788,4.716,4.816,8.343c-0.972,3.628-4.708,5.79-8.346,4.818c-1.757-0.471-3.226-1.598-4.136-3.174
	C335.403,107.646,335.161,105.81,335.633,104.051z M241.182,279.993c3.313,5.74,8.665,9.845,15.067,11.561
	c2.143,0.574,4.295,0.848,6.414,0.848c10.955,0,21.007-7.321,23.976-18.396c3.539-13.214-4.332-26.846-17.545-30.388
	c-6.402-1.715-13.09-0.835-18.829,2.479c-5.74,3.314-9.847,8.665-11.562,15.066C236.987,267.566,237.868,274.253,241.182,279.993z
	 M256.09,265.823c0.471-1.757,1.598-3.227,3.174-4.136c1.051-0.606,2.215-0.916,3.396-0.916c0.592,0,1.188,0.078,1.774,0.235
	c3.629,0.972,5.79,4.716,4.818,8.343c-0.972,3.628-4.706,5.792-8.345,4.819c-1.758-0.471-3.228-1.599-4.137-3.174
	C255.86,269.417,255.618,267.581,256.09,265.823z M134.481,324.014c-5.738-3.314-12.424-4.194-18.826-2.48
	c-6.402,1.715-11.754,5.821-15.068,11.562c-3.313,5.74-4.194,12.427-2.479,18.828c2.967,11.073,13.019,18.394,23.974,18.394
	c2.12,0,4.273-0.274,6.416-0.848c6.401-1.715,11.752-5.821,15.065-11.561c3.314-5.741,4.194-12.428,2.479-18.827
	C144.328,332.679,140.222,327.329,134.481,324.014z M127.976,348.908c-0.91,1.576-2.379,2.704-4.136,3.174
	c-3.625,0.972-7.372-1.189-8.345-4.818c-0.471-1.757-0.229-3.593,0.681-5.169s2.379-2.704,4.136-3.174c0.001,0,0.001,0,0.002,0
	c0.586-0.157,1.181-0.235,1.772-0.235c1.181,0,2.346,0.31,3.396,0.916c1.576,0.91,2.703,2.378,3.174,4.138
	C129.127,345.497,128.885,347.333,127.976,348.908z M75.668,172.303c0,0-0.001,0-0.002,0.001
	c-13.216,3.542-21.086,17.176-17.544,30.391c1.715,6.401,5.821,11.751,11.562,15.065c3.824,2.208,8.067,3.335,12.367,3.335
	c2.154,0,4.324-0.284,6.461-0.856c6.401-1.714,11.752-5.82,15.066-11.561c3.313-5.74,4.193-12.426,2.479-18.826
	C102.518,176.637,88.885,168.763,75.668,172.303z M87.989,199.678c-0.91,1.576-2.378,2.703-4.136,3.173s-3.594,0.229-5.17-0.681
	c-1.577-0.91-2.704-2.379-3.175-4.136c-0.973-3.629,1.188-7.373,4.817-8.345v0c3.635-0.969,7.372,1.191,8.344,4.82
	C89.141,196.267,88.899,198.102,87.989,199.678z"/>
<g>
</g>
<g>
</g>
<g>
</g>
<g>
</g>
<g>
</g>
<g>
</g>
<g>
</g>
<g>
</g>
<g>
</g>
<g>
</g>
<g>
</g>
<g>
</g>
<g>
</g>
<g>
</g>
<g>
</g>
</svg>
