<?xml version="1.0" encoding="iso-8859-1"?>
<!-- Generator: Adobe Illustrator 19.0.0, SVG Export Plug-In . SVG Version: 6.00 Build 0)  -->
<svg version="1.1" id="Capa_1" xmlns="http://www.w3.org/2000/svg" xmlns:xlink="http://www.w3.org/1999/xlink" x="0px" y="0px"
	 viewBox="0 0 430.559 430.559" style="enable-background:new 0 0 430.559 430.559;" xml:space="preserve">
<path id="XMLID_756_" d="M421.559,0.286H77.087c-4.971,0-9,4.029-9,9v113.748c0,4.971,4.029,9,9,9s9-4.029,9-9V91.18h54.894v29.881
	c0,4.971,4.029,9,9,9s9-4.029,9-9V91.18h180.685v139.551c0,4.971,4.029,9,9,9s9-4.029,9-9V183.91h54.893v74.73h-38.553
	c-4.971,0-9,4.029-9,9s4.029,9,9,9h38.553v68.118h-27.351c-4.971,0-9,4.029-9,9s4.029,9,9,9h36.351c4.971,0,9-4.029,9-9V9.286
	C430.559,4.315,426.529,0.286,421.559,0.286z M140.979,73.18H86.087V18.286h54.892V73.18z M240.322,73.18h-81.343V18.286h81.343
	V73.18z M339.668,73.18h-81.346V18.286h81.346V73.18z M412.559,165.91h-54.893V91.18h54.893V165.91z M412.559,73.18h-54.891V18.286
	h54.891V73.18z M119.784,376.891c4.971,0,9,4.029,9,9s-4.029,9-9,9c-42.682,0-77.406-34.724-77.406-77.405c0-4.971,4.029-9,9-9
	s9,4.029,9,9C60.378,350.243,87.027,376.891,119.784,376.891z M338.307,269.544c-0.416-2.35-1.749-4.439-3.705-5.807
	c-1.956-1.368-4.377-1.903-6.727-1.486l-102.623,18.172c-3.845-10.712-9.356-20.836-16.441-30.105
	c-1.6-2.092-3.271-4.124-5.013-6.093l63.166-30.691l17.263,35.526c2.172,4.47,7.556,6.333,12.028,4.161
	c4.471-2.172,6.334-7.558,4.161-12.028l-21.196-43.621c-2.172-4.47-7.559-6.333-12.028-4.162l-77.304,37.561
	c-9.09-7.293-19.288-13.174-30.151-17.341l16.174-46.917c0.948-2.75,0.508-5.789-1.181-8.158c-1.689-2.369-4.419-3.775-7.328-3.775
	H72.166c-2.909,0-5.639,1.406-7.328,3.775s-2.128,5.408-1.181,8.158l13.898,40.318c-2.76-0.78-5.503-1.64-8.222-2.576
	c-20.32-6.999-38.563-17.886-54.222-32.359c-3.652-3.375-9.345-3.149-12.718,0.5c-3.374,3.65-3.149,9.345,0.5,12.718
	c16.23,15.001,34.937,26.553,55.667,34.386c-15.913-1.611-31.333-5.652-45.949-12.049c-4.553-1.993-9.86,0.083-11.854,4.636
	c-1.993,4.554,0.083,9.861,4.636,11.854c12.405,5.43,25.323,9.34,38.614,11.697c-4.821,4.42-9.265,9.266-13.25,14.479
	c-15.027,19.657-22.97,43.156-22.97,67.958c0,61.755,50.242,111.997,111.998,111.997c3.224,0,6.499-0.141,9.736-0.419
	c4.952-0.426,8.622-4.785,8.196-9.738c-0.425-4.952-4.777-8.62-9.738-8.196c-2.726,0.234-5.482,0.353-8.194,0.353
	c-51.831,0-93.998-42.167-93.998-93.997c0-40.943,26.957-77.505,65.83-89.702c18.559,3.046,37.551,3.045,56.111-0.07
	c38.994,12.126,66.052,48.75,66.052,89.772c0,2.179-0.075,4.376-0.223,6.53c-0.34,4.959,3.404,9.255,8.363,9.596
	c4.967,0.344,9.254-3.403,9.595-8.362c0.177-2.563,0.266-5.175,0.266-7.764c0-6.921-0.618-13.74-1.837-20.403l92.209-16.328
	l16.27,91.887l-40.869,7.237c-4.895,0.867-8.159,5.537-7.293,10.432c0.866,4.895,5.548,8.158,10.432,7.293l49.731-8.807
	c4.895-0.867,8.159-5.537,7.293-10.432L338.307,269.544z M141.514,211.259c-14.39,2.096-29.032,2.114-43.43,0.094l-13.297-38.572
	h69.992L141.514,211.259z M233.811,346.514c-8.63,0-16.822,2.572-23.743,7.361c-6.742-4.642-14.903-7.361-23.689-7.361
	c-23.093,0-41.881,18.786-41.881,41.878c0,10.368,3.817,20.317,10.749,28.015c7.935,8.812,19.282,13.866,31.132,13.866
	c8.786,0,16.948-2.72,23.69-7.362c6.92,4.789,15.114,7.362,23.743,7.362c23.092,0,41.878-18.788,41.878-41.881
	C275.689,365.3,256.903,346.514,233.811,346.514z M210.255,388.319c0,0.003,0,0.006,0,0.01c0,0.009,0,0.018,0,0.027
	c0,0.007,0,0.013,0,0.021c0,0.006,0,0.011,0,0.016c0,13.168-10.711,23.881-23.877,23.881c-6.757,0-13.229-2.883-17.756-7.911
	c-3.95-4.386-6.125-10.058-6.125-15.97c0-13.167,10.713-23.878,23.881-23.878c12.986,0,23.583,10.42,23.871,23.339c0,0,0,0,0,0.001
	c0,0.011,0,0.022,0,0.034c0,0.006,0,0.012,0,0.018c0,0.006,0,0.013,0,0.019c0,0.008,0,0.016,0,0.023c0,0.004,0,0.009,0,0.013
	c0,0.009,0,0.018,0,0.026c0,0.003,0,0.007,0,0.01c0,0.009,0,0.019,0,0.027c0,0.003,0,0.005,0,0.009c0,0.009,0,0.019,0,0.028
	c0,0.002,0,0.007,0,0.009c0,0.009,0,0.02,0,0.029c0,0.001,0,0.005,0,0.006c0,0.01,0,0.021,0,0.031c0,0.001,0,0.004,0,0.006
	c0,0.01,0,0.021,0,0.031c0,0.002,0,0.004,0,0.005c0,0.01,0,0.021,0,0.031c0,0.002,0,0.005,0,0.007c0,0.01,0,0.02,0,0.03
	c0,0.001,0,0.004,0,0.006c0,0.01,0,0.021,0,0.031c0,0.002,0,0.005,0,0.007C210.255,388.299,210.255,388.309,210.255,388.319z
	 M233.811,412.273c-3.995,0-7.826-0.968-11.239-2.794c3.666-6.275,5.642-13.426,5.683-20.848c0-0.013,0-0.025,0-0.037
	c0.001-0.008,0.001-0.016,0.001-0.024c0-0.014,0-0.03,0-0.043c0-0.006,0-0.012,0-0.018c0-0.017,0-0.033,0-0.05
	c0-0.003,0-0.006,0-0.009c0-0.019,0-0.038,0-0.057c0,0,0,0,0-0.001c0,0,0,0,0-0.001c0-0.021,0-0.041,0-0.062v-0.001
	c0-0.021,0-0.041,0-0.062c0-0.001,0-0.001,0-0.002c0-0.021,0-0.042,0-0.063c-0.001-0.021-0.001-0.042-0.001-0.063v0
	c0-0.042,0-0.084-0.001-0.126v-0.001c0-0.021,0-0.042,0-0.063v-0.001c-0.001-0.021-0.001-0.041-0.001-0.062c0,0,0-0.002,0-0.002
	c0-0.019-0.001-0.039-0.001-0.058c0-0.002,0-0.005,0-0.007c0-0.017,0-0.034-0.001-0.05c0-0.005,0-0.012,0-0.017
	c0-0.014,0-0.029-0.001-0.043c0-0.01,0-0.02,0-0.03c0-0.011,0-0.019-0.001-0.03c-0.126-7.241-2.094-14.208-5.676-20.34
	c3.412-1.826,7.243-2.793,11.238-2.793c13.166,0,23.878,10.711,23.878,23.878C257.689,401.559,246.977,412.273,233.811,412.273z"/>
<g>
</g>
<g>
</g>
<g>
</g>
<g>
</g>
<g>
</g>
<g>
</g>
<g>
</g>
<g>
</g>
<g>
</g>
<g>
</g>
<g>
</g>
<g>
</g>
<g>
</g>
<g>
</g>
<g>
</g>
</svg>
