<?xml version="1.0" encoding="iso-8859-1"?>
<!-- Generator: Adobe Illustrator 19.0.0, SVG Export Plug-In . SVG Version: 6.00 Build 0)  -->
<svg version="1.1" id="Capa_1" xmlns="http://www.w3.org/2000/svg" xmlns:xlink="http://www.w3.org/1999/xlink" x="0px" y="0px"
	 viewBox="0 0 446.142 446.142" style="enable-background:new 0 0 446.142 446.142;" xml:space="preserve">
<path id="XMLID_302_" d="M441.642,174.078l-66.857-38.6V58.275c0-3.215-1.715-6.187-4.5-7.794L298.927,9.284
	c-2.785-1.609-6.215-1.607-9,0L223.07,47.883L156.214,9.284c-2.785-1.609-6.216-1.607-9,0L75.856,50.481
	c-2.785,1.607-4.5,4.578-4.5,7.794v77.204L4.5,174.078c-2.785,1.607-4.5,4.578-4.5,7.794v82.399c0,3.216,1.715,6.187,4.5,7.794
	l66.855,38.598v77.204c0,3.216,1.715,6.187,4.5,7.794l71.358,41.197c2.785,1.609,6.216,1.607,9,0l66.856-38.599l66.857,38.599
	c1.393,0.805,2.946,1.206,4.5,1.206s3.107-0.402,4.5-1.206l71.357-41.197c2.785-1.607,4.5-4.579,4.5-7.794v-77.203l66.857-38.599
	c2.784-1.607,4.5-4.578,4.5-7.794v-82.399C446.142,178.656,444.426,175.685,441.642,174.078z M232.071,63.471l62.356-36.001
	l62.357,36.001v72.007l-62.357,36.001l-62.356-36.001V63.471z M89.356,63.471l62.358-36.001l62.356,36.001v72.007l-62.356,36.001
	l-62.358-36.001V63.471z M18,259.075v-72.007l62.356-36.001l62.358,36.001v72.007l-62.358,36L18,259.075z M214.07,382.671
	l-62.356,36.001l-62.358-36.001v-72.007l62.358-36.001l62.356,36.001V382.671z M160.714,259.075v-72.007l62.356-36.001
	l62.357,36.001v72.007l-62.357,36L160.714,259.075z M356.785,382.671l-62.357,36.001l-62.356-36.001v-72.007l62.356-36l62.357,36
	V382.671z M428.142,259.075l-62.357,36l-62.357-36v-72.007l62.357-36.001l62.357,36.001V259.075z M223.07,190.258
	c-18.093,0-32.813,14.72-32.813,32.813c0,8.122,2.991,15.918,8.422,21.95c6.215,6.903,15.105,10.863,24.39,10.863
	c18.093,0,32.814-14.72,32.814-32.813S241.164,190.258,223.07,190.258z M223.07,237.885c-4.191,0-8.206-1.788-11.013-4.907
	c-2.45-2.721-3.8-6.239-3.8-9.906c0-8.168,6.645-14.813,14.813-14.813c8.168,0,14.814,6.646,14.814,14.813
	S231.239,237.885,223.07,237.885z M118.9,346.668c0,8.121,2.992,15.917,8.424,21.95c6.215,6.904,15.105,10.863,24.39,10.863
	c18.093,0,32.813-14.72,32.813-32.813s-14.72-32.813-32.813-32.813C133.621,313.854,118.9,328.574,118.9,346.668z M166.527,346.668
	c0,8.168-6.645,14.813-14.813,14.813c-4.191,0-8.205-1.788-11.013-4.907c-2.451-2.722-3.801-6.24-3.801-9.906
	c0-8.168,6.646-14.813,14.814-14.813C159.882,331.854,166.527,338.5,166.527,346.668z M184.527,99.474
	c0-18.094-14.72-32.813-32.813-32.813c-18.094,0-32.814,14.72-32.814,32.813c0,8.121,2.992,15.917,8.424,21.95
	c6.215,6.904,15.105,10.863,24.39,10.863C169.807,132.288,184.527,117.568,184.527,99.474z M136.9,99.474
	c0-8.168,6.646-14.813,14.814-14.813c8.167,0,14.813,6.646,14.813,14.813s-6.645,14.813-14.813,14.813
	c-4.191,0-8.205-1.788-11.013-4.907C138.25,106.659,136.9,103.14,136.9,99.474z"/>
<g>
</g>
<g>
</g>
<g>
</g>
<g>
</g>
<g>
</g>
<g>
</g>
<g>
</g>
<g>
</g>
<g>
</g>
<g>
</g>
<g>
</g>
<g>
</g>
<g>
</g>
<g>
</g>
<g>
</g>
</svg>
