<?xml version="1.0" encoding="iso-8859-1"?>
<!-- Generator: Adobe Illustrator 19.0.0, SVG Export Plug-In . SVG Version: 6.00 Build 0)  -->
<svg version="1.1" id="Capa_1" xmlns="http://www.w3.org/2000/svg" xmlns:xlink="http://www.w3.org/1999/xlink" x="0px" y="0px"
	 viewBox="0 0 449.1 449.1" style="enable-background:new 0 0 449.1 449.1;" xml:space="preserve">
<path id="XMLID_1208_" d="M106.999,378.491h126.152c4.971,0,9-4.029,9-9s-4.029-9-9-9H115.999v-68.248
	c0-37.632,30.616-68.248,68.248-68.248h27.767c37.633,0,68.25,30.616,68.25,68.248V304.1c0,4.971,4.029,9,9,9s9-4.029,9-9v-11.856
	c0-33.793-19.536-63.109-47.907-77.248c28.371-14.139,47.907-43.455,47.907-77.248c0,0,0.001-24.301,0-24.387V68.317
	c14.811-3.977,25.747-17.52,25.747-33.569C324.011,15.588,308.423,0,289.264,0H106.999C87.838,0,72.25,15.589,72.25,34.75
	c0,16.05,10.937,29.593,25.749,33.567v69.43c0,33.793,19.536,63.109,47.906,77.248c-28.37,14.139-47.906,43.455-47.906,77.248v69.43
	C83.187,365.647,72.25,379.19,72.25,395.24c0,19.161,15.588,34.749,34.749,34.749h126.152c4.971,0,9-4.029,9-9s-4.029-9-9-9H106.999
	c-9.235,0-16.749-7.514-16.749-16.75C90.25,386.004,97.764,378.491,106.999,378.491z M280.264,105.38
	c-40.896,3.744-123.284,3.739-164.265-0.002V69.499h164.265V105.38z M90.25,34.748C90.25,25.513,97.764,18,106.999,18h182.265
	c9.234,0,16.747,7.514,16.747,16.75c0,9.235-7.513,16.749-16.747,16.749H106.999C97.764,51.499,90.25,43.984,90.25,34.748z
	 M115.999,137.747V123.45c42.369,3.688,121.974,3.692,164.265,0.002v14.295c0,37.632-30.617,68.248-68.25,68.248h-27.767
	C146.615,205.995,115.999,175.379,115.999,137.747z M207.13,249.212c0,4.971-4.029,9-9,9s-9-4.029-9-9v-2.011c0-4.971,4.029-9,9-9
	s9,4.029,9,9V249.212z M199.966,178.497c0-4.971,4.029-9,9-9c12.246,0,23.866-7.131,31.083-19.073
	c2.571-4.255,8.103-5.62,12.358-3.049c4.254,2.571,5.618,8.104,3.048,12.358c-10.506,17.385-27.885,27.764-46.489,27.764
	C203.995,187.497,199.966,183.468,199.966,178.497z M207.13,293.283v2.012c0,4.971-4.029,9-9,9s-9-4.029-9-9v-2.012
	c0-4.971,4.029-9,9-9S207.13,288.313,207.13,293.283z M310.621,404.86c0,4.971-4.029,9-9,9h-1.98c-4.971,0-9-4.029-9-9s4.029-9,9-9
	h1.98C306.592,395.86,310.621,399.89,310.621,404.86z M342.062,372.345c0,4.971-4.029,9-9,9h-1.98c-4.971,0-9-4.029-9-9s4.029-9,9-9
	h1.98C338.032,363.345,342.062,367.374,342.062,372.345z M357.79,328.105h-82.88c-10.509,0-19.058,8.549-19.058,19.057v82.882
	c0,10.507,8.549,19.056,19.058,19.056h82.88c10.51,0,19.06-8.549,19.06-19.056v-82.882C376.85,336.654,368.3,328.105,357.79,328.105
	z M358.85,430.044c0,0.563-0.495,1.056-1.06,1.056h-82.88c-0.563,0-1.058-0.493-1.058-1.056v-82.882
	c0-0.563,0.494-1.057,1.058-1.057h82.88c0.564,0,1.06,0.494,1.06,1.057V430.044z M342.061,404.86c0,4.971-4.029,9-9,9h-1.981
	c-4.971,0-9-4.029-9-9s4.029-9,9-9h1.981C338.031,395.86,342.061,399.89,342.061,404.86z M245.93,269.491v2.012c0,4.971-4.029,9-9,9
	s-9-4.029-9-9v-2.012c0-4.971,4.029-9,9-9S245.93,264.521,245.93,269.491z M310.623,372.345c0,4.971-4.029,9-9,9h-1.982
	c-4.971,0-9-4.029-9-9s4.029-9,9-9h1.982C306.594,363.345,310.623,367.374,310.623,372.345z M159.331,260.491c4.971,0,9,4.029,9,9
	v2.012c0,4.971-4.029,9-9,9s-9-4.029-9-9v-2.012C150.331,264.521,154.36,260.491,159.331,260.491z"/>
<g>
</g>
<g>
</g>
<g>
</g>
<g>
</g>
<g>
</g>
<g>
</g>
<g>
</g>
<g>
</g>
<g>
</g>
<g>
</g>
<g>
</g>
<g>
</g>
<g>
</g>
<g>
</g>
<g>
</g>
</svg>
