<?xml version="1.0" encoding="iso-8859-1"?>
<!-- Generator: Adobe Illustrator 19.0.0, SVG Export Plug-In . SVG Version: 6.00 Build 0)  -->
<svg version="1.1" id="Capa_1" xmlns="http://www.w3.org/2000/svg" xmlns:xlink="http://www.w3.org/1999/xlink" x="0px" y="0px"
	 viewBox="0 0 430.012 430.012" style="enable-background:new 0 0 430.012 430.012;" xml:space="preserve">
<path id="XMLID_105_" d="M314.16,112.142h12.803c4.971,0,9,4.029,9,9v14.188c0,4.971-4.029,9-9,9H314.16c-4.971,0-9-4.029-9-9
	v-14.188C305.16,116.171,309.19,112.142,314.16,112.142z M155.829,63.893c-4.971,0-9,4.029-9,9v14.187c0,4.971,4.029,9,9,9h12.802
	c4.971,0,9-4.029,9-9V72.893c0-4.971-4.029-9-9-9H155.829z M103.051,112.142c-4.971,0-9,4.029-9,9v14.188c0,4.971,4.029,9,9,9
	h12.802c4.971,0,9-4.029,9-9v-14.188c0-4.971-4.029-9-9-9H103.051z M9.014,157.593c4.971,0,9-4.029,9-9V44.083h185.498
	c4.971,0,9-4.029,9-9s-4.029-9-9-9H9.014c-4.971,0-9,4.029-9,9v113.51C0.014,153.563,4.043,157.593,9.014,157.593z M283.184,121.142
	c0-4.971-4.029-9-9-9h-12.801c-4.971,0-9,4.029-9,9v14.188c0,4.971,4.029,9,9,9h12.801c4.971,0,9-4.029,9-9V121.142z
	 M274.184,160.391h-12.801c-4.971,0-9,4.029-9,9v14.188c0,4.971,4.029,9,9,9h12.801c4.971,0,9-4.029,9-9v-14.188
	C283.184,164.42,279.154,160.391,274.184,160.391z M226.963,48.04c0-14.444,1.834-48.04,18.822-48.04h43.997
	c16.989,0,18.823,33.596,18.823,48.04s-1.834,48.039-18.823,48.039h-43.997C228.797,96.079,226.963,62.484,226.963,48.04z
	 M244.963,48.04c0,15.261,2.311,25.872,4.053,30.039h37.536c1.742-4.167,4.054-14.778,4.054-30.039
	c0-15.263-2.312-25.874-4.054-30.04h-37.536C247.274,22.167,244.963,32.778,244.963,48.04z M199.607,121.142v14.188
	c0,4.971,4.029,9,9,9h12.802c4.971,0,9-4.029,9-9v-14.188c0-4.971-4.029-9-9-9h-12.802
	C203.636,112.142,199.607,116.171,199.607,121.142z M221.408,160.391h-12.802c-4.971,0-9,4.029-9,9v14.188c0,4.971,4.029,9,9,9
	h12.802c4.971,0,9-4.029,9-9v-14.188C230.408,164.42,226.379,160.391,221.408,160.391z M72.077,72.893c0-4.971-4.029-9-9-9H50.275
	c-4.971,0-9,4.029-9,9v14.187c0,4.971,4.029,9,9,9h12.803c4.971,0,9-4.029,9-9V72.893z M421,26.083h-87.963c-4.971,0-9,4.029-9,9
	s4.029,9,9,9H412v168.304H213.392c-4.971,0-9,4.029-9,9s4.029,9,9,9H421c4.971,0,9-4.029,9-9V35.083
	C430,30.112,425.971,26.083,421,26.083z M366.937,96.079h12.803c4.971,0,9-4.029,9-9V72.893c0-4.971-4.029-9-9-9h-12.803
	c-4.971,0-9,4.029-9,9v14.187C357.937,92.05,361.966,96.079,366.937,96.079z M276.674,347.191c-3.943,0-7.856,0.141-11.633,0.417
	c-4.957,0.362-8.682,4.676-8.318,9.633c0.363,4.958,4.681,8.69,9.633,8.318c3.34-0.244,6.812-0.368,10.318-0.368
	c15.261,0,25.871,2.311,30.038,4.053v37.536c-4.167,1.742-14.777,4.053-30.038,4.053c-3.502,0-6.973-0.125-10.315-0.37
	c-4.956-0.354-9.271,3.358-9.636,8.316c-0.364,4.957,3.358,9.271,8.316,9.635c3.78,0.278,7.695,0.419,11.635,0.419
	c14.443,0,48.038-1.834,48.038-18.822v-43.997C324.712,349.025,291.117,347.191,276.674,347.191z M357.937,183.578
	c0,4.971,4.029,9,9,9h12.803c4.971,0,9-4.029,9-9v-14.188c0-4.971-4.029-9-9-9h-12.803c-4.971,0-9,4.029-9,9V183.578z
	 M155.029,412.056c1.667,4.683-0.777,9.83-5.46,11.497c-12.039,4.286-24.676,6.459-37.56,6.459
	c-61.755,0-111.996-50.241-111.996-111.997c0-24.802,7.942-48.302,22.969-67.958c3.988-5.216,8.432-10.061,13.255-14.482
	c-10.378-1.842-20.542-4.631-30.398-8.347c-4.651-1.754-7-6.946-5.246-11.597c1.753-4.651,6.945-6.999,11.596-5.246
	c12.4,4.675,25.35,7.71,38.6,9.055c-17.257-6.525-33.197-15.682-47.449-27.261c-3.858-3.135-4.444-8.803-1.311-12.66
	c3.137-3.859,8.806-4.442,12.66-1.311c13.953,11.336,29.723,20.079,46.87,25.985c2.225,0.767,4.463,1.48,6.716,2.142l-12.151-28.258
	c-1.196-2.781-0.914-5.978,0.751-8.506s4.489-4.05,7.517-4.05h95.238c3.027,0,5.852,1.521,7.517,4.05s1.947,5.725,0.751,8.505
	l-15.281,35.541c39.341,15.344,67.39,52.297,70.988,94.841c0.419,4.953-3.256,9.308-8.209,9.727
	c-4.947,0.443-9.308-3.256-9.727-8.209c-3.204-37.875-29.506-70.47-65.714-81.732c-18.557,3.115-37.552,3.114-56.11,0.069
	c-38.872,12.196-65.83,48.759-65.83,89.702c0,51.83,42.166,93.997,93.996,93.997c10.821,0,21.427-1.822,31.522-5.416
	C148.216,404.926,153.362,407.373,155.029,412.056z M78.058,183.521l11.83,27.511c14.68,2.104,29.617,2.084,44.287-0.098
	l11.787-27.413H78.058z M63.077,112.142H50.275c-4.971,0-9,4.029-9,9v14.188c0,4.971,4.029,9,9,9h12.803c4.971,0,9-4.029,9-9
	v-14.188C72.077,116.171,68.048,112.142,63.077,112.142z M52.606,317.225c0-4.971-4.029-9-9-9s-9,4.029-9,9
	c0,42.682,34.724,77.406,77.404,77.406c4.971,0,9-4.029,9-9s-4.029-9-9-9C79.254,376.631,52.606,349.981,52.606,317.225z
	 M248.538,381.972c0,14.444-1.834,48.04-18.823,48.04h-43.997c-16.988,0-18.822-33.596-18.822-48.04s1.834-48.04,18.822-48.04
	h43.997C246.704,333.932,248.538,367.527,248.538,381.972z M230.538,381.972c0-15.262-2.312-25.873-4.054-30.04h-37.536
	c-1.742,4.167-4.053,14.778-4.053,30.04s2.311,25.873,4.053,30.04h37.536C228.227,407.845,230.538,397.233,230.538,381.972z"/>
<g>
</g>
<g>
</g>
<g>
</g>
<g>
</g>
<g>
</g>
<g>
</g>
<g>
</g>
<g>
</g>
<g>
</g>
<g>
</g>
<g>
</g>
<g>
</g>
<g>
</g>
<g>
</g>
<g>
</g>
</svg>
