<?xml version="1.0" encoding="iso-8859-1"?>
<!-- Generator: Adobe Illustrator 19.0.0, SVG Export Plug-In . SVG Version: 6.00 Build 0)  -->
<svg version="1.1" id="Capa_1" xmlns="http://www.w3.org/2000/svg" xmlns:xlink="http://www.w3.org/1999/xlink" x="0px" y="0px"
	 viewBox="0 0 446.085 446.085" style="enable-background:new 0 0 446.085 446.085;" xml:space="preserve">
<path id="XMLID_8_" d="M52.457,13.39c-2.424-4.34-0.871-9.822,3.469-12.246c4.34-2.425,9.822-0.87,12.246,3.469l16.696,29.897
	c2.423,4.34,0.87,9.822-3.47,12.246c-1.389,0.775-2.895,1.144-4.38,1.144c-3.156,0-6.218-1.662-7.866-4.613L52.457,13.39z
	 M88.263,105.345c-4.786-1.355-9.758,1.423-11.113,6.206l-6.539,23.077c-1.355,4.782,1.423,9.758,6.206,11.113
	c0.82,0.232,1.646,0.343,2.458,0.343c3.924,0,7.532-2.587,8.655-6.549l6.539-23.077C95.824,111.676,93.046,106.7,88.263,105.345z
	 M32.061,65.596l23.074,6.538c0.82,0.232,1.646,0.343,2.458,0.343c3.924,0,7.532-2.587,8.655-6.549
	c1.355-4.783-1.423-9.758-6.206-11.113l-23.074-6.538c-4.779-1.354-9.757,1.423-11.112,6.206
	C24.501,59.266,27.279,64.241,32.061,65.596z M90.974,82.362c1.648,2.951,4.71,4.613,7.866,4.613c1.485,0,2.991-0.368,4.38-1.144
	c4.339-2.423,5.893-7.906,3.469-12.246l-3.734-6.686c-2.423-4.339-7.906-5.893-12.246-3.469c-4.34,2.423-5.893,7.906-3.469,12.246
	L90.974,82.362z M161.868,83.665l-23.076-6.539c-4.779-1.354-9.758,1.423-11.113,6.206c-1.355,4.782,1.423,9.757,6.206,11.113
	l23.076,6.539c0.82,0.232,1.646,0.343,2.458,0.343c3.924,0,7.532-2.587,8.655-6.549C169.429,89.996,166.65,85.02,161.868,83.665z
	 M69.092,90.196c-2.423-4.339-7.906-5.893-12.246-3.47l-29.898,16.695c-4.34,2.423-5.893,7.906-3.47,12.246
	c1.648,2.951,4.71,4.613,7.866,4.613c1.485,0,2.991-0.368,4.38-1.144l29.897-16.695C69.962,100.019,71.516,94.536,69.092,90.196z
	 M105.667,43.915c0.82,0.232,1.646,0.343,2.458,0.343c3.924,0,7.532-2.587,8.655-6.549l6.539-23.077
	c1.355-4.782-1.423-9.758-6.206-11.113c-4.785-1.356-9.757,1.424-11.113,6.206l-6.539,23.077
	C98.106,37.584,100.884,42.56,105.667,43.915z M132.702,63.678c1.485,0,2.991-0.368,4.38-1.144l29.897-16.696
	c4.34-2.423,5.893-7.906,3.47-12.246c-2.423-4.339-7.906-5.893-12.246-3.47l-29.897,16.696c-4.34,2.423-5.893,7.906-3.47,12.246
	C126.484,62.016,129.546,63.678,132.702,63.678z M363.689,193.362c0,4.971,4.029,9,9,9s9-4.029,9-9
	c0-81.157-66.025-147.183-147.182-147.183c-4.971,0-9,4.029-9,9s4.029,9,9,9C305.738,64.18,363.689,122.131,363.689,193.362z
	 M261.262,125.116c4.971,0,9-4.029,9-9s-4.029-9-9-9h-2.012c-4.971,0-9,4.029-9,9s4.029,9,9,9H261.262z M252.673,416.105H107.57
	c-5.875,0-10.654-4.779-10.654-10.654c0-5.875,4.78-10.656,10.654-10.656h33.69c4.971,0,9-4.029,9-9s-4.029-9-9-9
	c-5.875,0-10.655-4.779-10.655-10.654c0-5.525,4.228-10.082,9.618-10.604c0.06-0.005,0.119-0.01,0.178-0.016
	c0.284-0.022,0.57-0.034,0.859-0.034h69.37c4.971,0,9-4.029,9-9s-4.029-9-9-9h-68.622c-49.364-31.716-78.746-85.39-78.746-144.125
	c0-8.311,0.601-16.666,1.786-24.833c0.713-4.919-2.695-9.485-7.615-10.199c-4.918-0.71-9.485,2.695-10.199,7.615
	c-1.309,9.02-1.972,18.245-1.972,27.417c0,32.767,8.512,65.058,24.615,93.382c12.991,22.85,30.715,42.842,51.773,58.522
	c-5.564,5.23-9.044,12.654-9.044,20.875c0,3.763,0.729,7.359,2.054,10.654h-7.089c-15.8,0-28.654,12.855-28.654,28.656
	c0,15.8,12.854,28.654,28.654,28.654h145.103c4.971,0,9-4.029,9-9S257.644,416.105,252.673,416.105z M399.135,286.745
	c16.103-28.325,24.615-60.616,24.615-93.382c0-104.349-84.894-189.244-189.243-189.244c-14.701,0-29.348,1.693-43.535,5.033
	c-4.838,1.139-7.837,5.984-6.699,10.823c1.139,4.838,5.985,7.835,10.823,6.699c12.837-3.022,26.097-4.554,39.411-4.554
	c94.423,0,171.243,76.819,171.243,171.244c0,58.731-29.385,112.407-78.743,144.125h-37.6c-4.971,0-9,4.029-9,9s4.029,9,9,9h38.345
	c0.269,0,0.535,0.01,0.799,0.03c0.099,0.01,0.199,0.019,0.299,0.026c5.362,0.551,9.558,5.094,9.558,10.599
	c0,5.875-4.78,10.654-10.655,10.654c-4.971,0-9,4.029-9,9s4.029,9,9,9h33.691c5.875,0,10.653,4.78,10.653,10.656
	c0,5.875-4.779,10.654-10.653,10.654h-28.422c-4.971,0-9,4.029-9,9s4.029,9,9,9h28.422c15.799,0,28.653-12.854,28.653-28.654
	c0-15.801-12.854-28.656-28.653-28.656h-7.09c1.324-3.295,2.054-6.891,2.054-10.654c0-8.221-3.479-15.645-9.044-20.875
	C368.421,329.587,386.144,309.595,399.135,286.745z M260.255,218.712h2.013c4.971,0,9-4.029,9-9s-4.029-9-9-9h-2.013
	c-4.971,0-9,4.029-9,9S255.284,218.712,260.255,218.712z M128.441,110.221c-2.423-4.34-7.907-5.893-12.246-3.47
	c-4.34,2.424-5.893,7.906-3.47,12.246l180.087,322.475c1.648,2.951,4.71,4.613,7.866,4.613c1.485,0,2.991-0.368,4.38-1.144
	c4.34-2.424,5.893-7.906,3.47-12.246L128.441,110.221z M312.761,270.21h2.009c4.971,0,9-4.029,9-9s-4.029-9-9-9h-2.009
	c-4.971,0-9,4.029-9,9S307.79,270.21,312.761,270.21z M313.764,176.614c4.971,0,9-4.029,9-9s-4.029-9-9-9h-2.01
	c-4.971,0-9,4.029-9,9s4.029,9,9,9H313.764z"/>
<g>
</g>
<g>
</g>
<g>
</g>
<g>
</g>
<g>
</g>
<g>
</g>
<g>
</g>
<g>
</g>
<g>
</g>
<g>
</g>
<g>
</g>
<g>
</g>
<g>
</g>
<g>
</g>
<g>
</g>
</svg>
