<?xml version="1.0" encoding="iso-8859-1"?>
<!-- Generator: Adobe Illustrator 19.0.0, SVG Export Plug-In . SVG Version: 6.00 Build 0)  -->
<svg version="1.1" id="Capa_1" xmlns="http://www.w3.org/2000/svg" xmlns:xlink="http://www.w3.org/1999/xlink" x="0px" y="0px"
	 viewBox="0 0 429.988 429.988" style="enable-background:new 0 0 429.988 429.988;" xml:space="preserve">
<path id="XMLID_483_" d="M65.755,107.95c0,7.91,3.513,15.329,9.637,20.355c2.083,1.71,3.291,4.262,3.291,6.957
	c0,2.694-1.207,5.247-3.29,6.957c-6.125,5.027-9.638,12.446-9.638,20.354c0,8.62,4.236,16.708,11.331,21.634
	c2.423,1.682,3.868,4.443,3.868,7.393s-1.445,5.711-3.868,7.393c-7.095,4.927-11.331,13.013-11.331,21.633
	c0,10.864,6.822,20.754,16.977,24.608c4.647,1.764,6.984,6.961,5.22,11.608c-1.365,3.596-4.785,5.808-8.416,5.808
	c-1.062,0-2.141-0.188-3.193-0.588c-17.099-6.491-28.588-23.144-28.588-41.437c0-10.775,3.927-21.054,10.834-29.025
	c-6.907-7.972-10.834-18.251-10.834-29.026c0-10.029,3.352-19.589,9.409-27.312c-6.057-7.722-9.409-17.282-9.409-27.313
	c0-18.291,11.488-34.943,28.587-41.436c4.648-1.764,9.845,0.572,11.609,5.22c1.764,4.646-0.573,9.844-5.219,11.608
	C72.577,87.198,65.755,97.087,65.755,107.95z M347.375,347.438c-4.647,1.765-6.984,6.962-5.22,11.608
	c1.365,3.596,4.785,5.808,8.416,5.808c1.062,0,2.142-0.188,3.193-0.588c17.099-6.491,28.587-23.144,28.587-41.437
	c0-10.775-3.927-21.054-10.834-29.025c6.908-7.972,10.834-18.25,10.834-29.026c0-10.029-3.352-19.589-9.408-27.312
	c6.056-7.722,9.408-17.282,9.408-27.313c0-18.291-11.488-34.942-28.586-41.436c-4.643-1.765-9.844,0.572-11.608,5.219
	c-1.765,4.647,0.572,9.845,5.219,11.609c10.154,3.855,16.976,13.744,16.976,24.607c0,7.91-3.512,15.33-9.637,20.355
	c-2.083,1.709-3.291,4.262-3.291,6.957c0,2.694,1.208,5.247,3.29,6.957c6.125,5.026,9.637,12.445,9.637,20.354
	c0,8.621-4.236,16.708-11.331,21.633c-2.422,1.682-3.868,4.444-3.868,7.394s1.445,5.712,3.868,7.394
	c7.095,4.925,11.331,13.012,11.331,21.632C364.35,333.693,357.528,343.583,347.375,347.438z M74.551,308.991H18.983V18h187.994
	v9.493c0,4.971,4.029,9,9,9s9-4.029,9-9V14.029C224.977,6.294,218.684,0,210.948,0H15.012C7.276,0,0.983,6.294,0.983,14.029v298.933
	c0,7.735,6.293,14.029,14.029,14.029h59.539c4.971,0,9-4.029,9-9S79.522,308.991,74.551,308.991z M414.975,102.997h-61.82
	c-4.971,0-9,4.029-9,9s4.029,9,9,9h57.85v290.991H223.011v-8.394c0-4.971-4.029-9-9-9s-9,4.029-9,9v12.363
	c0,7.736,6.294,14.03,14.03,14.03h195.934c7.736,0,14.03-6.294,14.03-14.03V117.025C429.005,109.29,422.711,102.997,414.975,102.997
	z M153.513,230.203v-78.581c0-4.183,2.882-7.814,6.956-8.765l44.542-10.39v-13.222c0-4.971,4.029-9,9-9s9,4.029,9,9v9.023
	l40.455-9.436c2.677-0.626,5.488,0.007,7.639,1.715c2.151,1.707,3.405,4.304,3.405,7.05v78.581c0,4.183-2.882,7.814-6.956,8.765
	l-44.543,10.39v85.407c0,4.971-4.029,9-9,9s-9-4.029-9-9v-81.209l-40.454,9.436c-2.676,0.625-5.488-0.008-7.639-1.715
	C154.767,235.546,153.513,232.949,153.513,230.203z M223.011,206.851l33.499-7.813v-60.098l-33.499,7.813V206.851z M171.513,218.862
	l33.498-7.813v-60.098l-33.498,7.813V218.862z M311.979,378.489H116.042c-7.735,0-14.028-6.294-14.028-14.029V65.527
	c0-7.735,6.293-14.029,14.028-14.029h195.937c7.735,0,14.028,6.294,14.028,14.029V364.46
	C326.007,372.195,319.714,378.489,311.979,378.489z M308.007,69.498H120.015v290.991h187.992V69.498z"/>
<g>
</g>
<g>
</g>
<g>
</g>
<g>
</g>
<g>
</g>
<g>
</g>
<g>
</g>
<g>
</g>
<g>
</g>
<g>
</g>
<g>
</g>
<g>
</g>
<g>
</g>
<g>
</g>
<g>
</g>
</svg>
