<?xml version="1.0" encoding="iso-8859-1"?>
<!-- Generator: Adobe Illustrator 19.0.0, SVG Export Plug-In . SVG Version: 6.00 Build 0)  -->
<svg version="1.1" id="Capa_1" xmlns="http://www.w3.org/2000/svg" xmlns:xlink="http://www.w3.org/1999/xlink" x="0px" y="0px"
	 viewBox="0 0 429.986 429.986" style="enable-background:new 0 0 429.986 429.986;" xml:space="preserve">
<path id="XMLID_225_" d="M398.834,420.986c0,4.971-4.029,9-9,9h-2.012c-4.971,0-9-4.029-9-9s4.029-9,9-9h2.012
	C394.805,411.986,398.834,416.016,398.834,420.986z M78.955,204.987c-4.971,0-9,4.029-9,9v2.011c0,4.971,4.029,9,9,9s9-4.029,9-9
	v-2.011C87.955,209.017,83.926,204.987,78.955,204.987z M346.771,411.986h-2.012c-4.971,0-9,4.029-9,9s4.029,9,9,9h2.012
	c4.971,0,9-4.029,9-9S351.741,411.986,346.771,411.986z M368.303,377.612h-2.011c-4.971,0-9,4.029-9,9s4.029,9,9,9h2.011
	c4.971,0,9-4.029,9-9S373.273,377.612,368.303,377.612z M78.955,241.812c-4.971,0-9,4.029-9,9v2.011c0,4.971,4.029,9,9,9
	s9-4.029,9-9v-2.011C87.955,245.841,83.926,241.812,78.955,241.812z M83.218,52.374h2.01c4.971,0,9-4.029,9-9s-4.029-9-9-9h-2.01
	c-4.971,0-9,4.029-9,9S78.247,52.374,83.218,52.374z M104.75,18h2.01c4.971,0,9-4.029,9-9s-4.029-9-9-9h-2.01c-4.971,0-9,4.029-9,9
	S99.779,18,104.75,18z M303.707,411.986h-2.011c-4.971,0-9,4.029-9,9s4.029,9,9,9h2.011c4.971,0,9-4.029,9-9
	S308.677,411.986,303.707,411.986z M126.28,52.374h2.011c4.971,0,9-4.029,9-9s-4.029-9-9-9h-2.011c-4.971,0-9,4.029-9,9
	S121.309,52.374,126.28,52.374z M40.152,52.374h2.012c4.971,0,9-4.029,9-9s-4.029-9-9-9h-2.012c-4.971,0-9,4.029-9,9
	S35.181,52.374,40.152,52.374z M61.684,18h2.012c4.971,0,9-4.029,9-9s-4.029-9-9-9h-2.012c-4.971,0-9,4.029-9,9S56.713,18,61.684,18
	z M325.238,377.612h-2.011c-4.971,0-9,4.029-9,9s4.029,9,9,9h2.011c4.971,0,9-4.029,9-9S330.208,377.612,325.238,377.612z
	 M296.319,169.803c0,19.16-15.588,34.749-34.748,34.749c-19.161,0-34.75-15.589-34.75-34.749s15.588-34.748,34.75-34.748
	C280.731,135.055,296.319,150.643,296.319,169.803z M278.319,169.803c0-9.235-7.513-16.748-16.748-16.748
	c-9.236,0-16.75,7.513-16.75,16.748s7.514,16.749,16.75,16.749C270.806,186.552,278.319,179.038,278.319,169.803z M384.179,260.182
	c0,19.161-15.588,34.749-34.749,34.749c-19.161,0-34.749-15.588-34.749-34.749c0-19.16,15.588-34.748,34.749-34.748
	C368.591,225.434,384.179,241.021,384.179,260.182z M366.179,260.182c0-9.235-7.513-16.748-16.749-16.748
	c-9.236,0-16.749,7.513-16.749,16.748s7.514,16.749,16.749,16.749C358.666,276.931,366.179,269.417,366.179,260.182z
	 M349.431,250.177c-4.971,0-9,4.029-9,9v2.012c0,4.971,4.029,9,9,9c4.971,0,9-4.029,9-9v-2.012
	C358.431,254.206,354.401,250.177,349.431,250.177z M384.179,169.803c0,19.16-15.588,34.749-34.749,34.749
	c-19.161,0-34.749-15.589-34.749-34.749s15.588-34.748,34.749-34.748C368.591,135.055,384.179,150.643,384.179,169.803z
	 M366.179,169.803c0-9.235-7.513-16.748-16.749-16.748c-9.236,0-16.749,7.513-16.749,16.748s7.514,16.749,16.749,16.749
	C358.666,186.552,366.179,179.038,366.179,169.803z M429.986,109.179v211.628c0,10.509-8.549,19.058-19.057,19.058H19.058
	C8.549,339.864,0,331.315,0,320.807V109.179C0,98.67,8.549,90.121,19.058,90.121H410.93
	C421.438,90.121,429.986,98.67,429.986,109.179z M411.986,109.179c0-0.563-0.494-1.058-1.057-1.058H19.058
	c-0.563,0-1.058,0.494-1.058,1.058v211.628c0,0.563,0.494,1.058,1.058,1.058H410.93c0.563,0,1.057-0.494,1.057-1.058V109.179z
	 M113.705,167.349v95.289c0,19.159-15.588,34.747-34.749,34.747c-19.16,0-34.749-15.588-34.749-34.747v-95.289
	c0-19.159,15.587-34.747,34.748-34.747C98.116,132.602,113.705,148.189,113.705,167.349z M95.705,167.349
	c0-9.234-7.513-16.747-16.749-16.747h-0.001c-9.234,0-16.748,7.513-16.748,16.747v95.289c0,9.234,7.513,16.747,16.748,16.747
	c9.236,0,16.75-7.513,16.75-16.747V167.349z M78.955,168.164c-4.971,0-9,4.029-9,9v2.011c0,4.971,4.029,9,9,9s9-4.029,9-9v-2.011
	C87.955,172.193,83.926,168.164,78.955,168.164z M208.459,260.182c0,19.161-15.588,34.749-34.749,34.749
	c-19.16,0-34.749-15.588-34.749-34.749c0-19.16,15.588-34.748,34.749-34.748C192.871,225.434,208.459,241.021,208.459,260.182z
	 M190.459,260.182c0-9.235-7.513-16.748-16.749-16.748s-16.749,7.513-16.749,16.748s7.513,16.749,16.749,16.749
	S190.459,269.417,190.459,260.182z M296.319,260.182c0,19.161-15.588,34.749-34.748,34.749c-19.161,0-34.75-15.588-34.75-34.749
	c0-19.16,15.588-34.748,34.75-34.748C280.731,225.434,296.319,241.021,296.319,260.182z M278.319,260.182
	c0-9.235-7.513-16.748-16.748-16.748c-9.236,0-16.75,7.513-16.75,16.748s7.514,16.749,16.75,16.749
	C270.806,276.931,278.319,269.417,278.319,260.182z M208.459,169.803c0,19.16-15.588,34.749-34.749,34.749
	c-19.16,0-34.749-15.589-34.749-34.749s15.588-34.748,34.749-34.748C192.871,135.055,208.459,150.643,208.459,169.803z
	 M190.459,169.803c0-9.235-7.513-16.748-16.749-16.748s-16.749,7.513-16.749,16.748s7.513,16.749,16.749,16.749
	S190.459,179.038,190.459,169.803z M261.57,159.797c-4.971,0-9,4.029-9,9v2.011c0,4.971,4.029,9,9,9s9-4.029,9-9v-2.011
	C270.57,163.826,266.541,159.797,261.57,159.797z"/>
<g>
</g>
<g>
</g>
<g>
</g>
<g>
</g>
<g>
</g>
<g>
</g>
<g>
</g>
<g>
</g>
<g>
</g>
<g>
</g>
<g>
</g>
<g>
</g>
<g>
</g>
<g>
</g>
<g>
</g>
</svg>
