<?xml version="1.0" encoding="iso-8859-1"?>
<!-- Generator: Adobe Illustrator 19.0.0, SVG Export Plug-In . SVG Version: 6.00 Build 0)  -->
<svg version="1.1" id="Capa_1" xmlns="http://www.w3.org/2000/svg" xmlns:xlink="http://www.w3.org/1999/xlink" x="0px" y="0px"
	 viewBox="0 0 429.986 429.986" style="enable-background:new 0 0 429.986 429.986;" xml:space="preserve">
<path id="XMLID_144_" d="M420.986,0H9C4.029,0,0,4.029,0,9v411.986c0,4.971,4.029,9,9,9h411.986c4.971,0,9-4.029,9-9V9
	C429.986,4.029,425.957,0,420.986,0z M275.492,172.495h33.497v84.996h-33.497V172.495z M172.494,185.223l29.771,29.771
	l-29.771,29.771V185.223z M185.223,172.495h59.541l-29.771,29.771L185.223,172.495z M244.764,257.491h-59.541l29.771-29.771
	L244.764,257.491z M18,172.495h33.498v84.996H18V172.495z M154.494,411.986H18V275.491h136.494V411.986z M69.498,257.491v-84.996
	h33.498v84.996H69.498z M154.494,257.491h-33.498v-84.996h33.498V257.491z M154.494,154.495h-42.498H18V18h136.494V154.495z
	 M257.492,411.986h-84.998v-33.498h84.998V411.986z M257.492,360.488h-84.998V326.99h84.998V360.488z M257.492,308.99h-84.998
	v-33.499h84.998V308.99z M257.492,244.764l-29.771-29.771l29.771-29.771V244.764z M257.492,154.495h-84.998v-33.498h84.998V154.495z
	 M257.492,102.997h-84.998V69.498h84.998V102.997z M257.492,51.498h-84.998V18h84.998V51.498z M411.986,411.986H275.492V275.491
	h136.494V411.986z M326.989,257.491v-84.996h33.498v84.996H326.989z M411.986,257.491h-33.499v-84.996h33.499V257.491z
	 M411.986,154.495h-42.499h-93.995V18h136.494V154.495z M343.739,136.012c27.438,0,49.762-22.324,49.762-49.765
	c0-27.439-22.323-49.763-49.762-49.763c-27.441,0-49.767,22.323-49.767,49.763c0,12.316,4.537,24.139,12.775,33.289
	C316.176,130.007,329.659,136.012,343.739,136.012z M343.739,54.484c17.514,0,31.762,14.249,31.762,31.763
	c0,17.515-14.248,31.765-31.762,31.765c-8.987,0-17.595-3.834-23.614-10.52c-5.257-5.84-8.152-13.385-8.152-21.245
	C311.973,68.733,326.223,54.484,343.739,54.484z M343.739,393.503c27.438,0,49.762-22.324,49.762-49.765
	c0-27.438-22.323-49.762-49.762-49.762c-27.441,0-49.767,22.323-49.767,49.762c0,12.316,4.537,24.139,12.775,33.288
	C316.175,387.498,329.658,393.503,343.739,393.503z M343.739,311.977c17.514,0,31.762,14.248,31.762,31.762
	c0,17.515-14.248,31.765-31.762,31.765c-8.988,0-17.595-3.834-23.614-10.52c-5.257-5.84-8.152-13.385-8.152-21.245
	C311.973,326.225,326.223,311.977,343.739,311.977z M86.247,393.503c27.44,0,49.765-22.324,49.765-49.765
	c0-27.438-22.324-49.762-49.765-49.762c-27.439,0-49.764,22.323-49.764,49.762c0,12.318,4.536,24.141,12.772,33.288
	C58.683,387.498,72.166,393.503,86.247,393.503z M86.247,311.977c17.515,0,31.765,14.248,31.765,31.762
	c0,17.515-14.25,31.765-31.765,31.765c-8.988,0-17.595-3.834-23.614-10.52c-5.255-5.838-8.149-13.382-8.149-21.245
	C54.483,326.225,68.732,311.977,86.247,311.977z M86.247,136.012c27.44,0,49.765-22.324,49.765-49.765
	c0-27.439-22.324-49.763-49.765-49.763c-27.439,0-49.764,22.323-49.764,49.763c0,12.318,4.536,24.141,12.772,33.289
	C58.684,130.007,72.167,136.012,86.247,136.012z M86.247,54.484c17.515,0,31.765,14.249,31.765,31.763
	c0,17.515-14.25,31.765-31.765,31.765c-8.987,0-17.595-3.834-23.614-10.52c-5.255-5.838-8.149-13.382-8.149-21.245
	C54.483,68.733,68.732,54.484,86.247,54.484z"/>
<g>
</g>
<g>
</g>
<g>
</g>
<g>
</g>
<g>
</g>
<g>
</g>
<g>
</g>
<g>
</g>
<g>
</g>
<g>
</g>
<g>
</g>
<g>
</g>
<g>
</g>
<g>
</g>
<g>
</g>
</svg>
