<?xml version="1.0" encoding="iso-8859-1"?>
<!-- Generator: Adobe Illustrator 19.0.0, SVG Export Plug-In . SVG Version: 6.00 Build 0)  -->
<svg version="1.1" id="Capa_1" xmlns="http://www.w3.org/2000/svg" xmlns:xlink="http://www.w3.org/1999/xlink" x="0px" y="0px"
	 viewBox="0 0 440.325 440.325" style="enable-background:new 0 0 440.325 440.325;" xml:space="preserve">
<path id="XMLID_406_" d="M253.868,256.03c10.212-22.822,24.703-48.149,41.905-73.245c4.685-6.833,9.529-13.583,14.398-20.063
	c2.986-3.973,8.629-4.771,12.602-1.787c3.973,2.986,4.774,8.628,1.788,12.602c-4.713,6.271-9.404,12.807-13.941,19.426
	c-16.601,24.218-30.544,48.568-40.322,70.419c-1.496,3.344-4.78,5.326-8.22,5.326c-1.229,0-2.477-0.253-3.671-0.787
	C253.87,265.89,251.838,260.567,253.868,256.03z M291.455,131.682c-3.866-3.122-9.533-2.523-12.656,1.345
	c-9.018,11.162-17.942,23.169-26.524,35.688c-29.178,42.567-50.5,85.425-57.039,114.645c-1.085,4.851,1.967,9.662,6.817,10.748
	c0.662,0.147,1.322,0.219,1.974,0.219c4.12,0,7.837-2.848,8.774-7.037c5.974-26.694,26.788-68.23,54.32-108.396
	c8.316-12.132,16.957-23.758,25.679-34.554C295.924,140.473,295.322,134.806,291.455,131.682z M215.557,167.042
	c2.841,0,5.637-1.342,7.386-3.848c8.496-12.164,17.484-24.001,26.716-35.182c5.131-6.214,10.386-12.305,15.619-18.104
	c3.33-3.69,3.038-9.382-0.653-12.712c-3.69-3.328-9.381-3.035-12.711,0.653c-5.408,5.993-10.835,12.285-16.134,18.7
	c-9.539,11.553-18.823,23.778-27.594,36.337c-2.846,4.075-1.85,9.686,2.226,12.532C211.982,166.516,213.778,167.042,215.557,167.042
	z M78.098,300.53c4.971,0,9-4.029,9-9V34.424c0-3.355,2.73-6.086,6.086-6.086H276.86c4.971,0,9-4.029,9-9s-4.029-9-9-9H93.184
	c-13.281,0-24.086,10.805-24.086,24.086V291.53C69.098,296.5,73.127,300.53,78.098,300.53z M396.087,148.289v267.95
	c0,13.281-10.805,24.086-24.087,24.086H93.184c-13.281,0-24.086-10.805-24.086-24.086v-7.57c-9.366,1.671-18.955-0.005-27.336-4.845
	c-9.353-5.399-16.048-14.067-18.869-24.422c-0.017-0.056-0.032-0.112-0.047-0.17c-5.786-21.599,7.078-43.878,28.674-49.663h0
	l96.67-25.902c10.431-2.794,21.352-1.345,30.753,4.085c9.347,5.396,16.038,14.056,18.861,24.401
	c0.018,0.062,0.036,0.125,0.052,0.188c2.793,10.427,1.342,21.348-4.086,30.751c-5.429,9.402-14.161,16.12-24.587,18.913L87.098,404
	v12.239c0,3.355,2.73,6.086,6.086,6.086H372c3.299,0,6.087-2.787,6.087-6.086v-267.95c0-4.971,4.029-9,9-9
	S396.087,143.318,396.087,148.289z M164.524,364.618c5.782-1.549,10.632-5.287,13.657-10.526c3-5.197,3.824-11.212,2.325-16.953
	c-0.014-0.047-0.027-0.094-0.04-0.142c-1.548-5.782-5.286-10.633-10.524-13.657c-5.239-3.024-11.31-3.836-17.094-2.286
	l-96.671,25.902h0c-11.967,3.206-19.111,15.52-15.979,27.492c0.012,0.043,0.024,0.086,0.036,0.129
	c1.549,5.783,5.288,10.634,10.526,13.658c5.239,3.024,11.31,3.839,17.091,2.286L164.524,364.618z M73.568,356.326l-10.139,2.717
	c-4.801,1.287-7.65,6.222-6.364,11.022c1.078,4.021,4.714,6.673,8.688,6.673c0.771,0,1.555-0.1,2.335-0.309l10.139-2.717
	c4.801-1.287,7.65-6.222,6.364-11.022C83.305,357.888,78.369,355.04,73.568,356.326z M418.085,75.72
	C418.085,75.72,418.085,75.72,418.085,75.72c-2.846,18.358-13.398,34.724-28.953,44.901c-10.747,7.03-23.208,10.707-35.893,10.707
	c-3.356,0-6.728-0.258-10.088-0.778c-17.331-2.685-32.578-11.957-42.934-26.11c-10.355-14.153-14.58-31.492-11.895-48.823
	c2.684-17.329,11.957-32.576,26.109-42.933s31.489-14.581,48.822-11.896C399.031,6.332,423.628,39.946,418.085,75.72z
	 M400.297,72.964c4.023-25.966-13.83-50.364-39.798-54.389c-2.471-0.383-4.943-0.571-7.396-0.571
	c-10.038,0-19.785,3.166-28.041,9.206c-10.272,7.517-17.003,18.584-18.951,31.162c-1.949,12.58,1.117,25.166,8.634,35.438
	c7.516,10.272,18.583,17.003,31.163,18.952c11.656,1.802,23.507-0.753,33.37-7.204C390.57,98.169,398.232,86.29,400.297,72.964
	L400.297,72.964z M357.938,75.947c-2.129,1.391-4.687,1.939-7.203,1.554c-2.713-0.421-5.101-1.873-6.723-4.09
	c-1.622-2.217-2.284-4.933-1.863-7.647c0.761-4.912-2.604-9.511-7.516-10.271c-4.914-0.76-9.511,2.604-10.272,7.516
	c-1.156,7.466,0.664,14.935,5.124,21.032c4.461,6.098,11.03,10.092,18.494,11.248c1.448,0.225,2.9,0.336,4.346,0.336
	c5.464-0.001,10.832-1.584,15.463-4.612c4.16-2.72,5.328-8.298,2.607-12.458C367.676,74.394,362.098,73.225,357.938,75.947z"/>
<g>
</g>
<g>
</g>
<g>
</g>
<g>
</g>
<g>
</g>
<g>
</g>
<g>
</g>
<g>
</g>
<g>
</g>
<g>
</g>
<g>
</g>
<g>
</g>
<g>
</g>
<g>
</g>
<g>
</g>
</svg>
