<?xml version="1.0" encoding="iso-8859-1"?>
<!-- Generator: Adobe Illustrator 19.0.0, SVG Export Plug-In . SVG Version: 6.00 Build 0)  -->
<svg version="1.1" id="Capa_1" xmlns="http://www.w3.org/2000/svg" xmlns:xlink="http://www.w3.org/1999/xlink" x="0px" y="0px"
	 viewBox="0 0 443.832 443.832" style="enable-background:new 0 0 443.832 443.832;" xml:space="preserve">
<path id="XMLID_638_" d="M443.832,250.7c0-16.945-6.777-32.335-17.765-43.605c-0.17-0.202-0.35-0.399-0.54-0.589
	s-0.388-0.371-0.59-0.54c-11.269-10.988-26.659-17.766-43.604-17.766c-16.941,0-32.331,6.775-43.6,17.758
	c-0.206,0.172-0.405,0.354-0.599,0.547c-0.192,0.193-0.375,0.393-0.547,0.598c-10.983,11.269-17.758,26.656-17.758,43.597
	c0,7.108,1.202,14.084,3.506,20.665c-2.328,6.63-3.506,13.569-3.506,20.679c0,7.108,1.203,14.085,3.507,20.666
	c-2.328,6.629-3.507,13.569-3.507,20.682c0,7.108,1.203,14.085,3.507,20.665c-2.328,6.63-3.507,13.57-3.507,20.681
	c0,15.471,5.698,30.319,16.044,41.809c11.84,13.152,28.773,20.695,46.461,20.695c34.461,0,62.497-28.039,62.497-62.503
	c0-7.113-1.179-14.055-3.508-20.686c2.271-6.47,3.508-13.424,3.508-20.66c0-7.113-1.179-14.055-3.509-20.687
	c2.272-6.47,3.509-13.424,3.509-20.661c0-7.112-1.179-14.054-3.508-20.685C442.596,264.89,443.832,257.935,443.832,250.7
	C443.832,250.701,443.832,250.701,443.832,250.7z M344.16,226.257l2.977,2.978c3.516,3.515,9.213,3.514,12.729,0
	c3.515-3.515,3.515-9.213,0-12.728l-2.978-2.977c4.622-3.05,9.84-5.26,15.443-6.415v4.229c0,4.971,4.029,9,9,9s9-4.029,9-9v-4.229
	c5.602,1.155,10.823,3.367,15.444,6.415l-2.979,2.978c-3.515,3.515-3.515,9.213,0,12.728c3.516,3.515,9.213,3.515,12.729,0
	l2.978-2.978c3.049,4.621,5.26,9.843,6.415,15.444h-4.229c-4.971,0-9,4.029-9,9s4.029,9,9,9h4.229
	c-1.154,5.602-3.366,10.822-6.415,15.443l-2.977-2.978c-3.516-3.515-9.213-3.514-12.729,0c-3.515,3.515-3.515,9.213,0,12.728
	l2.978,2.977c-4.62,3.049-9.842,5.26-15.443,6.416v-4.23c0-4.971-4.029-9-9-9s-9,4.029-9,9v4.22
	c-5.508-1.142-10.754-3.318-15.447-6.402l2.981-2.981c3.515-3.515,3.515-9.213,0-12.728c-3.515-3.515-9.212-3.515-12.729,0
	l-2.988,2.989c-3.1-4.707-5.269-9.949-6.402-15.455h4.229c4.971,0,9-4.029,9-9s-4.029-9-9-9h-4.23
	C338.899,236.099,341.111,230.878,344.16,226.257z M336.962,294.718c0.057,0.06,0.114,0.12,0.173,0.178
	c0.062,0.062,0.123,0.122,0.186,0.181c11.667,11.559,27.512,18.124,44.01,18.125c0.001,0,0.001,0,0.001,0s0,0,0.002,0
	c16.943,0,32.332-6.776,43.601-17.762c0.204-0.17,0.402-0.352,0.594-0.543c0.078-0.078,0.154-0.157,0.229-0.237
	c-1.357,23.328-20.763,41.89-44.421,41.89c-12.593,0-24.651-5.372-33.084-14.739c-6.779-7.529-10.755-17.084-11.344-27.147
	C336.926,294.682,336.942,294.699,336.962,294.718z M381.335,419.24c-12.594,0-24.651-5.372-33.084-14.739
	c-6.78-7.529-10.756-17.085-11.345-27.149c11.703,11.819,27.73,18.542,44.429,18.542c17.358,0,33.087-7.114,44.424-18.581
	C424.42,400.659,405.007,419.24,381.335,419.24z M381.335,377.894c-12.594,0-24.652-5.372-33.084-14.739
	c-6.78-7.529-10.756-17.085-11.345-27.149c11.704,11.819,27.731,18.542,44.429,18.542c17.358,0,33.087-7.115,44.424-18.582
	C424.42,359.313,405.007,377.894,381.335,377.894z M201.142,118.098c-3.797-4.213-5.89-9.665-5.89-15.348c0-4.971,4.029-9,9-9
	s9,4.029,9,9c0,1.569,0.688,2.661,1.264,3.301c0.554,0.615,1.764,1.642,3.678,1.642c4.971,0,9,4.029,9,9s-4.029,9-9,9
	C211.702,125.693,205.486,122.925,201.142,118.098z M320.402,177.603c0,4.971-4.029,9-9,9s-9-4.029-9-9v-15.681h-4.03
	c-4.971,0-9-4.029-9-9s4.029-9,9-9h4.03V24.594H127.584v119.329h4.03c4.971,0,9,4.029,9,9s-4.029,9-9,9h-4.03v119.33h153.13
	c4.971,0,9,4.029,9,9s-4.029,9-9,9h-153.13V418.58h171.594c4.971,0,9,4.029,9,9s-4.029,9-9,9H9c-4.971,0-9-4.029-9-9s4.029-9,9-9
	h100.584V299.252H9c-4.971,0-9-4.029-9-9s4.029-9,9-9h100.584v-119.33H9c-4.971,0-9-4.029-9-9s4.029-9,9-9h100.584V24.594H9
	c-4.971,0-9-4.029-9-9s4.029-9,9-9h302.191c0.139-0.003,0.283-0.003,0.422,0h109.373c4.971,0,9,4.029,9,9s-4.029,9-9,9H320.402
	v119.329h100.584c4.971,0,9,4.029,9,9s-4.029,9-9,9H320.402V177.603z M277.493,105.949c0-16.945-6.778-32.337-17.766-43.606
	c-0.17-0.202-0.35-0.398-0.54-0.588c-0.189-0.189-0.386-0.369-0.587-0.539c-11.27-10.988-26.661-17.767-43.605-17.767
	c-16.946,0-32.341,6.78-43.61,17.768c-0.201,0.169-0.396,0.348-0.586,0.537c-0.189,0.189-0.368,0.385-0.537,0.586
	c-10.991,11.27-17.771,26.662-17.771,43.609c0,7.108,1.203,14.085,3.507,20.666c-2.329,6.629-3.507,13.568-3.507,20.679
	c0,7.108,1.203,14.085,3.508,20.666c-2.329,6.628-3.508,13.568-3.508,20.681c0,15.468,5.697,30.316,16.044,41.809
	c11.84,13.152,28.774,20.695,46.46,20.695c34.462,0,62.498-28.039,62.498-62.503c0-7.117-1.179-14.06-3.508-20.688
	c2.271-6.47,3.508-13.422,3.508-20.659c0-7.116-1.179-14.058-3.508-20.687C276.258,120.137,277.493,113.185,277.493,105.949
	C277.493,105.95,277.493,105.95,277.493,105.949z M177.821,81.507l2.977,2.977c3.513,3.515,9.213,3.516,12.728,0.001
	c3.515-3.515,3.516-9.213,0.001-12.728l-2.977-2.978c4.622-3.05,9.84-5.26,15.443-6.415v4.229c0,4.971,4.029,9,9,9s9-4.029,9-9
	v-4.23c5.601,1.155,10.823,3.367,15.443,6.416l-2.978,2.978c-3.515,3.515-3.515,9.213,0.001,12.728
	c3.514,3.515,9.214,3.514,12.728,0l2.977-2.978c3.049,4.621,5.26,9.842,6.415,15.443h-4.23c-4.971,0-9,4.029-9,9s4.029,9,9,9h4.229
	c-1.154,5.602-3.365,10.822-6.414,15.443l-2.977-2.977c-3.515-3.515-9.213-3.515-12.728,0c-3.516,3.515-3.516,9.213-0.001,12.728
	l2.978,2.978c-4.62,3.049-9.843,5.26-15.443,6.416v-4.23c0-4.971-4.029-9-9-9s-9,4.029-9,9v4.22
	c-5.508-1.142-10.754-3.319-15.448-6.402l2.981-2.982c3.515-3.515,3.514-9.213-0.001-12.728s-9.215-3.513-12.728,0.001l-2.988,2.988
	c-3.1-4.707-5.269-9.949-6.402-15.455h4.229c4.971,0,9-4.029,9-9s-4.029-9-9-9h-4.23C172.561,91.349,174.772,86.128,177.821,81.507z
	 M170.646,149.991c0.05,0.052,0.101,0.104,0.152,0.156c0.054,0.053,0.107,0.106,0.162,0.158
	c11.668,11.573,27.522,18.146,44.031,18.147c0.001,0,0.001,0,0.001,0s0,0,0.002,0c16.942,0,32.332-6.777,43.601-17.763
	c0.203-0.17,0.401-0.351,0.592-0.542c0.078-0.078,0.155-0.158,0.229-0.238c-1.357,23.328-20.763,41.889-44.422,41.889
	c-12.592,0-24.649-5.372-33.083-14.738c-6.779-7.53-10.755-17.086-11.345-27.148C170.595,149.938,170.62,149.964,170.646,149.991z
	 M214.995,233.144c-12.592,0-24.65-5.372-33.083-14.738c-6.78-7.532-10.756-17.088-11.345-27.151
	c11.704,11.819,27.731,18.542,44.428,18.542c17.359,0,33.088-7.115,44.425-18.582C258.081,214.562,238.667,233.144,214.995,233.144z
	 M48.172,122.655c21.171,0,38.395-17.226,38.395-38.398c0-21.171-17.224-38.395-38.395-38.395
	c-21.173,0-38.398,17.224-38.398,38.395c0,9.504,3.5,18.626,9.856,25.688C26.906,118.022,37.31,122.655,48.172,122.655z
	 M48.172,63.861c11.245,0,20.395,9.149,20.395,20.395c0,11.248-9.149,20.398-20.395,20.398c-5.771,0-11.299-2.463-15.166-6.756
	c-3.374-3.749-5.232-8.593-5.232-13.643C27.773,73.01,36.924,63.861,48.172,63.861z M383.797,45.861
	c-21.173,0-38.398,17.224-38.398,38.395c0,9.505,3.5,18.627,9.856,25.686c7.274,8.079,17.677,12.712,28.542,12.712
	c21.172,0,38.396-17.226,38.396-38.398C422.193,63.085,404.969,45.861,383.797,45.861z M383.797,104.655
	c-5.771,0-11.299-2.463-15.165-6.757c-3.375-3.748-5.233-8.592-5.233-13.642c0-11.246,9.15-20.395,20.398-20.395
	c11.247,0,20.396,9.149,20.396,20.395C404.193,95.504,395.044,104.655,383.797,104.655z M367.479,262.847
	c-3.797-4.214-5.89-9.666-5.89-15.347c0-4.971,4.029-9,9-9s9,4.029,9,9c0,1.568,0.688,2.661,1.266,3.302
	c0.553,0.614,1.763,1.64,3.676,1.64c4.971,0,9,4.029,9,9s-4.029,9-9,9C378.039,270.442,371.824,267.673,367.479,262.847z
	 M48.172,259.983c21.171,0,38.395-17.225,38.395-38.398c0-21.171-17.224-38.396-38.395-38.396
	c-21.173,0-38.398,17.225-38.398,38.396c0,9.503,3.5,18.625,9.856,25.687C26.904,255.35,37.308,259.983,48.172,259.983z
	 M48.172,201.189c11.245,0,20.395,9.149,20.395,20.396c0,11.248-9.149,20.398-20.395,20.398c-5.771,0-11.3-2.463-15.165-6.755
	c-3.375-3.749-5.233-8.594-5.233-13.643C27.773,210.338,36.924,201.189,48.172,201.189z M48.172,397.312
	c21.171,0,38.395-17.226,38.395-38.399c0-21.171-17.224-38.396-38.395-38.396c-21.173,0-38.398,17.224-38.398,38.396
	c0,9.504,3.5,18.626,9.856,25.687C26.905,392.679,37.309,397.312,48.172,397.312z M48.172,338.518
	c11.245,0,20.395,9.149,20.395,20.396c0,11.248-9.149,20.399-20.395,20.399c-5.771,0-11.299-2.463-15.166-6.756
	c-3.374-3.749-5.232-8.593-5.232-13.643C27.773,347.667,36.924,338.518,48.172,338.518z M176.597,358.913
	c0,9.503,3.5,18.625,9.855,25.686c7.274,8.079,17.678,12.713,28.543,12.713c21.171,0,38.396-17.226,38.396-38.399
	c0-21.171-17.225-38.396-38.396-38.396C193.822,320.518,176.597,337.742,176.597,358.913z M235.391,358.913
	c0,11.248-9.149,20.399-20.396,20.399c-5.771,0-11.3-2.463-15.165-6.756c-3.375-3.75-5.233-8.595-5.233-13.643
	c0-11.246,9.15-20.396,20.398-20.396C226.241,338.518,235.391,347.667,235.391,358.913z"/>
<g>
</g>
<g>
</g>
<g>
</g>
<g>
</g>
<g>
</g>
<g>
</g>
<g>
</g>
<g>
</g>
<g>
</g>
<g>
</g>
<g>
</g>
<g>
</g>
<g>
</g>
<g>
</g>
<g>
</g>
</svg>
