<?xml version="1.0" encoding="iso-8859-1"?>
<!-- Generator: Adobe Illustrator 19.0.0, SVG Export Plug-In . SVG Version: 6.00 Build 0)  -->
<svg version="1.1" id="Capa_1" xmlns="http://www.w3.org/2000/svg" xmlns:xlink="http://www.w3.org/1999/xlink" x="0px" y="0px"
	 viewBox="0 0 461.055 461.055" style="enable-background:new 0 0 461.055 461.055;" xml:space="preserve">
<path id="XMLID_568_" d="M230.527,317.884c4.971,0,9,4.029,9,9s-4.029,9-9,9c-58.093,0-105.354-47.262-105.354-105.355
	c0-4.971,4.029-9,9-9s9,4.029,9,9C143.172,278.696,182.359,317.884,230.527,317.884z M210.09,209.465L414.677,28.943
	c3.564-3.146,8.959-2.976,12.319,0.385l6.008,6.008c3.36,3.361,3.528,8.755,0.384,12.318L252.869,252.241
	c-5.146,5.828-12.393,9.172-20.407,9.421c-0.316,0.01-0.632,0.015-0.947,0.015c-8.114,0-15.985-3.227-21.744-8.939
	c-0.03-0.029-0.061-0.059-0.09-0.089c-5.991-5.992-9.275-14.297-9.011-22.786C200.919,221.85,204.264,214.606,210.09,209.465z
	 M218.661,230.424c-0.108,3.464,1.271,6.987,3.693,9.442c0.02,0.019,0.039,0.038,0.058,0.058c2.455,2.455,6.014,3.854,9.492,3.748
	c2.996-0.093,5.649-1.279,7.47-3.341l130.299-147.67L222,222.961C219.94,224.779,218.754,227.43,218.661,230.424z M455.854,325.367
	c-4.505-2.099-9.859-0.147-11.959,4.357c-23.395,50.218-63.941,90.759-114.171,114.156c-4.506,2.099-6.457,7.453-4.358,11.958
	c1.526,3.276,4.773,5.202,8.164,5.202c1.272,0,2.565-0.271,3.794-0.844c54.064-25.183,97.706-68.819,122.888-122.871
	C462.31,332.82,460.36,327.466,455.854,325.367z M382.551,382.55c-40.606,40.607-94.596,62.971-152.022,62.971
	c-0.002,0-0.002,0-0.002,0c-57.354,0-111.284-22.311-151.874-62.824c-0.05-0.048-0.1-0.097-0.149-0.146s-0.098-0.099-0.146-0.149
	c-40.454-40.531-62.756-94.354-62.821-151.616c-0.002-0.085-0.003-0.171-0.003-0.257s0.001-0.171,0.003-0.256
	c0.065-57.276,22.377-111.112,62.849-151.646c0.039-0.041,0.079-0.081,0.118-0.12c0.04-0.04,0.08-0.079,0.121-0.118
	c40.593-40.531,94.535-62.853,151.905-62.853c43.228,0,84.919,12.788,120.565,36.982c4.113,2.792,5.185,8.388,2.394,12.501
	c-2.793,4.114-8.389,5.183-12.502,2.393c-30.173-20.479-65.077-32.036-101.459-33.673v54.434
	c18.985,1.166,37.222,6.038,54.325,14.526c4.452,2.209,6.271,7.61,4.061,12.063c-2.209,4.452-7.607,6.271-12.063,4.061
	c-17.077-8.475-35.454-12.822-54.635-12.923c-0.453,0.035-0.922,0.035-1.376,0c-68.191,0.373-123.593,55.787-123.939,123.984
	c0.015,0.213,0.023,0.429,0.023,0.646s-0.008,0.432-0.023,0.646c0.346,68.204,55.76,123.622,123.963,123.98
	c0.439-0.031,0.89-0.031,1.329,0c68.18-0.359,123.585-55.744,123.964-123.919c-0.019-0.233-0.027-0.469-0.027-0.707
	c0-0.238,0.009-0.474,0.027-0.707c-0.1-18.171-4.022-35.666-11.666-52.008c-2.105-4.502-0.163-9.859,4.34-11.965
	c4.502-2.105,9.859-0.163,11.965,4.339c7.599,16.247,11.987,33.478,13.088,51.341h54.436c-1.603-35.533-12.685-69.731-32.293-99.415
	c-2.739-4.147-1.599-9.73,2.549-12.47c4.149-2.74,9.73-1.597,12.471,2.549c23.208,35.134,35.476,76.054,35.476,118.335
	C445.52,287.954,423.157,341.944,382.551,382.55z M97.806,85.08l38.477,38.476c23.042-20.325,52.68-33.34,85.244-35.378V33.739
	C173.982,35.888,130.776,54.968,97.806,85.08z M33.74,221.529h54.439c2.038-32.564,15.05-62.202,35.376-85.244L85.078,97.809
	C54.965,130.779,35.888,173.984,33.74,221.529z M85.078,363.248l38.478-38.477c-20.326-23.042-33.339-52.679-35.377-85.243H33.74
	C35.888,287.074,54.965,330.278,85.078,363.248z M221.527,372.876c-32.564-2.039-62.2-15.051-85.243-35.376l-38.478,38.477
	c32.971,30.113,76.176,49.193,123.721,51.341V372.876z M363.248,375.979l-38.479-38.478c-23.042,20.325-52.68,33.336-85.243,35.375
	v54.442C287.072,425.169,330.278,406.092,363.248,375.979z M375.976,363.251c30.113-32.971,49.192-76.177,51.341-123.722h-54.44
	c-2.038,32.563-15.053,62.203-35.378,85.245L375.976,363.251z M17.16,131.332c23.392-50.218,63.938-90.76,114.17-114.158
	c4.505-2.099,6.457-7.453,4.358-11.958c-2.098-4.505-7.451-6.458-11.959-4.358C69.664,26.042,26.022,69.68,0.844,123.732
	c-2.099,4.506-0.148,9.86,4.358,11.958c1.229,0.573,2.522,0.844,3.794,0.844C12.387,136.534,15.635,134.608,17.16,131.332z"/>
<g>
</g>
<g>
</g>
<g>
</g>
<g>
</g>
<g>
</g>
<g>
</g>
<g>
</g>
<g>
</g>
<g>
</g>
<g>
</g>
<g>
</g>
<g>
</g>
<g>
</g>
<g>
</g>
<g>
</g>
</svg>
