<?xml version="1.0" encoding="iso-8859-1"?>
<!-- Generator: Adobe Illustrator 19.0.0, SVG Export Plug-In . SVG Version: 6.00 Build 0)  -->
<svg version="1.1" id="Capa_1" xmlns="http://www.w3.org/2000/svg" xmlns:xlink="http://www.w3.org/1999/xlink" x="0px" y="0px"
	 viewBox="0 0 429.986 429.986" style="enable-background:new 0 0 429.986 429.986;" xml:space="preserve">
<path id="XMLID_1439_" d="M184.384,254.604h45.917c13.402,0,24.305-10.904,24.305-24.307c0-5.795-2.039-11.123-5.437-15.304
	c3.398-4.182,5.437-9.51,5.437-15.306c0-13.401-10.903-24.305-24.305-24.305h-45.917c-4.971,0-9,4.029-9,9v61.221
	C175.384,250.574,179.414,254.604,184.384,254.604z M193.384,193.383h36.917c3.477,0,6.305,2.829,6.305,6.307
	c0,3.476-2.828,6.304-6.305,6.304h-36.917V193.383z M193.384,223.993h36.917c3.477,0,6.305,2.829,6.305,6.306
	s-2.828,6.305-6.305,6.305h-36.917V223.993z M47.056,254.604c4.971,0,9-4.029,9-9v-21.61h43.217v21.61c0,4.971,4.029,9,9,9
	s9-4.029,9-9v-61.221c0-4.971-4.029-9-9-9H62.358c-13.4,0-24.302,10.903-24.302,24.305v45.916
	C38.056,250.574,42.085,254.604,47.056,254.604z M56.056,199.688c0-3.477,2.827-6.305,6.302-6.305h36.916v12.61H56.056V199.688z
	 M420.986,137.328H292.658V9c0-4.971-4.029-9-9-9H146.33c-4.971,0-9,4.029-9,9v128.328H9c-4.971,0-9,4.029-9,9v137.329
	c0,4.971,4.029,9,9,9h128.33v128.329c0,4.971,4.029,9,9,9h137.328c4.971,0,9-4.029,9-9V292.657h128.328c4.971,0,9-4.029,9-9V146.328
	C429.986,141.357,425.957,137.328,420.986,137.328z M137.33,274.657H18V155.328h119.33V274.657z M274.658,411.986H155.33V292.657
	h119.328V411.986z M274.658,274.657H155.33V155.328h119.328V274.657z M274.658,137.328H155.33V18h119.328V137.328z M411.986,274.657
	H292.658V155.328h119.328V274.657z M175.384,367.629v-30.612c0-13.401,10.903-24.304,24.305-24.304h45.917c4.971,0,9,4.029,9,9
	s-4.029,9-9,9h-45.917c-3.477,0-6.305,2.828-6.305,6.304v30.612c0,3.476,2.829,6.304,6.305,6.304h45.917c4.971,0,9,4.029,9,9
	s-4.029,9-9,9h-45.917C186.288,391.933,175.384,381.03,175.384,367.629z M184.387,117.274c4.971,0,9-4.029,9-9v-21.61h43.215v21.61
	c0,4.971,4.029,9,9,9s9-4.029,9-9v-61.22c0-4.971-4.029-9-9-9h-45.915c-13.399,0-24.301,10.902-24.301,24.304v45.916
	C175.387,113.245,179.416,117.274,184.387,117.274z M193.387,62.358c0-3.476,2.827-6.304,6.301-6.304h36.915v12.609h-43.215V62.358z
	 M312.713,230.299v-30.611c0-13.401,10.902-24.305,24.303-24.305h45.917c4.971,0,9,4.029,9,9s-4.029,9-9,9h-45.917
	c-3.476,0-6.303,2.828-6.303,6.305v30.611c0,3.477,2.827,6.305,6.303,6.305h45.917c4.971,0,9,4.029,9,9s-4.029,9-9,9h-45.917
	C323.615,254.604,312.713,243.7,312.713,230.299z"/>
<g>
</g>
<g>
</g>
<g>
</g>
<g>
</g>
<g>
</g>
<g>
</g>
<g>
</g>
<g>
</g>
<g>
</g>
<g>
</g>
<g>
</g>
<g>
</g>
<g>
</g>
<g>
</g>
<g>
</g>
</svg>
