<?xml version="1.0" encoding="iso-8859-1"?>
<!-- Generator: Adobe Illustrator 19.0.0, SVG Export Plug-In . SVG Version: 6.00 Build 0)  -->
<svg version="1.1" id="Capa_1" xmlns="http://www.w3.org/2000/svg" xmlns:xlink="http://www.w3.org/1999/xlink" x="0px" y="0px"
	 viewBox="0 0 432.189 432.189" style="enable-background:new 0 0 432.189 432.189;" xml:space="preserve">
<path id="XMLID_1397_" d="M350.002,214.13c0,4.971,4.029,9,9,9s9-4.029,9-9v-31.085c0.001-0.045,0.001-0.09,0.001-0.135
	s0-0.09-0.001-0.135V96.091c0.001-0.045,0.001-0.09,0.001-0.135s0-0.09-0.001-0.135V9c0-4.971-4.029-9-9-9H11.18
	c-4.971,0-9,4.029-9,9v347.822c0,4.971,4.029,9,9,9h241.841c4.971,0,9-4.029,9-9s-4.029-9-9-9H194.09v-68.958h59.135
	c4.971,0,9-4.029,9-9s-4.029-9-9-9H194.09V191.91h68.955v48.477c0,4.971,4.029,9,9,9s9-4.029,9-9V191.91h68.957V214.13z
	 M89.137,347.822H20.18v-68.958h68.957V347.822z M89.137,260.864H20.18V191.91h68.957V260.864z M89.137,173.91H20.18v-68.954h68.957
	V173.91z M89.137,86.956H20.18V18h68.957V86.956z M176.09,347.822h-68.953v-68.958h68.953V347.822z M176.09,260.864h-68.953V191.91
	h68.953V260.864z M176.09,173.91h-68.953v-68.954h68.953V173.91z M176.09,86.956h-68.953V18h68.953V86.956z M263.045,173.91H194.09
	v-68.954h68.955V173.91z M263.045,86.956H194.09V18h68.955V86.956z M281.045,18h68.957v68.956h-68.957V18z M281.045,173.91v-68.954
	h68.957v68.954H281.045z M424.857,269.859l-63.902-30.223c-2.435-1.152-5.259-1.152-7.695,0l-63.904,30.223
	c-3.146,1.487-5.152,4.655-5.152,8.136v145.194c0,4.971,4.029,9,9,9H421.01c4.971,0,9-4.029,9-9V277.995
	C430.01,274.515,428.004,271.347,424.857,269.859z M412.01,414.189H302.203V283.694l54.904-25.966l54.902,25.966V414.189z
	 M331.308,295.372h51.596c4.971,0,9,4.029,9,9s-4.029,9-9,9h-16.796v22.45h7.45c4.971,0,9,4.029,9,9s-4.029,9-9,9h-7.45v22.45
	h16.796c4.971,0,9,4.029,9,9s-4.029,9-9,9h-25.604c-0.063,0.001-0.128,0.002-0.191,0.002s-0.128-0.001-0.191-0.002h-25.608
	c-4.971,0-9-4.029-9-9s4.029-9,9-9h16.8v-22.45h-7.453c-4.971,0-9-4.029-9-9s4.029-9,9-9h7.453v-22.45h-16.8c-4.971,0-9-4.029-9-9
	S326.337,295.372,331.308,295.372z"/>
<g>
</g>
<g>
</g>
<g>
</g>
<g>
</g>
<g>
</g>
<g>
</g>
<g>
</g>
<g>
</g>
<g>
</g>
<g>
</g>
<g>
</g>
<g>
</g>
<g>
</g>
<g>
</g>
<g>
</g>
</svg>
