<?xml version="1.0" encoding="iso-8859-1"?>
<!-- Generator: Adobe Illustrator 19.0.0, SVG Export Plug-In . SVG Version: 6.00 Build 0)  -->
<svg version="1.1" id="Capa_1" xmlns="http://www.w3.org/2000/svg" xmlns:xlink="http://www.w3.org/1999/xlink" x="0px" y="0px"
	 viewBox="0 0 430.556 430.556" style="enable-background:new 0 0 430.556 430.556;" xml:space="preserve">
<path id="XMLID_167_" d="M139.689,93.625c0.552-4.94,5.006-8.496,9.944-7.945c4.94,0.552,8.497,5.004,7.945,9.943
	c-0.398,3.566,3.715,14.81,21.66,34.326c16.172,17.59,39.202,37.165,64.845,55.121c17.287,12.104,35.165,23.035,51.702,31.609
	c4.413,2.288,6.135,7.721,3.847,12.133c-1.602,3.089-4.743,4.859-7.997,4.859c-1.396,0-2.811-0.325-4.135-1.012
	c-17.231-8.935-35.814-20.293-53.741-32.846C184.855,165.572,136.803,119.458,139.689,93.625z M52.83,91.751
	c-4.802-1.301-9.739,1.543-11.036,6.341c-5.789,21.428-4.187,44.349,4.51,64.541c2.622,6.087,5.887,11.938,9.705,17.391
	l25.55,36.492c11.818,16.878,28.379,29.397,47.893,36.205c0.981,0.342,1.981,0.505,2.964,0.505c3.721,0,7.203-2.326,8.498-6.038
	c1.637-4.693-0.84-9.825-5.533-11.463c-15.926-5.556-29.438-15.768-39.076-29.533l-25.551-36.493
	c-3.116-4.45-5.78-9.223-7.917-14.186c-7.098-16.478-8.399-35.203-3.666-52.727C60.468,97.988,57.629,93.047,52.83,91.751z
	 M306.703,198.433c3.112,0,6.139-1.616,7.805-4.507c2.483-4.306,1.005-9.81-3.301-12.292c-11.505-6.634-23.224-14.118-34.83-22.244
	c-21.658-15.165-41.119-31.282-56.278-46.611c-3.495-3.532-9.192-3.565-12.728-0.07c-3.534,3.495-3.566,9.193-0.07,12.728
	c15.907,16.085,36.223,32.925,58.752,48.698c12.036,8.428,24.203,16.197,36.163,23.094
	C303.632,198.044,305.177,198.433,306.703,198.433z M179.468,105.23c4.071,2.851,9.683,1.86,12.535-2.21l27.736-39.611
	c16.175-23.102,40.497-38.542,68.484-43.477c27.986-4.938,56.124,1.255,79.227,17.431c42.257,29.588,57.098,86.902,34.521,133.317
	c-2.174,4.47-0.313,9.855,4.157,12.03c1.268,0.616,2.609,0.908,3.93,0.908c3.336,0,6.542-1.863,8.1-5.065
	c12.747-26.206,15.785-56.35,8.555-84.876c-7.311-28.845-24.69-54.08-48.939-71.059C350.733,3.685,317.821-3.568,285.097,2.205
	c-32.722,5.77-61.17,23.839-80.103,50.879l-27.736,39.611C174.406,96.767,175.396,102.379,179.468,105.23z M349.668,380.735
	c2.235,3.19,3.094,7.069,2.416,10.92c-0.679,3.851-2.812,7.203-6.006,9.439l-37.92,26.552c-2.546,1.781-5.469,2.636-8.363,2.637
	c-4.613,0-9.154-2.171-11.994-6.224l-23.765-33.94c-0.015-0.021-0.03-0.042-0.045-0.063c-0.015-0.021-0.029-0.042-0.044-0.063
	l-26.687-38.114c-0.039-0.053-0.077-0.105-0.114-0.159c-0.037-0.054-0.074-0.107-0.11-0.161l-10.572-15.099
	c-2.851-4.071-1.861-9.684,2.21-12.534c4.072-2.853,9.684-1.862,12.535,2.21l5.521,7.886l39.754-27.834
	c4.072-2.852,9.684-1.862,12.535,2.21l26.714,38.153c0.044,0.061,0.088,0.121,0.131,0.183s0.085,0.123,0.126,0.186L349.668,380.735z
	 M273.574,372.358l32.381-22.673l-16.519-23.593l-32.381,22.673L273.574,372.358z M332.984,388.288l-16.705-23.858l-32.381,22.673
	l16.706,23.859L332.984,388.288z M424.708,240.113c0,29.289-23.828,53.117-53.117,53.117c-15.028,0-29.419-6.41-39.483-17.587
	c-8.792-9.765-13.634-22.383-13.634-35.53c0-29.289,23.828-53.117,53.117-53.117S424.708,210.823,424.708,240.113z M406.708,240.113
	c0-19.363-15.753-35.117-35.117-35.117s-35.117,15.754-35.117,35.117c0,8.691,3.2,17.032,9.011,23.485
	c6.655,7.393,16.171,11.632,26.106,11.632C390.955,275.23,406.708,259.476,406.708,240.113z M118.872,288.815
	c3.721,0,7.203-2.326,8.498-6.038c1.637-4.693-0.841-9.825-5.534-11.462c-21.089-7.355-38.982-20.88-51.746-39.112L37.09,185.075
	c-16.176-23.103-22.366-51.238-17.431-79.226c4.935-27.988,20.377-52.31,43.48-68.486c36.03-25.229,84.706-25.36,121.124-0.324
	c4.097,2.815,9.7,1.778,12.515-2.318c2.816-4.097,1.778-9.699-2.318-12.516C151.887-7.061,94.963-6.895,52.815,22.619
	C25.774,41.552,7.703,70.001,1.933,102.724s1.479,65.635,20.413,92.676l32.998,47.126c14.943,21.346,35.886,37.178,60.564,45.785
	C116.889,288.653,117.888,288.815,118.872,288.815z M236.791,289.807l-16.505,23.571c-0.001,0.001-0.001,0.002-0.002,0.003
	c-0.001,0.002-0.002,0.004-0.003,0.005l-77.493,110.67c-2.839,4.056-7.382,6.229-11.995,6.229c-2.894,0-5.815-0.855-8.361-2.636
	l-37.924-26.557c-3.194-2.235-5.327-5.587-6.006-9.437c-0.679-3.85,0.18-7.729,2.417-10.923l23.721-33.877
	c0.028-0.041,0.057-0.083,0.085-0.124c0.029-0.042,0.059-0.083,0.088-0.123l26.655-38.067c0.033-0.049,0.066-0.097,0.1-0.146
	c0.034-0.049,0.068-0.097,0.103-0.145l26.631-38.032c0.036-0.054,0.073-0.107,0.111-0.161c0.037-0.054,0.076-0.107,0.114-0.16
	l16.389-23.406c-17.779-23.404-26.645-52.261-25.064-82.017c0.263-4.964,4.5-8.781,9.465-8.51c4.963,0.264,8.773,4.501,8.51,9.465
	c-1.461,27.494,7.484,54.077,25.188,74.851c2.659,3.12,2.874,7.643,0.522,11l-15.216,21.73l32.381,22.674l15.216-21.73
	c2.351-3.357,6.672-4.702,10.515-3.271c20.884,7.781,44.326,8.711,66.005,2.615c4.785-1.345,9.755,1.443,11.1,6.229
	s-1.443,9.754-6.228,11.1C284.255,297.106,259.48,296.782,236.791,289.807z M146.689,387.102l-32.38-22.673l-16.707,23.859
	l32.38,22.673L146.689,387.102z M173.533,348.767l-32.381-22.674l-16.519,23.591l32.381,22.674L173.533,348.767z M200.377,310.429
	l-32.38-22.673l-16.52,23.593l32.38,22.673L200.377,310.429z"/>
<g>
</g>
<g>
</g>
<g>
</g>
<g>
</g>
<g>
</g>
<g>
</g>
<g>
</g>
<g>
</g>
<g>
</g>
<g>
</g>
<g>
</g>
<g>
</g>
<g>
</g>
<g>
</g>
<g>
</g>
</svg>
