<?xml version="1.0" encoding="iso-8859-1"?>
<!-- Generator: Adobe Illustrator 19.0.0, SVG Export Plug-In . SVG Version: 6.00 Build 0)  -->
<svg version="1.1" id="Capa_1" xmlns="http://www.w3.org/2000/svg" xmlns:xlink="http://www.w3.org/1999/xlink" x="0px" y="0px"
	 viewBox="0 0 429.986 429.986" style="enable-background:new 0 0 429.986 429.986;" xml:space="preserve">
<path id="XMLID_1300_" d="M429.274,5.486c-0.002-0.006-0.005-0.011-0.007-0.017c-0.404-0.949-0.979-1.843-1.724-2.635
	c-0.003-0.003-0.006-0.006-0.01-0.009c-0.001-0.002-0.003-0.004-0.005-0.006c-0.117-0.125-0.238-0.246-0.363-0.363
	c-0.002-0.002-0.004-0.004-0.006-0.005c-0.003-0.004-0.006-0.007-0.009-0.01c-0.792-0.745-1.686-1.319-2.635-1.724
	c-0.006-0.002-0.011-0.005-0.017-0.007C423.42,0.253,422.233,0,420.986,0H9C4.029,0,0,4.029,0,9v411.986
	c0,1.247,0.253,2.434,0.712,3.514c0.002,0.006,0.005,0.011,0.007,0.017c0.404,0.949,0.979,1.843,1.724,2.635
	c0.003,0.003,0.006,0.006,0.01,0.009c0.001,0.002,0.003,0.004,0.005,0.006c0.117,0.125,0.238,0.246,0.363,0.363
	c0.002,0.002,0.004,0.004,0.006,0.005c0.003,0.004,0.006,0.007,0.009,0.01c0.792,0.745,1.686,1.319,2.635,1.724
	c0.006,0.002,0.011,0.005,0.017,0.007c1.08,0.459,2.267,0.712,3.514,0.712h411.986c1.247,0,2.434-0.253,3.514-0.712
	c0.006-0.002,0.011-0.005,0.017-0.007c0.949-0.404,1.843-0.979,2.635-1.724c0.003-0.003,0.006-0.006,0.009-0.01
	c0.002-0.001,0.004-0.003,0.006-0.005c0.125-0.117,0.246-0.238,0.363-0.363c0.002-0.002,0.004-0.004,0.005-0.006
	c0.004-0.003,0.007-0.006,0.01-0.009c0.745-0.792,1.319-1.686,1.724-2.635c0.002-0.006,0.005-0.011,0.007-0.017
	c0.459-1.08,0.712-2.267,0.712-3.514V9C429.986,7.753,429.733,6.566,429.274,5.486z M399.259,18l-84.996,84.996H133.725L218.721,18
	H399.259z M133.724,120.996h162.539l-81.27,81.27L133.724,120.996z M202.266,214.993l-90.269,90.269l-90.27-90.269l90.27-90.269
	L202.266,214.993z M18,18h175.266l-87.542,87.541c-0.063,0.062-0.124,0.123-0.186,0.186L18,193.266V18z M18,236.721l81.269,81.27
	L18,399.259V236.721z M30.728,411.986l184.266-184.266l184.266,184.266H30.728z M411.986,399.259L227.721,214.993L411.986,30.728
	V399.259z"/>
<g>
</g>
<g>
</g>
<g>
</g>
<g>
</g>
<g>
</g>
<g>
</g>
<g>
</g>
<g>
</g>
<g>
</g>
<g>
</g>
<g>
</g>
<g>
</g>
<g>
</g>
<g>
</g>
<g>
</g>
</svg>
