<?xml version="1.0" encoding="iso-8859-1"?>
<!-- Generator: Adobe Illustrator 19.0.0, SVG Export Plug-In . SVG Version: 6.00 Build 0)  -->
<svg version="1.1" id="Capa_1" xmlns="http://www.w3.org/2000/svg" xmlns:xlink="http://www.w3.org/1999/xlink" x="0px" y="0px"
	 viewBox="0 0 429.996 429.996" style="enable-background:new 0 0 429.996 429.996;" xml:space="preserve">
<path id="XMLID_471_" d="M188.406,384.036c0,4.971-4.029,9-9,9h-2.683c-4.971,0-9-4.029-9-9s4.029-9,9-9h2.683
	C184.377,375.036,188.406,379.065,188.406,384.036z M150.273,345.961h-2.682c-4.971,0-9,4.029-9,9s4.029,9,9,9h2.682
	c4.971,0,9-4.029,9-9S155.244,345.961,150.273,345.961z M284.601,185.89h1.942c4.971,0,9-4.029,9-9s-4.029-9-9-9h-1.942
	c-4.971,0-9,4.029-9,9S279.63,185.89,284.601,185.89z M223.998,328.057v82.881c0,10.508-8.549,19.058-19.057,19.058h-82.882
	c-3.689,0-7.136-1.053-10.057-2.875c-2.921,1.822-6.369,2.875-10.058,2.875H19.063c-10.508,0-19.058-8.549-19.058-19.058v-82.881
	C0.005,317.549,8.554,309,19.063,309h33.383c-0.019-0.35-0.029-0.703-0.029-1.058v-82.881c0-10.508,8.549-19.058,19.058-19.058
	h82.88c10.509,0,19.059,8.549,19.059,19.058v82.881c0,0.354-0.01,0.708-0.029,1.058h31.556
	C215.449,309,223.998,317.549,223.998,328.057z M103.003,328.057c0-0.563-0.495-1.058-1.059-1.058H19.063
	c-0.563,0-1.058,0.494-1.058,1.058v82.881c0,0.563,0.494,1.058,1.058,1.058h82.881c0.564,0,1.059-0.494,1.059-1.058V328.057z
	 M112.002,311.875c2.921-1.822,6.368-2.875,10.057-2.875h32.296c0.564,0,1.059-0.494,1.059-1.058v-82.881
	c0-0.563-0.495-1.058-1.059-1.058h-82.88c-0.563,0-1.058,0.494-1.058,1.058v82.881c0,0.563,0.495,1.058,1.058,1.058h30.469
	C105.633,309,109.081,310.053,112.002,311.875z M205.998,328.057c0-0.563-0.494-1.058-1.057-1.058h-82.882
	c-0.563,0-1.056,0.494-1.056,1.058v82.881c0,0.563,0.493,1.058,1.056,1.058h82.882c0.563,0,1.057-0.494,1.057-1.058V328.057z
	 M156.038,152.17h1.943c4.971,0,9-4.029,9-9s-4.029-9-9-9h-1.943c-4.971,0-9,4.029-9,9S151.067,152.17,156.038,152.17z
	 M353.333,185.89c4.971,0,9-4.029,9-9s-4.029-9-9-9h-1.944c-4.971,0-9,4.029-9,9s4.029,9,9,9H353.333z M61.842,360.498h-2.681
	c-4.971,0-9,4.029-9,9s4.029,9,9,9h2.681c4.971,0,9-4.029,9-9S66.813,360.498,61.842,360.498z M90.971,235.501h-2.681
	c-4.971,0-9,4.029-9,9s4.029,9,9,9h2.681c4.971,0,9-4.029,9-9S95.942,235.501,90.971,235.501z M114.254,257.501h-2.681
	c-4.971,0-9,4.029-9,9s4.029,9,9,9h2.681c4.971,0,9-4.029,9-9S119.225,257.501,114.254,257.501z M134.857,297.502h2.683
	c4.971,0,9-4.029,9-9s-4.029-9-9-9h-2.683c-4.971,0-9,4.029-9,9S129.886,297.502,134.857,297.502z M224.771,134.17h-1.942
	c-4.971,0-9,4.029-9,9s4.029,9,9,9h1.942c4.971,0,9-4.029,9-9S229.741,134.17,224.771,134.17z M284.601,152.17h1.942
	c4.971,0,9-4.029,9-9s-4.029-9-9-9h-1.942c-4.971,0-9,4.029-9,9S279.63,152.17,284.601,152.17z M319.938,134.17h-1.943
	c-4.971,0-9,4.029-9,9s4.029,9,9,9h1.943c4.971,0,9-4.029,9-9S324.908,134.17,319.938,134.17z M156.038,118.452h1.943
	c4.971,0,9-4.029,9-9s-4.029-9-9-9h-1.943c-4.971,0-9,4.029-9,9S151.067,118.452,156.038,118.452z M319.938,167.89h-1.943
	c-4.971,0-9,4.029-9,9s4.029,9,9,9h1.943c4.971,0,9-4.029,9-9S324.908,167.89,319.938,167.89z M305.813,49.404h-21.212
	c-4.971,0-9,4.029-9,9s4.029,9,9,9h21.212c4.971,0,9-4.029,9-9S310.784,49.404,305.813,49.404z M429.991,86.696v282.802
	c0,4.971-4.029,9-9,9H250.127c-4.971,0-9-4.029-9-9s4.029-9,9-9h161.864V95.696h-68.687c-4.971,0-9-4.029-9-9V18.01H127.68v161.433
	c0,4.971-4.029,9-9,9s-9-4.029-9-9V9.01c0-4.971,4.029-9,9-9h224.625c3.256-0.163,5.429,1.731,6.248,2.522l0.001,0.001
	c0.006,0.005,0.011,0.011,0.017,0.016c0.002,0.002,0.005,0.004,0.007,0.007c0.004,0.003,0.007,0.007,0.011,0.011
	c0.005,0.005,0.009,0.009,0.014,0.014c0.001,0.001,0.003,0.003,0.004,0.004c0.022,0.021,0.043,0.043,0.065,0.064l77.678,77.678
	c0.021,0.022,0.043,0.043,0.064,0.065c0.001,0.001,0.003,0.003,0.004,0.004c0.005,0.005,0.009,0.009,0.014,0.014
	c0.003,0.004,0.007,0.007,0.011,0.011c0.002,0.002,0.005,0.005,0.007,0.007c0.005,0.005,0.011,0.011,0.016,0.017l0.001,0.001
	c0.791,0.819,1.818,2.752,1.82,2.757C429.29,83.207,429.991,85.46,429.991,86.696z M399.263,77.696l-46.958-46.958v46.958H399.263z
	 M156.038,185.888h1.943c4.971,0,9-4.029,9-9s-4.029-9-9-9h-1.943c-4.971,0-9,4.029-9,9S151.067,185.888,156.038,185.888z
	 M189.432,152.17h1.943c4.971,0,9-4.029,9-9s-4.029-9-9-9h-1.943c-4.971,0-9,4.029-9,9S184.461,152.17,189.432,152.17z
	 M227.182,49.404h-71.145c-4.971,0-9,4.029-9,9s4.029,9,9,9h71.145c4.971,0,9-4.029,9-9S232.153,49.404,227.182,49.404z
	 M189.432,118.452h1.943c4.971,0,9-4.029,9-9s-4.029-9-9-9h-1.943c-4.971,0-9,4.029-9,9S184.461,118.452,189.432,118.452z
	 M284.601,118.453h1.942c4.971,0,9-4.029,9-9s-4.029-9-9-9h-1.942c-4.971,0-9,4.029-9,9S279.63,118.453,284.601,118.453z"/>
<g>
</g>
<g>
</g>
<g>
</g>
<g>
</g>
<g>
</g>
<g>
</g>
<g>
</g>
<g>
</g>
<g>
</g>
<g>
</g>
<g>
</g>
<g>
</g>
<g>
</g>
<g>
</g>
<g>
</g>
</svg>
